<svg width="24" height="24" viewBox="0 0 24 24" fill="none" xmlns="http://www.w3.org/2000/svg">
<path fill-rule="evenodd" clip-rule="evenodd" d="M14.2222 5.48571H9.77778C9.4867 5.48571 9.2002 5.50591 8.91955 5.54502C8.71121 5.57405 8.61288 5.80993 8.72729 5.98644L9.60136 7.33501C9.63969 7.39414 9.70601 7.42874 9.77648 7.42874H14.2209C14.293 7.42874 14.3608 7.39339 14.4 7.33293L15.2727 5.98644C15.3871 5.80993 15.2888 5.57405 15.0805 5.54502C14.7998 5.50591 14.5133 5.48571 14.2222 5.48571ZM16.0614 7.44795C15.9592 7.60567 16.026 7.81707 16.1934 7.90249C17.4866 8.56233 18.4229 9.85073 18.6247 11.3792C18.6453 11.5352 18.7749 11.657 18.9322 11.657L20.2314 11.657C20.403 11.657 20.5403 11.513 20.5237 11.3422C20.3068 9.11809 19.0024 7.22378 17.1654 6.23037C17.0321 6.15827 16.8673 6.20465 16.7848 6.33185L16.0614 7.44795ZM18.7596 13.1427C18.622 13.1427 18.503 13.2368 18.4629 13.3685C18.0986 14.5643 17.2696 15.5487 16.1935 16.0978C16.0261 16.1832 15.9593 16.3946 16.0616 16.5523L16.7848 17.6682C16.8672 17.7954 17.032 17.8418 17.1654 17.7697C18.7679 16.903 19.9653 15.3507 20.3887 13.4919C20.43 13.3105 20.2884 13.1427 20.1024 13.1427H18.7596ZM14.4002 16.6675C14.361 16.607 14.2931 16.5716 14.2209 16.5716H9.77648C9.70592 16.5716 9.63951 16.6062 9.60114 16.6654L8.72735 18.0136C8.61294 18.1901 8.71127 18.426 8.91961 18.455C9.20025 18.4941 9.48672 18.5143 9.77778 18.5143H14.2222C14.5133 18.5143 14.7998 18.4941 15.0804 18.455C15.2887 18.426 15.3871 18.1901 15.2726 18.0136L14.4002 16.6675ZM7.9378 16.5533C8.04006 16.3956 7.97321 16.1841 7.8057 16.0987C6.72868 15.5498 5.89895 14.5649 5.53453 13.3684C5.49442 13.2367 5.37542 13.1427 5.23778 13.1427L3.89757 13.1426C3.71155 13.1426 3.56997 13.3104 3.61128 13.4918C4.03468 15.3506 5.23203 16.903 6.83463 17.7697C6.96796 17.8418 7.13277 17.7954 7.21521 17.6682L7.9378 16.5533ZM5.06523 11.657C5.22254 11.657 5.35209 11.5352 5.37268 11.3792C5.57458 9.85002 6.51168 8.56112 7.80578 7.90157C7.9733 7.81619 8.04017 7.60472 7.93791 7.44695L7.21516 6.33185C7.13272 6.20465 6.96791 6.15827 6.83457 6.23037C4.99764 7.22378 3.69316 9.11809 3.47633 11.3422C3.45968 11.513 3.59696 11.657 3.76858 11.657L5.06523 11.657ZM9.77778 4C5.48223 4 2 7.58172 2 12C2 16.4183 5.48223 20 9.77778 20H14.2222C18.5178 20 22 16.4183 22 12C22 7.58172 18.5178 4 14.2222 4H9.77778ZM9.77648 8.91445H14.2209C15.8778 8.91445 17.2209 10.296 17.2209 12.0002C17.2209 13.7044 15.8778 15.0859 14.2209 15.0859H9.77648C8.11962 15.0859 6.77648 13.7044 6.77648 12.0002C6.77648 10.296 8.11962 8.91445 9.77648 8.91445Z" fill="#717681"/>
</svg>
