<svg width="24" height="24" viewBox="0 0 24 24" fill="none" xmlns="http://www.w3.org/2000/svg">
<path d="M11.1816 6.82552C11.4688 7.07596 11.5011 7.51459 11.2535 7.80525L9.59145 9.75694C9.46969 9.89991 9.29569 9.98661 9.10946 9.9971C8.92322 10.0076 8.74078 9.94098 8.60409 9.81257L7.35752 8.64156C7.07963 8.38051 7.06352 7.94096 7.32154 7.6598C7.57956 7.37865 8.01401 7.36235 8.2919 7.6234L9.01625 8.30385L10.2132 6.89835C10.4607 6.6077 10.8943 6.57509 11.1816 6.82552Z" fill="#717681"/>
<path d="M12.8839 8.32764C12.8839 8.7113 13.1913 9.02232 13.5705 9.02232L15.9894 9.02231C16.3686 9.02231 16.6761 8.71129 16.6761 8.32763C16.6761 7.94396 16.3686 7.63295 15.9894 7.63295L13.5705 7.63295C13.1913 7.63295 12.8839 7.94397 12.8839 8.32764Z" fill="#717681"/>
<path d="M13.5705 15.5613C13.1913 15.5613 12.8839 15.2503 12.8839 14.8666C12.8839 14.483 13.1913 14.1719 13.5705 14.1719L15.9894 14.1719C16.3686 14.1719 16.6761 14.4829 16.6761 14.8666C16.6761 15.2503 16.3686 15.5613 15.9894 15.5613L13.5705 15.5613Z" fill="#717681"/>
<path fill-rule="evenodd" clip-rule="evenodd" d="M7.16631 14.1185C7.16631 13.3512 7.78113 12.7291 8.53954 12.7291H10.0184C10.7768 12.7291 11.3917 13.3512 11.3917 14.1185V15.6147C11.3917 16.382 10.7768 17.0041 10.0184 17.0041H8.53954C7.78113 17.0041 7.16631 16.382 7.16631 15.6147V14.1185ZM8.53954 14.1185H10.0184V15.6147H8.53954V14.1185Z" fill="#717681"/>
<path fill-rule="evenodd" clip-rule="evenodd" d="M21.3134 8.188C22.1989 8.188 22.1989 6.79863 21.3134 6.79863H19.8451V5.20623C19.8451 3.43212 18.4296 2 16.6761 2H7.16901C5.41549 2 4 3.43212 4 5.20623V17.9938C4 19.7679 5.41549 21.2 7.16901 21.2H16.6761C18.4296 21.2 19.8451 19.7572 19.8451 17.9938V16.3907H21.3134C21.6926 16.3907 22 16.0796 22 15.696C22 15.3123 21.6926 15.0013 21.3134 15.0013H19.8451V8.188H21.3134ZM16.6761 3.38937C17.669 3.38937 18.4718 4.20161 18.4718 5.20623L18.4718 17.9938C18.4718 18.9984 17.669 19.8106 16.6761 19.8106H7.16901C6.17606 19.8106 5.37324 18.9984 5.37324 17.9938L5.37324 5.20623C5.37324 4.20161 6.17606 3.38937 7.16901 3.38937L16.6761 3.38937Z" fill="#717681"/>
</svg>
