<svg width="24" height="24" viewBox="0 0 24 24" fill="none" xmlns="http://www.w3.org/2000/svg">
<path d="M11.9999 8.55566C12.3067 8.55566 12.5554 8.80439 12.5554 9.11122C12.5554 9.41804 12.3067 9.66678 11.9999 9.66678C11.6931 9.66678 11.4443 9.41804 11.4443 9.11122C11.4443 8.80439 11.6931 8.55566 11.9999 8.55566Z" fill="#626F84"/>
<path d="M12 10.6694C12.266 10.6694 12.4815 10.885 12.4815 11.1509V14C12.4815 14.2659 12.6971 14.4814 12.963 14.4814H13C13.266 14.4814 13.4815 14.697 13.4815 14.9629C13.4815 15.2288 13.266 15.4444 13 15.4444H12.9629C12.1652 15.4444 11.5186 14.7977 11.5186 14V11.1509C11.5186 10.885 11.7341 10.6694 12 10.6694Z" fill="#626F84"/>
<path fill-rule="evenodd" clip-rule="evenodd" d="M12 4C7.58172 4 4 7.58172 4 12C4 16.4183 7.58172 20 12 20C16.4183 20 20 16.4183 20 12C20 7.58172 16.4183 4 12 4ZM5.15556 12C5.15556 8.21992 8.21992 5.15556 12 5.15556C15.7801 5.15556 18.8444 8.21992 18.8444 12C18.8444 15.7801 15.7801 18.8444 12 18.8444C8.21992 18.8444 5.15556 15.7801 5.15556 12Z" fill="#626F84"/>
</svg>
