<svg width="24" height="24" viewBox="0 0 24 24" fill="none" xmlns="http://www.w3.org/2000/svg">
<path fill-rule="evenodd" clip-rule="evenodd" d="M15.3003 6.30034C15.3003 8.12307 13.8227 9.60069 12 9.60069C10.1773 9.60069 8.69965 8.12307 8.69965 6.30034C8.69965 4.47761 10.1773 3 12 3C13.8227 3 15.3003 4.47761 15.3003 6.30034ZM14.0003 6.30034C14.0003 7.4051 13.1047 8.30069 12 8.30069C10.8952 8.30069 9.99965 7.4051 9.99965 6.30034C9.99965 5.19558 10.8952 4.3 12 4.3C13.1047 4.3 14.0003 5.19558 14.0003 6.30034Z" fill="#717681"/>
<path fill-rule="evenodd" clip-rule="evenodd" d="M15.3021 17.698C15.3021 19.5217 13.8237 21.0001 12 21.0001C10.1763 21.0001 8.69794 19.5217 8.69794 17.698C8.69794 15.8743 10.1763 14.3959 12 14.3959C13.8237 14.3959 15.3021 15.8743 15.3021 17.698ZM14.0021 17.698C14.0021 18.8037 13.1058 19.7001 12 19.7001C10.8943 19.7001 9.99794 18.8037 9.99794 17.698C9.99794 16.5922 10.8943 15.6959 12 15.6959C13.1058 15.6959 14.0021 16.5922 14.0021 17.698Z" fill="#717681"/>
<path fill-rule="evenodd" clip-rule="evenodd" d="M9.60024 12.0001C9.60024 10.1774 8.12273 8.69993 6.30012 8.69993C4.47751 8.69993 3 10.1774 3 12.0001C3 13.8227 4.47751 15.3002 6.30012 15.3002C8.12273 15.3002 9.60024 13.8227 9.60024 12.0001ZM8.30024 12.0001C8.30024 10.8954 7.40475 9.99993 6.30012 9.99993C5.19548 9.99993 4.3 10.8954 4.3 12.0001C4.3 13.1047 5.19548 14.0002 6.30012 14.0002C7.40475 14.0002 8.30024 13.1047 8.30024 12.0001Z" fill="#717681"/>
<path fill-rule="evenodd" clip-rule="evenodd" d="M17.7009 8.70102C19.5229 8.70102 21 10.178 21 12C21 13.822 19.5229 15.2991 17.7009 15.2991C15.8789 15.2991 14.4019 13.822 14.4019 12C14.4019 10.178 15.8789 8.70102 17.7009 8.70102ZM17.7009 10.001C18.805 10.001 19.7 10.896 19.7 12C19.7 13.1041 18.805 13.9991 17.7009 13.9991C16.5969 13.9991 15.7019 13.1041 15.7019 12C15.7019 10.896 16.5969 10.001 17.7009 10.001Z" fill="#717681"/>
</svg>
