<svg width="24" height="24" viewBox="0 0 24 24" fill="none" xmlns="http://www.w3.org/2000/svg">
<path d="M10.2217 18.4626C9.78379 18.1311 9.18485 18.1106 8.72528 18.4112L6.81189 19.6631C6.75611 19.6996 6.69089 19.719 6.62423 19.719C6.43491 19.719 6.28145 19.5655 6.28145 19.3762V6C6.28145 5.06112 7.04256 4.3 7.98145 4.3H15.9814C16.9203 4.3 17.6814 5.06112 17.6814 6V9.99152C17.6814 10.3505 17.9725 10.6415 18.3314 10.6415C18.6904 10.6415 18.9814 10.3505 18.9814 9.99152V6C18.9814 4.34315 17.6383 3 15.9814 3H7.98145C6.32459 3 4.98145 4.34315 4.98145 6V19.3762C4.98145 20.2835 5.71694 21.019 6.62423 21.019C6.94371 21.019 7.25627 20.9258 7.52362 20.7509L9.04879 19.7531C9.28162 19.6008 9.58868 19.6139 9.81052 19.7818C10.2386 20.1059 10.863 19.8083 10.863 19.2713C10.863 19.0677 10.7677 18.8759 10.6054 18.7531L10.2217 18.4626Z" fill="#717681"/>
<path d="M8.66831 6.99292C8.30933 6.99292 8.01831 7.28394 8.01831 7.64292C8.01831 8.0019 8.30933 8.29292 8.66831 8.29292H15.3683C15.7273 8.29292 16.0183 8.0019 16.0183 7.64292C16.0183 7.28394 15.7273 6.99292 15.3683 6.99292H8.66831Z" fill="#717681"/>
<path d="M8.66831 9.99219C8.30933 9.99219 8.01831 10.2832 8.01831 10.6422C8.01831 11.0012 8.30933 11.2922 8.66831 11.2922H11.8752C12.2342 11.2922 12.5252 11.0012 12.5252 10.6422C12.5252 10.2832 12.2342 9.99219 11.8752 9.99219H8.66831Z" fill="#717681"/>
<path d="M17.6412 17.8375C17.6412 17.4785 17.3502 17.1875 16.9912 17.1875C16.6322 17.1875 16.3412 17.4785 16.3412 17.8375V18.7698C16.3412 19.1288 16.6322 19.4198 16.9912 19.4198C17.3502 19.4198 17.6412 19.1288 17.6412 18.7698V17.8375Z" fill="#717681"/>
<path d="M17.6413 15.2379C17.6413 15.5969 17.3503 15.8879 16.9913 15.8879C16.6323 15.8879 16.3413 15.5969 16.3413 15.2379C16.3413 14.8789 16.6323 14.5879 16.9913 14.5879C17.3503 14.5879 17.6413 14.8789 17.6413 15.2379Z" fill="#717681"/>
<path fill-rule="evenodd" clip-rule="evenodd" d="M20.5195 13.4818C18.5709 11.5332 15.4116 11.5332 13.4631 13.4818C11.5145 15.4304 11.5145 18.5897 13.4631 20.5383C15.4116 22.4869 18.5709 22.4869 20.5195 20.5383C22.4681 18.5897 22.4681 15.4304 20.5195 13.4818ZM14.3823 14.401C15.8232 12.9601 18.1594 12.9601 19.6003 14.401C21.0412 15.8419 21.0412 18.1781 19.6003 19.619C18.1594 21.0599 15.8232 21.0599 14.3823 19.619C12.9414 18.1781 12.9414 15.8419 14.3823 14.401Z" fill="#717681"/>
</svg>
