<svg width="24" height="24" viewBox="0 0 24 24" fill="none" xmlns="http://www.w3.org/2000/svg">
<path fill-rule="evenodd" clip-rule="evenodd" d="M6 5C4.34 5 3 6.34 3 8V16C3 17.66 4.34 19 6 19H18C19.66 19 21 17.66 21 16V8C21 6.34 19.65 5 18 5H6ZM19.7 8.94677L15.3527 12.2223L17.9233 14.1564C18.2101 14.3722 18.2677 14.7798 18.0519 15.0666C17.836 15.3535 17.4285 15.4111 17.1417 15.1952L14.2724 13.0364L14.0965 13.1689C12.7961 14.1487 11.0039 14.1487 9.70352 13.1689L9.52765 13.0364L6.65835 15.1952C6.3715 15.4111 5.96399 15.3535 5.74815 15.0666C5.53232 14.7798 5.5899 14.3722 5.87676 14.1564L8.4473 12.2224L4.3 9.09745V16C4.3 16.94 5.06 17.7 6 17.7H18C18.94 17.7 19.7 16.94 19.7 16V8.94677ZM18 6.3C18.729 6.3 19.3497 6.75707 19.5917 7.40069L13.3142 12.1306C12.4769 12.7615 11.3231 12.7615 10.4858 12.1306L4.36818 7.52111C4.57461 6.81483 5.22634 6.3 6 6.3H18Z" fill="#797F93"/>
</svg>
