<svg width="24" height="24" viewBox="0 0 24 24" fill="none" xmlns="http://www.w3.org/2000/svg">
<path fill-rule="evenodd" clip-rule="evenodd" d="M11.609 3C9.7424 3 8.2292 4.5132 8.2292 6.37982V11.1697C7.09517 12.1789 6.38086 13.6496 6.38086 15.2871C6.38086 18.33 8.84769 20.7969 11.8907 20.7969C14.9337 20.7969 17.4005 18.33 17.4005 15.2871C17.4005 13.6496 16.6862 12.1789 15.5521 11.1697V6.37982C15.5521 4.5132 14.0389 3 12.1723 3H11.609ZM9.67267 11.4848H9.67266C9.6713 11.757 9.52929 12.0061 9.31795 12.1781C8.39851 12.9261 7.81115 14.0666 7.81115 15.3443C7.81115 17.5973 9.63762 19.4238 11.8907 19.4238C14.1438 19.4238 15.9702 17.5973 15.9702 15.3443C15.9702 14.0649 15.3813 12.9231 14.4598 12.1751C14.247 12.0024 14.1043 11.7514 14.1043 11.4774C14.1043 11.4482 14.1058 11.4196 14.1087 11.3915V6.69668C14.1087 5.47171 13.1156 4.47867 11.8907 4.47867C10.6657 4.47867 9.67267 5.47171 9.67267 6.69668L9.67267 11.4808L9.67267 11.4848ZM11.1583 6.43434C11.1583 6.02991 11.4862 5.70205 11.8906 5.70205C12.2951 5.70205 12.6229 6.02991 12.6229 6.43434V12.4175C12.6229 12.7241 12.8283 12.9864 13.0957 13.1365C13.8475 13.5586 14.3555 14.3635 14.3555 15.287C14.3555 16.6481 13.2521 17.7515 11.8911 17.7515C10.53 17.7515 9.42661 16.6481 9.42661 15.287C9.42661 14.3637 9.93434 13.559 10.6858 13.1369C10.9531 12.9867 11.1583 12.7245 11.1583 12.4179V6.43434Z" fill="#717681"/>
</svg>
