<svg width="24" height="24" viewBox="0 0 24 24" fill="none" xmlns="http://www.w3.org/2000/svg">
<path fill-rule="evenodd" clip-rule="evenodd" d="M17.2034 9.00439L19.805 11.7533C20.0405 11.9684 20.0663 12.3446 19.8627 12.5934C19.6592 12.8422 19.3032 12.8695 19.0676 12.6544L18.0706 11.6008V18.8088C18.0706 19.4667 17.5659 20 16.9432 20H14.1676C13.5448 20 13.0401 19.4666 13.0402 18.8087L13.0407 13.8608H10.9594V18.8088C10.9594 19.4667 10.4546 20 9.83197 20H7.05686C6.43422 20 5.92947 19.4667 5.92947 18.8088V11.6008L4.93238 12.6544C4.69689 12.8695 4.34091 12.8422 4.13729 12.5934C3.93368 12.3446 3.95952 11.9684 4.19502 11.7533L6.79669 9.00439L11.2028 4.34889C11.6431 3.8837 12.3569 3.8837 12.7972 4.34889L17.2034 9.00439ZM16.9432 18.8088H14.1681V13.8608C14.1681 13.2029 13.6634 12.6696 13.0407 12.6696H10.9594C10.3367 12.6696 9.83197 13.2029 9.83197 13.8608V18.8088H7.05686V10.4141L12 5.19119L16.9432 10.4141V18.8088Z" fill="#626F84"/>
</svg>
