<svg width="24" height="53" viewBox="0 0 24 53" fill="none" xmlns="http://www.w3.org/2000/svg">
<path d="M10.9788 45.4054L14.061 36.0107H12.2173L10.0569 43.2268L7.84066 36.0107H6.21107L3.94827 43.2161L1.84377 36.0107H0L3.02638 45.4054H4.76772L7.02121 38.4125L9.22814 45.4054H10.9788Z" fill="#4B689B"/>
<path d="M23.8786 43.8005C23.9624 43.4073 23.9997 42.9291 23.9997 42.3552V39.0501C23.9997 38.4762 23.9531 37.998 23.8786 37.6047C23.7948 37.2222 23.6551 36.9033 23.4596 36.6589C23.264 36.4145 23.0033 36.2444 22.6681 36.1488C22.3328 36.0531 21.9231 36 21.4203 36H14.4922V45.3947H21.4203C21.9231 45.3947 22.3422 45.3415 22.6681 45.2459C23.0033 45.1502 23.264 44.9802 23.4596 44.7357C23.6551 44.5126 23.7948 44.1938 23.8786 43.8005ZM22.3887 42.3658C22.3887 42.8334 22.3142 43.1416 22.1839 43.3117C22.0442 43.4711 21.7928 43.5561 21.4203 43.5561H16.1218V37.8598H21.4203C21.7834 37.8598 22.0349 37.9448 22.1745 38.1149C22.3142 38.2849 22.3887 38.6037 22.3887 39.0607V42.3658Z" fill="#4B689B"/>
<path d="M8.8955 2.80302C8.89148 2.8151 8.89148 2.8312 8.89148 2.84328C8.89148 2.98417 9.00399 3.09688 9.14464 3.09688C9.28528 3.09688 9.39779 2.98417 9.39779 2.84328C9.39779 2.70239 9.28528 2.58968 9.14464 2.58968C9.12455 2.58968 9.10847 2.59371 9.0924 2.59371L8.42535 1.93758V0.500527L9.88 2.07041L10.326 3.89792C10.2858 3.9422 10.2617 4.00258 10.2617 4.06698C10.2617 4.20787 10.3743 4.32058 10.5149 4.32058C10.6555 4.32058 10.7681 4.20787 10.7681 4.06698C10.7681 3.9583 10.6997 3.86572 10.6033 3.82949L10.1492 1.96575C10.1412 1.9416 10.1291 1.91745 10.1131 1.90135L8.38115 0.0456625C8.34097 0.00138371 8.28069 -0.0106923 8.22845 0.00943441C8.17621 0.0295611 8.14005 0.0818906 8.14005 0.142271V2.00198C8.14005 2.03821 8.15612 2.07444 8.18023 2.10261L8.8955 2.80302ZM9.86794 15.0723C9.80365 15.0723 9.74739 15.0964 9.70319 15.1327L8.93568 14.9233L8.77495 13.446C8.76691 13.3696 8.6986 13.3132 8.61823 13.3213C8.54188 13.3293 8.48563 13.3977 8.49366 13.4782L8.66243 15.0522C8.67047 15.1085 8.71065 15.1568 8.76691 15.1729L9.62684 15.4064C9.65899 15.507 9.75543 15.5754 9.86392 15.5754C10.0046 15.5754 10.1171 15.4627 10.1171 15.3219C10.1211 15.185 10.0086 15.0723 9.86794 15.0723ZM8.09585 10.2298C8.06772 10.2177 8.03557 10.2137 8.00342 10.2137C7.86278 10.2137 7.75027 10.3264 7.75027 10.4673C7.75027 10.6082 7.86278 10.7209 8.00342 10.7209C8.14407 10.7209 8.25658 10.6082 8.25658 10.4673C8.25658 10.4673 8.25658 10.4673 8.25658 10.4633L9.98046 9.27578C10.0086 9.25566 10.0327 9.22345 10.0367 9.18722L10.4707 7.1182C10.4747 7.09807 10.4747 7.07392 10.4707 7.05379L9.73132 4.19982C9.76748 4.15554 9.79159 4.09919 9.79159 4.03478C9.79159 3.89389 9.67908 3.78118 9.53844 3.78118C9.39779 3.78118 9.28528 3.89389 9.28528 4.03478C9.28528 4.14347 9.35761 4.24007 9.45405 4.27228L10.1854 7.08599L9.7715 9.07049L8.09585 10.2298ZM10.5109 4.90426C10.5109 5.02502 10.5953 5.12565 10.7078 5.1498L11.3306 6.75189L10.76 9.54548L8.38115 11.1918H6.01032L5.84557 11.0469C5.84557 11.0349 5.84958 11.0228 5.84958 11.0147C5.84958 10.8738 5.73707 10.7611 5.59643 10.7611C5.45579 10.7611 5.34327 10.8738 5.34327 11.0147C5.34327 11.1556 5.45579 11.2683 5.59643 11.2683C5.61652 11.2683 5.63661 11.2643 5.6567 11.2603L5.85762 11.4414C5.88173 11.4656 5.9179 11.4776 5.95004 11.4776H8.41731C8.44544 11.4776 8.47357 11.4696 8.49768 11.4535L10.9569 9.75077C10.985 9.73065 11.0092 9.69844 11.0132 9.66222L11.6039 6.77202C11.6079 6.74384 11.6079 6.71969 11.5958 6.69151L10.9569 5.04917C10.985 5.00891 11.0011 4.96061 11.0011 4.90426C11.0011 4.76337 10.8886 4.65066 10.748 4.65066C10.6073 4.65066 10.5109 4.76739 10.5109 4.90426ZM14.0671 19.629C14.2078 19.629 14.3203 19.5163 14.3203 19.3754C14.3203 19.2707 14.256 19.1781 14.1636 19.1419L13.7738 17.3627C13.7698 17.3345 13.7537 17.3104 13.7336 17.2943L12.4919 16.0625L12.1664 13.0556C12.2187 13.0113 12.2508 12.9429 12.2508 12.8664C12.2508 12.7255 12.1383 12.6128 11.9977 12.6128C11.857 12.6128 11.7445 12.7255 11.7445 12.8664C11.7445 12.967 11.8008 13.0516 11.8852 13.0918L12.2147 16.139C12.2187 16.1712 12.2307 16.1994 12.2548 16.2235L13.5005 17.4593L13.8823 19.1983C13.8381 19.2425 13.814 19.3029 13.814 19.3714C13.814 19.5163 13.9265 19.629 14.0671 19.629ZM6.97071 4.33668L6.60504 4.73922C6.5528 4.79557 6.55682 4.88413 6.61709 4.93646C6.64522 4.96061 6.67737 4.97269 6.70951 4.97269C6.7497 4.97269 6.78586 4.95659 6.81399 4.92438L7.00285 4.71506C6.99884 4.73117 6.99884 4.74727 6.99884 4.76337C6.99884 4.90426 7.11135 5.01697 7.25199 5.01697C7.39263 5.01697 7.50515 4.90426 7.50515 4.76337C7.50515 4.75129 7.50515 4.73519 7.50113 4.72312L7.98735 4.89218C8.05968 4.91633 8.14005 4.8801 8.16818 4.80765C8.19229 4.73519 8.15612 4.65468 8.08379 4.62651L7.12742 4.2924C7.06715 4.28033 7.00687 4.2924 6.97071 4.33668ZM9.02409 12.1298H5.84557L5.11423 11.4656C5.11423 11.4615 5.11423 11.4575 5.11423 11.4535C5.11423 11.3126 5.00171 11.1999 4.86107 11.1999C4.72043 11.1999 4.60791 11.3126 4.60791 11.4535C4.60791 11.5944 4.72043 11.7071 4.86107 11.7071C4.8892 11.7071 4.91733 11.7031 4.94144 11.695L5.69287 12.3793C5.71698 12.4035 5.75314 12.4156 5.78931 12.4156H9.06427C9.0924 12.4156 9.12053 12.4075 9.14464 12.3914L11.853 10.4914C11.8811 10.4713 11.9012 10.4391 11.9093 10.4029L12.4236 7.88704C12.4317 7.85483 12.4236 7.81861 12.4075 7.79043L12.1986 7.41205C12.2147 7.37984 12.2267 7.33959 12.2267 7.29934C12.2267 7.15845 12.1142 7.04574 11.9736 7.04574C11.8329 7.04574 11.7204 7.15845 11.7204 7.29934C11.7204 7.43217 11.8209 7.54086 11.9495 7.54891L12.1343 7.88301L11.6441 10.2902L9.02409 12.1298ZM12.6888 9.25163L14.477 12.3109C14.4609 12.3431 14.4529 12.3793 14.4529 12.4196C14.4529 12.5605 14.5654 12.6732 14.706 12.6732C14.8467 12.6732 14.9592 12.5605 14.9592 12.4196C14.9592 12.2867 14.8547 12.1781 14.7261 12.17L12.938 9.11074C12.954 9.07854 12.9621 9.04231 12.9621 9.00206C12.9621 8.86117 12.8496 8.74846 12.7089 8.74846C12.5683 8.74846 12.4558 8.86117 12.4558 9.00206C12.4558 9.1349 12.5602 9.24358 12.6888 9.25163ZM4.628 12.9066C4.628 12.7658 4.51549 12.653 4.37485 12.653C4.23421 12.653 4.12169 12.7658 4.12169 12.9066C4.12169 13.0033 4.17795 13.0878 4.2543 13.128L4.48334 15.2293C4.48736 15.2655 4.50344 15.2977 4.53156 15.3219L7.70607 18.0873C7.73018 18.1114 7.76634 18.1235 7.79849 18.1235H10.535C10.5792 18.1919 10.6555 18.2362 10.7439 18.2362C10.8846 18.2362 10.9971 18.1235 10.9971 17.9826C10.9971 17.8417 10.8846 17.729 10.7439 17.729C10.6555 17.729 10.5792 17.7733 10.535 17.8417H7.85073L4.75659 15.1447L4.53558 13.0958C4.59586 13.0516 4.628 12.9831 4.628 12.9066ZM7.73419 16.9682C7.73419 17.1091 7.84671 17.2218 7.98735 17.2218C8.12799 17.2218 8.24051 17.1091 8.24051 16.9682C8.24051 16.8716 8.18425 16.7871 8.1079 16.7468L7.75027 13.4501C7.74223 13.3736 7.67392 13.3172 7.59355 13.3253C7.5172 13.3333 7.46095 13.4018 7.46898 13.4823L7.82662 16.779C7.76634 16.8233 7.73419 16.8917 7.73419 16.9682ZM5.72903 15.0723C5.58839 15.0723 5.47588 15.185 5.47588 15.3259C5.47588 15.4668 5.58839 15.5795 5.72903 15.5795C5.84155 15.5795 5.93397 15.507 5.96612 15.4064L6.75773 15.1729C6.82203 15.1528 6.86623 15.0884 6.85819 15.024L6.68942 13.4501C6.68138 13.3736 6.61307 13.3172 6.53271 13.3253C6.45636 13.3333 6.4001 13.4018 6.40814 13.4823L6.56485 14.9394L5.88575 15.1367C5.84958 15.0964 5.79333 15.0723 5.72903 15.0723ZM7.43684 19.7739C7.29619 19.7739 7.18368 19.8866 7.18368 20.0275C7.18368 20.116 7.22788 20.1925 7.29619 20.2368V23.5215L6.99884 25.4295L6.39206 25.9447H6.10676V25.5181C6.10676 25.4416 6.04247 25.3772 5.96612 25.3772C5.88977 25.3772 5.82547 25.4416 5.82547 25.5181V25.9447H5.45579V25.5181C5.45579 25.4416 5.39149 25.3772 5.31514 25.3772C5.2388 25.3772 5.1745 25.4416 5.1745 25.5181V25.9447H4.81285V25.5181C4.81285 25.4416 4.74856 25.3772 4.67221 25.3772C4.59586 25.3772 4.53156 25.4416 4.53156 25.5181V25.9447H4.17795V25.357L6.03041 23.8073C6.05854 23.8194 6.09069 23.8274 6.12685 23.8274C6.26749 23.8274 6.38001 23.7147 6.38001 23.5738C6.38001 23.4329 6.26749 23.3202 6.12685 23.3202C5.99023 23.3202 5.87771 23.4289 5.87771 23.5698L3.9489 25.1839C3.91676 25.2121 3.89666 25.2484 3.89666 25.2926V26.0856C3.89666 26.1621 3.96096 26.2265 4.03731 26.2265H6.44028C6.47243 26.2265 6.50458 26.2144 6.53271 26.1943L7.21984 25.6147C7.24395 25.5945 7.26405 25.5623 7.26807 25.5301L7.57748 23.5617C7.57748 23.5537 7.57748 23.5456 7.57748 23.5416V20.2449C7.64579 20.2006 7.68999 20.1241 7.68999 20.0355C7.68999 19.8866 7.57748 19.7739 7.43684 19.7739ZM20.1991 23.598C20.1429 23.6422 20.1067 23.7147 20.1067 23.7912C20.1067 23.9321 20.2192 24.0448 20.3599 24.0448C20.5005 24.0448 20.613 23.9321 20.613 23.7912C20.613 23.6946 20.5608 23.6141 20.4804 23.5698L20.396 22.6802C20.396 22.6681 20.392 22.656 20.388 22.644L19.4598 20.108C19.4517 20.0838 19.4356 20.0597 19.4115 20.0436L17.5912 18.6709L16.659 17.089C16.675 17.0568 16.6831 17.0205 16.6831 16.9803C16.6831 16.8394 16.5706 16.7267 16.4299 16.7267C16.2893 16.7267 16.1768 16.8394 16.1768 16.9803C16.1768 17.1131 16.2812 17.2218 16.4138 17.2299L17.3622 18.836C17.3702 18.8521 17.3823 18.8642 17.3983 18.8762L19.2106 20.2408L20.1188 22.7204L20.1991 23.598ZM17.6636 12.17C17.5229 12.17 17.4104 12.2827 17.4104 12.4236C17.4104 12.5645 17.5229 12.6772 17.6636 12.6772C17.6676 12.6772 17.6756 12.6772 17.6796 12.6772L20.0545 15.7445V18.7998C19.9862 18.844 19.942 18.9205 19.942 19.0091C19.942 19.15 20.0545 19.2627 20.1951 19.2627C20.3358 19.2627 20.4483 19.15 20.4483 19.0091C20.4483 18.9205 20.4041 18.844 20.3358 18.7998V15.6882C20.3358 15.656 20.3237 15.6278 20.3076 15.6036L17.9047 12.5001C17.9127 12.4759 17.9167 12.4478 17.9167 12.4196C17.9127 12.2827 17.8002 12.17 17.6636 12.17ZM17.109 16.4812L17.9328 17.8779C17.9167 17.9102 17.9087 17.9464 17.9087 17.9866C17.9087 18.1275 18.0212 18.2402 18.1618 18.2402C18.3025 18.2402 18.415 18.1275 18.415 17.9866C18.415 17.8538 18.3105 17.7451 18.1779 17.7371L17.3782 16.3845L17.7962 14.5047C17.8886 14.4685 17.9569 14.3759 17.9569 14.2712C17.9569 14.1303 17.8444 14.0176 17.7037 14.0176C17.5631 14.0176 17.4506 14.1303 17.4506 14.2712C17.4506 14.3397 17.4787 14.4 17.5189 14.4443L17.0889 16.3805C17.0849 16.4127 17.0889 16.4489 17.109 16.4812ZM16.9764 25.8039L16.4179 23.0545L17.1211 20.5749C17.1291 20.5468 17.1291 20.5186 17.1211 20.4944L16.2933 17.882C16.3254 17.8377 16.3455 17.7854 16.3455 17.725C16.3455 17.5841 16.233 17.4714 16.0924 17.4714C15.9517 17.4714 15.8392 17.5841 15.8392 17.725C15.8392 17.8377 15.9156 17.9343 16.02 17.9665L16.8358 20.5387L16.2933 22.4507L15.4213 18.1758L15.345 17.3144L16.3094 16.2356C16.3254 16.2195 16.3375 16.1954 16.3415 16.1712L16.884 13.7439C16.892 13.7157 16.888 13.6876 16.876 13.6594L16.3496 12.3995C16.3737 12.3592 16.3897 12.3109 16.3897 12.2626C16.3897 12.1217 16.2772 12.009 16.1366 12.009C15.9959 12.009 15.8834 12.1217 15.8834 12.2626C15.8834 12.3833 15.9718 12.488 16.0843 12.5081L16.5947 13.7278L16.0723 16.0746L15.3088 16.928L15.2927 16.7388C15.2927 16.7347 15.2927 16.7347 15.2927 16.7307L14.9833 14.4484C14.9713 14.3719 14.9029 14.3155 14.8266 14.3276C14.7502 14.3397 14.694 14.4081 14.706 14.4846L15.0114 16.7629L15.136 18.2C15.136 18.204 15.136 18.212 15.14 18.2161L16.6991 25.8723C16.7032 25.8884 16.7072 25.9045 16.7192 25.9206L18.1176 28.1345V28.9074H17.6997V28.5008C17.6997 28.4244 17.6354 28.3599 17.5591 28.3599C17.4827 28.3599 17.4184 28.4244 17.4184 28.5008V28.9275H17.0487V28.5008C17.0487 28.4244 16.9844 28.3599 16.9081 28.3599C16.8318 28.3599 16.7675 28.4244 16.7675 28.5008V28.9275H16.4058V28.5008C16.4058 28.4244 16.3415 28.3599 16.2652 28.3599C16.1888 28.3599 16.1245 28.4244 16.1245 28.5008V28.9275H15.6021L15.4173 28.5813V27.2208C15.4173 27.2168 15.4173 27.2087 15.4173 27.2047L15.1561 24.8539C15.1561 24.8458 15.1521 24.8337 15.1521 24.8257L13.9104 20.9775C13.9064 20.9654 13.8984 20.9533 13.8943 20.9412L11.2945 17.1413L10.8524 13.0516C10.9047 13.0073 10.9368 12.9388 10.9368 12.8664C10.9368 12.7255 10.8243 12.6128 10.6837 12.6128C10.543 12.6128 10.4305 12.7255 10.4305 12.8664C10.4305 12.967 10.4868 13.0516 10.5712 13.0918L11.0172 17.2097C11.0212 17.2339 11.0292 17.254 11.0413 17.2741L13.6492 21.0861L14.8829 24.8982L14.9994 25.9407H14.69V25.514C14.69 25.4375 14.6257 25.3731 14.5493 25.3731C14.473 25.3731 14.4087 25.4375 14.4087 25.514V25.9407H14.039V25.514C14.039 25.4375 13.9747 25.3731 13.8984 25.3731C13.822 25.3731 13.7577 25.4375 13.7577 25.514V25.9407H13.3961V25.514C13.3961 25.4375 13.3318 25.3731 13.2554 25.3731C13.1791 25.3731 13.1148 25.4375 13.1148 25.514V25.9407H12.7853V25.353L14.0269 24.3064C14.047 24.3104 14.0671 24.3145 14.0872 24.3145C14.2279 24.3145 14.3404 24.2018 14.3404 24.0609C14.3404 23.92 14.2279 23.8073 14.0872 23.8073C13.9466 23.8073 13.8341 23.92 13.8341 24.0609C13.8341 24.073 13.8341 24.085 13.8381 24.0971L12.5562 25.1759C12.5241 25.2041 12.508 25.2403 12.508 25.2846V26.0776C12.508 26.1541 12.5723 26.2185 12.6486 26.2185H15.0355L15.1481 27.2208V28.6095C15.1481 28.6337 15.1521 28.6538 15.1641 28.6739L15.4052 29.1248C15.4293 29.169 15.4776 29.2012 15.5298 29.2012H18.2703C18.3467 29.2012 18.411 29.1368 18.411 29.0604V28.1064C18.411 28.0782 18.4029 28.054 18.3909 28.0299L16.9764 25.8039ZM22.7789 25.0229L21.911 22.6359L21.2801 19.79V15.2172C21.2801 15.185 21.268 15.1568 21.2519 15.1327L19.2669 12.5645L20.4885 11.0711L20.0424 12.6691C19.942 12.7014 19.8696 12.798 19.8696 12.9066C19.8696 13.0475 19.9821 13.1602 20.1228 13.1602C20.2634 13.1602 20.3759 13.0475 20.3759 12.9066C20.3759 12.8463 20.3518 12.7859 20.3157 12.7456L20.9385 10.5035C20.9546 10.4391 20.9265 10.3707 20.8662 10.3425C20.8059 10.3103 20.7336 10.3264 20.6934 10.3787L19.0901 12.3391L18.3788 11.4173C18.3627 11.3971 18.3427 11.381 18.3185 11.373L14.3886 9.85946C14.3645 9.74675 14.264 9.66624 14.1435 9.66624C14.0028 9.66624 13.8903 9.77895 13.8903 9.91984C13.8903 10.0607 14.0028 10.1734 14.1435 10.1734C14.1957 10.1734 14.2479 10.1573 14.2881 10.1292L18.1819 11.6306L21.0068 15.2776V19.8061C21.0068 19.8182 21.0068 19.8262 21.0108 19.8383L21.6457 22.7084C21.6457 22.7124 21.6498 22.7204 21.6498 22.7245L22.5137 25.0994V25.6791L22.3369 25.9407H21.7783V25.514C21.7783 25.4375 21.7141 25.3731 21.6377 25.3731C21.5614 25.3731 21.4971 25.4375 21.4971 25.514V25.9407H21.1274V25.514C21.1274 25.4375 21.0631 25.3731 20.9867 25.3731C20.9104 25.3731 20.8461 25.4375 20.8461 25.514V25.9407H20.4844V25.514C20.4844 25.4375 20.4201 25.3731 20.3438 25.3731C20.2674 25.3731 20.2032 25.4375 20.2032 25.514V25.9407H19.8536V25.353L20.6854 24.6526C20.7095 24.6607 20.7296 24.6647 20.7577 24.6647C20.8983 24.6647 21.0108 24.552 21.0108 24.4111C21.0108 24.2702 20.8983 24.1575 20.7577 24.1575C20.617 24.1575 20.5045 24.2702 20.5045 24.4111C20.5045 24.4191 20.5045 24.4272 20.5045 24.4352L19.6205 25.1799C19.5883 25.2081 19.5723 25.2443 19.5723 25.2886V26.0816C19.5723 26.1581 19.6366 26.2225 19.7129 26.2225H22.4132C22.4615 26.2225 22.5017 26.1983 22.5298 26.1621L22.7749 25.7998C22.791 25.7757 22.799 25.7475 22.799 25.7193V25.0712C22.787 25.0551 22.7829 25.039 22.7789 25.0229ZM5.31514 2.11872C5.36738 2.11872 5.4156 2.10261 5.45579 2.07444L5.92593 2.2596L4.89723 3.66847C4.88116 3.69263 4.86911 3.7208 4.86911 3.75301V4.72312L4.47531 5.72945C4.36279 5.7536 4.27841 5.85424 4.27841 5.975C4.27841 6.11588 4.39092 6.22859 4.53156 6.22859C4.67221 6.22859 4.78472 6.11588 4.78472 5.975C4.78472 5.92267 4.76865 5.87436 4.74052 5.83411L5.14235 4.80362C5.15039 4.78752 5.15039 4.77142 5.15039 4.75129V3.79729L6.23535 2.31596L7.52122 1.94965C7.56542 1.98588 7.62168 2.01003 7.68196 2.01003C7.8226 2.01003 7.93511 1.89732 7.93511 1.75643C7.93511 1.61555 7.8226 1.50284 7.68196 1.50284C7.56944 1.50284 7.47702 1.57529 7.44487 1.67593L6.159 2.04223L5.56026 1.81279C5.53615 1.70008 5.43569 1.61555 5.31514 1.61555C5.1745 1.61555 5.06199 1.72826 5.06199 1.86914C5.06199 2.01003 5.17852 2.11872 5.31514 2.11872ZM4.9334 6.48622H3.98105C3.94087 6.48622 3.90068 6.50634 3.87255 6.53855L3.39035 7.1182C3.35419 7.16248 3.34615 7.22688 3.37428 7.27518L3.71986 7.91119C3.74397 7.95547 3.79219 7.98365 3.84443 7.98365H5.06199C5.11423 7.98365 5.16245 7.95547 5.18656 7.91119L5.53214 7.27518C5.56026 7.22286 5.55223 7.16248 5.51606 7.1182L5.03386 6.53855C5.01377 6.50232 4.97358 6.48622 4.9334 6.48622ZM4.98162 7.69785H3.92881L3.66762 7.21883L4.04534 6.76397H4.86509L5.24281 7.21883L4.98162 7.69785ZM11.8731 19.4036C11.7847 19.4036 11.7083 19.4478 11.6641 19.5163H8.22443L3.67565 15.5593L3.39035 12.9268L4.14178 11.7031C4.27439 11.695 4.38288 11.5863 4.38288 11.4535C4.38288 11.3126 4.27037 11.1999 4.12973 11.1999C3.98909 11.1999 3.87657 11.3126 3.87657 11.4535C3.87657 11.4897 3.88461 11.526 3.90068 11.5582L3.12514 12.8221C3.10907 12.8503 3.10103 12.8785 3.10505 12.9107L3.40241 15.6439C3.40642 15.6801 3.4225 15.7123 3.45063 15.7365L4.70837 16.8273V17.9142C4.70837 17.9263 4.71239 17.9424 4.71641 17.9544L5.57232 20.7842V22.7526C5.50401 22.7969 5.45981 22.8734 5.45981 22.962C5.45981 23.1028 5.57232 23.2156 5.71296 23.2156C5.8536 23.2156 5.96612 23.1028 5.96612 22.962C5.96612 22.8734 5.92192 22.7969 5.8536 22.7526V20.7641C5.8536 20.752 5.84958 20.7359 5.84557 20.7239L4.98966 17.894V17.0689L8.08379 19.7578C8.1079 19.7819 8.14407 19.794 8.17621 19.794H11.6682C11.7124 19.8624 11.7887 19.9067 11.8771 19.9067C12.0178 19.9067 12.1303 19.794 12.1303 19.6531C12.1263 19.5163 12.0137 19.4036 11.8731 19.4036ZM3.63145 2.25155C3.77209 2.25155 3.88461 2.13884 3.88461 1.99796C3.88461 1.9577 3.87657 1.92147 3.85648 1.88525L4.54764 0.673617V1.79266C4.47933 1.83694 4.43512 1.91342 4.43512 2.00198C4.43512 2.14287 4.54764 2.25558 4.68828 2.25558C4.82892 2.25558 4.94144 2.14287 4.94144 2.00198C4.94144 1.91342 4.89723 1.83694 4.82892 1.79266V0.142271C4.82892 0.0778653 4.78472 0.0215104 4.72445 0.00540906C4.66417 -0.0106923 4.59586 0.0174851 4.56773 0.0738399L3.61538 1.75241C3.48679 1.76046 3.38231 1.86914 3.38231 2.00198C3.3783 2.13884 3.49081 2.25155 3.63145 2.25155ZM4.37887 11.051C4.40298 11.0671 4.42709 11.0751 4.45522 11.0751C4.47933 11.0751 4.50344 11.0671 4.52755 11.055L5.63259 10.3948H6.8823C6.91043 10.3948 6.93856 10.3868 6.96267 10.3707L8.85532 9.06646C8.88344 9.04634 8.90755 9.01413 8.91157 8.97791L9.16875 7.7542C9.26117 7.71797 9.32546 7.62539 9.32546 7.52073C9.32546 7.37984 9.21295 7.26713 9.07231 7.26713C8.93166 7.26713 8.81915 7.37984 8.81915 7.52073C8.81915 7.58916 8.84728 7.64954 8.88746 7.69382L8.64234 8.8652L8.09183 9.24358L7.58552 7.71797C7.5815 7.70187 7.57346 7.68577 7.5614 7.67369L6.02639 5.75763C6.03443 5.73348 6.03845 5.7053 6.03845 5.67712C6.03845 5.53624 5.92593 5.42353 5.78529 5.42353C5.64465 5.42353 5.53214 5.53624 5.53214 5.67712C5.53214 5.81801 5.64465 5.93072 5.78529 5.93072C5.78931 5.93072 5.79333 5.93072 5.79735 5.93072L7.3203 7.83471L7.84671 9.41264L7.15153 9.89166L6.60102 8.22919C6.597 8.21309 6.58896 8.19699 6.57691 8.18491L6.31973 7.86289C6.32777 7.83873 6.33179 7.81458 6.33179 7.79043C6.33179 7.64954 6.21927 7.53683 6.07863 7.53683C5.93799 7.53683 5.82547 7.64954 5.82547 7.79043C5.82547 7.93132 5.93799 8.04403 6.07863 8.04403C6.08667 8.04403 6.09471 8.04403 6.09872 8.04403L6.33982 8.34593L6.91043 10.0607L6.82203 10.1211H5.6567L4.57577 8.33385C4.54764 8.28957 4.49942 8.26542 4.4512 8.26542C4.39896 8.26945 4.35476 8.29762 4.33065 8.3419L3.45063 10.1171C3.43455 10.1131 3.41848 10.109 3.40241 10.109H2.73134L2.37773 9.07854L3.12514 8.03598C3.12916 8.03598 3.12916 8.03598 3.13318 8.03598C3.27382 8.03598 3.38633 7.92327 3.38633 7.78238C3.38633 7.64149 3.27382 7.52878 3.13318 7.52878C2.99253 7.52878 2.88002 7.64149 2.88002 7.78238C2.88002 7.81458 2.88404 7.84276 2.89609 7.87094L2.27325 8.73639V7.87094C2.28128 7.86289 2.28932 7.85483 2.29736 7.84678L3.83639 5.92267C3.84041 5.92267 3.84844 5.92267 3.85246 5.92267C3.9931 5.92267 4.10562 5.80996 4.10562 5.66907C4.10562 5.52818 3.9931 5.41547 3.85246 5.41547C3.71182 5.41547 3.59931 5.52818 3.59931 5.66907C3.59931 5.69725 3.60332 5.7214 3.61136 5.74555L2.26923 7.42412V6.64321L3.02066 5.69725C3.05683 5.65297 3.06085 5.59259 3.03272 5.54026L2.64294 4.83985L2.99253 4.71506C2.98852 4.73117 2.98852 4.74727 2.98852 4.76337C2.98852 4.90426 3.10103 5.01697 3.24167 5.01697C3.38231 5.01697 3.49483 4.90426 3.49483 4.76337C3.49483 4.75532 3.49483 4.75129 3.49483 4.74324L3.65958 4.92438C3.68771 4.95659 3.72387 4.97269 3.76406 4.97269C3.79621 4.97269 3.83237 4.96061 3.85648 4.93646C3.91274 4.88413 3.91676 4.79557 3.86854 4.73922L3.50286 4.33668C3.4667 4.29643 3.40642 4.28033 3.35017 4.29643L2.6791 4.5299L3.25775 3.00027L3.97703 2.71849C4.01721 2.74667 4.06543 2.76277 4.11767 2.76277C4.25832 2.76277 4.37083 2.65006 4.37083 2.50917C4.37083 2.36829 4.25832 2.25558 4.11767 2.25558C3.99712 2.25558 3.89666 2.34011 3.87255 2.45282L3.10103 2.76277C3.06486 2.77887 3.03674 2.80705 3.02066 2.84328L2.31343 4.71506C2.31343 4.71506 2.31343 4.71909 2.31343 4.72312C2.31343 4.72714 2.30941 4.73519 2.30941 4.73922C2.30941 4.74324 2.30941 4.74727 2.30941 4.75129C2.30941 4.75532 2.30941 4.76337 2.30941 4.76739C2.30941 4.77142 2.30941 4.77544 2.30941 4.77947C2.30941 4.7835 2.30941 4.79155 2.31343 4.79557C2.31343 4.7996 2.31343 4.80362 2.31745 4.80765V4.81167C2.31745 4.8157 2.32147 4.81972 2.32549 4.82375C2.32549 4.82777 2.32951 4.82777 2.32951 4.8318L2.75545 5.59662L2.03215 6.50634C2.01205 6.5305 2 6.5627 2 6.5949V8.80884C2 8.82494 2.00402 8.84104 2.00804 8.85312L2.50631 10.2942C2.5264 10.3505 2.57864 10.3908 2.63892 10.3908H3.36624L4.37887 11.051ZM4.46727 8.70016L5.39953 10.2056L4.45923 10.7692L3.68771 10.2741L4.46727 8.70016Z" fill="#4B689B"/>
</svg>
