<svg width="70" height="76" viewBox="0 0 70 76" fill="none" xmlns="http://www.w3.org/2000/svg">
<path d="M9.48076 70.7238L12.1424 63.6028H10.5503L8.68466 69.0724L6.77082 63.6028H5.36358L3.40953 69.0644L1.59219 63.6028H0L2.61344 70.7238H4.11717L6.06318 65.4234L7.96898 70.7238H9.48076Z" fill="#4B689B"/>
<path d="M17.1603 69.0643L18.0529 70.7237H19.6451L15.745 63.6028H14.2895L10.3895 70.7237H11.9817L12.8662 69.0643H17.1603ZM15.0213 64.9964L16.6376 67.9446H13.413L15.0213 64.9964Z" fill="#4B689B"/>
<path d="M21.3016 70.7237H22.7008V65.0044H25.2901V63.6028H18.7042V65.0044H21.3016V70.7237Z" fill="#4B689B"/>
<path d="M33.5566 70.345C33.6933 70.2403 33.8059 70.1275 33.8863 70.0067C33.9667 69.8858 34.0311 69.7811 34.0713 69.6845L33.1787 68.7823C33.1144 68.9192 33.0179 69.0481 32.8892 69.1609C32.7605 69.2736 32.5515 69.33 32.2781 69.33H28.3378C28.1609 69.33 28.0161 69.3139 27.9036 69.2736C27.791 69.2333 27.7106 69.177 27.6543 69.1045C27.598 69.032 27.5578 68.9353 27.5337 68.8225C27.5095 68.7098 27.5015 68.5809 27.5015 68.4278V65.9146C27.5015 65.5762 27.5658 65.3426 27.6864 65.2137C27.8071 65.0848 28.0242 65.0204 28.3378 65.0204H32.2218C32.4871 65.0204 32.6962 65.0768 32.8329 65.1896C32.9696 65.3023 33.0742 65.4312 33.1304 65.5682L34.023 64.6579C33.9828 64.5613 33.9185 64.4565 33.8381 64.3357C33.7577 64.2149 33.6451 64.1021 33.5084 63.9974C33.3717 63.8927 33.2028 63.804 33.0098 63.7315C32.8168 63.6591 32.5836 63.6268 32.3263 63.6268H28.3378C27.9116 63.6268 27.5578 63.6671 27.2763 63.7315C26.9949 63.804 26.7697 63.9329 26.6009 64.1102C26.432 64.2874 26.3114 64.529 26.239 64.8271C26.1666 65.1251 26.1345 65.4957 26.1345 65.9387V68.4439C26.1345 68.887 26.1747 69.2575 26.239 69.5556C26.3114 69.8536 26.432 70.0872 26.6009 70.2644C26.7697 70.4417 26.9949 70.5705 27.2763 70.643C27.5578 70.7155 27.9116 70.7558 28.3378 70.7558H32.3665C32.6319 70.7558 32.857 70.7155 33.05 70.6511C33.2511 70.5383 33.4199 70.4497 33.5566 70.345Z" fill="#4B689B"/>
<path d="M42.1206 70.7237V63.6028H40.7456V66.4946H36.5078V63.6028H35.1327V70.7237H36.5078V67.7835H40.7456V70.7237H42.1206Z" fill="#4B689B"/>
<path d="M51.4647 69.5075C51.5371 69.2094 51.5692 68.8469 51.5692 68.4119V65.9067C51.5692 65.4717 51.529 65.1093 51.4647 64.8112C51.3923 64.5212 51.2717 64.2796 51.1028 64.0943C50.934 63.909 50.7088 63.7801 50.4193 63.7076C50.1298 63.6351 49.776 63.5948 49.3418 63.5948H43.359V70.7158H49.3418C49.776 70.7158 50.1379 70.6755 50.4193 70.603C50.7088 70.5305 50.934 70.4016 51.1028 70.2163C51.2717 70.0472 51.3923 69.8055 51.4647 69.5075ZM50.1781 68.42C50.1781 68.7744 50.1137 69.008 50.0012 69.1369C49.8805 69.2578 49.6634 69.3222 49.3418 69.3222H44.7662V65.0045H49.3418C49.6554 65.0045 49.8725 65.069 49.9931 65.1979C50.1137 65.3267 50.1781 65.5684 50.1781 65.9148V68.42V68.42Z" fill="#4B689B"/>
<path d="M60.4951 70.2244C60.664 70.0472 60.7927 69.8055 60.865 69.5075C60.9374 69.2094 60.9696 68.8469 60.9696 68.4119V65.9067C60.9696 65.4717 60.9374 65.1093 60.865 64.8112C60.7927 64.5132 60.672 64.2796 60.4951 64.0943C60.3263 63.9171 60.0931 63.7882 59.8116 63.7076C59.5221 63.6351 59.1764 63.5948 58.7502 63.5948H54.9949C54.5606 63.5948 54.1988 63.6351 53.9173 63.7076C53.6359 63.7801 53.4107 63.909 53.2338 64.0943C53.0649 64.2715 52.9443 64.5132 52.8719 64.8112C52.7996 65.1093 52.7674 65.4717 52.7674 65.9067V68.4119C52.7674 68.8469 52.7996 69.2094 52.8719 69.5075C52.9443 69.8055 53.0649 70.0391 53.2338 70.2244C53.4027 70.4016 53.6359 70.5305 53.9173 70.6111C54.1988 70.6836 54.5606 70.7238 54.9949 70.7238H58.7502C59.1683 70.7238 59.5221 70.6836 59.8116 70.6111C60.0931 70.5305 60.3182 70.4016 60.4951 70.2244ZM59.5704 68.42C59.5704 68.7744 59.5061 69.008 59.3854 69.1369C59.2648 69.2578 59.0477 69.3222 58.726 69.3222H54.9868C54.826 69.3222 54.6973 69.3061 54.5928 69.2819C54.4882 69.2578 54.3998 69.2094 54.3355 69.1369C54.2711 69.0644 54.2229 68.9758 54.1988 68.863C54.1746 68.7503 54.1585 68.6053 54.1585 68.42V65.9148C54.1585 65.5604 54.2229 65.3267 54.3435 65.1979C54.4641 65.069 54.6812 65.0045 54.9949 65.0045H58.7341C59.0477 65.0045 59.2648 65.069 59.3854 65.1979C59.5061 65.3267 59.5704 65.5684 59.5704 65.9148V68.42V68.42Z" fill="#4B689B"/>
<path d="M66.0196 67.7432H68.6894V68.6535C68.6894 68.871 68.617 69.0401 68.4642 69.1529C68.3114 69.2657 68.038 69.3221 67.644 69.3221H64.4114C64.2425 69.3221 64.1138 69.314 64.0012 69.2899C63.8967 69.2657 63.8083 69.2174 63.7439 69.1368C63.6796 69.0563 63.6313 68.9435 63.6072 68.7985C63.5831 68.6535 63.567 68.4602 63.567 68.2104V65.9147C63.567 65.5602 63.6233 65.3266 63.7439 65.1977C63.8645 65.0769 64.0817 65.0125 64.4033 65.0125H68.231C68.5044 65.0125 68.7135 65.0689 68.8421 65.1816C68.9708 65.2944 69.0753 65.4233 69.1397 65.5602L70.0001 64.65C70.0001 64.65 69.5337 63.6028 68.4964 63.6028H64.3953C63.953 63.6028 63.5911 63.6431 63.3016 63.7236C63.0122 63.8042 62.787 63.933 62.6262 64.1183C62.4573 64.3036 62.3447 64.5372 62.2804 64.8352C62.2161 65.1252 62.1839 65.4877 62.1839 65.9147V68.4199C62.1839 68.871 62.2161 69.2415 62.2804 69.5315C62.3447 69.8215 62.4653 70.0632 62.6262 70.2404C62.795 70.4176 63.0202 70.5465 63.3016 70.619C63.5911 70.6915 63.953 70.7237 64.3953 70.7237C64.3953 70.7237 66.9685 70.7237 67.6359 70.7237C68.4803 70.7237 68.6813 70.337 68.6813 70.337V70.7237H69.9921V66.5833H66.0196V67.7432Z" fill="#4B689B"/>
<path d="M9.23951 72.9874L7.60712 75.9759H8.38713L8.74899 75.3073H10.4055L10.7674 75.9759H11.5474L9.91499 72.9874H9.23951ZM9.0224 74.7434L9.56921 73.7365L10.116 74.7354H9.0224V74.7434Z" fill="#4B689B"/>
<path d="M12.8099 72.9874H12.1263V75.984H14.9649V75.2912H12.8099V72.9874Z" fill="#4B689B"/>
<path d="M19.0339 72.9874L18.3263 75.0737L17.5945 72.9874H16.9431L16.2033 75.0656L15.5118 72.9874H14.7398L15.8415 75.984H16.525L17.2728 73.9621L17.9966 75.984H18.6881L19.8059 72.9874H19.0339Z" fill="#4B689B"/>
<path d="M21.004 72.9874L19.3716 75.9759H20.1516L20.5135 75.3073H22.17L22.5318 75.9759H23.3118L21.6795 72.9874H21.004ZM20.7869 74.7434L21.3337 73.7446L21.8805 74.7434H20.7869Z" fill="#4B689B"/>
<path d="M24.695 74.2923L23.722 72.9874H22.9259L24.3331 74.8884V75.984H25.0167V74.8884L26.4561 72.9874H25.6519L24.695 74.2923Z" fill="#4B689B"/>
<path d="M29.737 74.389C29.6566 74.3246 29.544 74.2762 29.4154 74.244C29.2867 74.2118 29.1339 74.1957 28.949 74.1957H27.8071C27.6543 74.1957 27.59 74.1634 27.5659 74.1393C27.5256 74.099 27.5096 74.0346 27.5096 73.9379C27.5096 73.8412 27.5256 73.7768 27.5659 73.7365C27.59 73.7123 27.6543 73.6801 27.8071 73.6801H29.7933L29.8014 73.6318C29.8174 73.5351 29.8255 73.4385 29.8416 73.3418C29.8496 73.2451 29.8657 73.1565 29.8737 73.0599L29.8818 72.9954H27.8071C27.6302 72.9954 27.4774 73.0115 27.3568 73.0438C27.2281 73.076 27.1236 73.1324 27.0432 73.1968C26.9628 73.2693 26.9065 73.3579 26.8743 73.4787C26.8421 73.5835 26.826 73.7123 26.826 73.8654V73.9621C26.826 74.099 26.8421 74.2198 26.8743 74.3246C26.9065 74.4293 26.9628 74.5259 27.0432 74.5904C27.1236 74.6629 27.2201 74.7112 27.3487 74.7434C27.4694 74.7757 27.6221 74.7918 27.791 74.7918H28.949C29.1098 74.7918 29.1822 74.824 29.2063 74.8482C29.2465 74.8804 29.2626 74.9529 29.2626 75.0495C29.2626 75.1059 29.2545 75.1462 29.2465 75.1865C29.2385 75.2187 29.2224 75.2429 29.2063 75.259C29.1822 75.2751 29.158 75.2912 29.1098 75.2993C29.0615 75.3073 29.0053 75.3154 28.9329 75.3154H26.9386V75.3717C26.9306 75.4684 26.9306 75.557 26.9225 75.6537C26.9145 75.7504 26.9065 75.839 26.9065 75.9356V76.0001H28.9892C29.1661 76.0001 29.3108 75.984 29.4395 75.9517C29.5682 75.9195 29.6727 75.8712 29.7531 75.7987C29.8335 75.7262 29.8978 75.6295 29.93 75.5167C29.9622 75.404 29.9863 75.267 29.9863 75.114V75.0173C29.9863 74.8884 29.9702 74.7676 29.93 74.6709C29.8818 74.542 29.8174 74.4534 29.737 74.389Z" fill="#4B689B"/>
<path d="M34.0149 74.7838H35.0924V75.0899C35.0924 75.1624 35.0683 75.2107 35.0281 75.2429C34.9959 75.2671 34.9155 75.2993 34.7386 75.2993H33.4359C33.3716 75.2993 33.3233 75.2913 33.2831 75.2832C33.251 75.2751 33.2269 75.259 33.2108 75.2429C33.1947 75.2188 33.1786 75.1865 33.1706 75.1382C33.1625 75.0818 33.1545 75.0093 33.1545 74.9126V73.9782C33.1545 73.8252 33.1866 73.7607 33.2108 73.7285C33.2349 73.7044 33.2912 73.6721 33.4359 73.6721H34.8432C34.9397 73.6721 35.004 73.6882 35.0522 73.7285C35.1005 73.7688 35.1327 73.8171 35.1568 73.8655L35.197 73.938L35.6393 73.4788L35.6232 73.4385C35.6071 73.3982 35.5749 73.3499 35.5428 73.2935C35.5026 73.2371 35.4543 73.1888 35.398 73.1405C35.3417 73.0921 35.2694 73.0519 35.1809 73.0196C35.1005 72.9874 34.9959 72.9713 34.8834 72.9713H33.4279C33.2429 72.9713 33.0901 72.9874 32.9695 73.0196C32.8409 73.0519 32.7444 73.1163 32.672 73.1969C32.5996 73.2774 32.5433 73.3821 32.5192 73.511C32.4951 73.6319 32.479 73.7849 32.479 73.9621V74.969C32.479 75.1543 32.4951 75.3074 32.5192 75.4282C32.5514 75.5571 32.5996 75.6618 32.672 75.7424C32.7444 75.8229 32.8489 75.8793 32.9776 75.9115C33.0982 75.9437 33.251 75.9598 33.4279 75.9598H34.6421C34.7306 75.9598 34.811 75.9518 34.8753 75.9276C34.9477 75.9035 35.004 75.8712 35.0603 75.839C35.0924 75.8148 35.1166 75.7907 35.1407 75.7665L35.1487 75.9598H35.7438V74.1716H34.0149V74.7838Z" fill="#4B689B"/>
<path d="M39.7645 73.2129C39.6841 73.1324 39.5876 73.076 39.4589 73.0438C39.3383 73.0115 39.1936 72.9954 39.0167 72.9954H37.5049C37.328 72.9954 37.1752 73.0115 37.0546 73.0438C36.934 73.076 36.8294 73.1324 36.749 73.2129C36.6686 73.2935 36.6203 73.3982 36.5882 73.5271C36.556 73.6479 36.548 73.801 36.548 73.9862V74.9931C36.548 75.1704 36.5641 75.3234 36.5882 75.4523C36.6203 75.5812 36.6686 75.6859 36.749 75.7665C36.8294 75.847 36.9259 75.9034 37.0546 75.9356C37.1752 75.9678 37.3199 75.984 37.5049 75.984H39.0167C39.1936 75.984 39.3383 75.9678 39.4589 75.9356C39.5876 75.9034 39.6841 75.847 39.7645 75.7665C39.8449 75.6859 39.8932 75.5812 39.9253 75.4523C39.9575 75.3315 39.9736 75.1784 39.9736 74.9931V73.9782C39.9736 73.801 39.9575 73.6479 39.9253 73.519C39.9012 73.3982 39.8449 73.2935 39.7645 73.2129ZM39.2901 74.9931C39.2901 75.1462 39.2579 75.2106 39.2338 75.2348C39.2016 75.2751 39.1212 75.2912 39.0167 75.2912H37.5129C37.4566 75.2912 37.4084 75.2831 37.3682 75.2751C37.336 75.267 37.3119 75.2509 37.2958 75.2348C37.2797 75.2187 37.2637 75.1865 37.2556 75.1543C37.2476 75.114 37.2395 75.0576 37.2395 74.9931V73.9862C37.2395 73.8332 37.2717 73.7687 37.2958 73.7365C37.336 73.6962 37.4084 73.6801 37.5129 73.6801H39.0167C39.1212 73.6801 39.2016 73.7043 39.2338 73.7365C39.2579 73.7607 39.2901 73.8251 39.2901 73.9862V74.9931Z" fill="#4B689B"/>
<path d="M44.0184 73.2129C43.938 73.1324 43.8414 73.076 43.7128 73.0438C43.5922 73.0115 43.4474 72.9954 43.2705 72.9954H41.7587C41.5818 72.9954 41.429 73.0115 41.3084 73.0438C41.1878 73.076 41.0833 73.1324 41.0029 73.2129C40.9224 73.2935 40.8742 73.3982 40.842 73.5271C40.8099 73.6479 40.8018 73.801 40.8018 73.9862V74.9931C40.8018 75.1704 40.8179 75.3234 40.842 75.4523C40.8742 75.5812 40.9224 75.6859 41.0029 75.7665C41.0833 75.847 41.1798 75.9034 41.3084 75.9356C41.429 75.9678 41.5738 75.984 41.7587 75.984H43.2705C43.4474 75.984 43.5922 75.9678 43.7128 75.9356C43.8414 75.9034 43.938 75.847 44.0184 75.7665C44.0988 75.6859 44.147 75.5812 44.1792 75.4523C44.2114 75.3315 44.2274 75.1784 44.2274 74.9931V73.9782C44.2274 73.801 44.2114 73.6479 44.1792 73.519C44.147 73.3982 44.0907 73.2935 44.0184 73.2129ZM43.5439 74.9931C43.5439 75.1462 43.5118 75.2106 43.4876 75.2348C43.4555 75.2751 43.3751 75.2912 43.2705 75.2912H41.7668C41.7105 75.2912 41.6622 75.2831 41.622 75.2751C41.5899 75.267 41.5657 75.2509 41.5497 75.2348C41.5336 75.2187 41.5175 75.1865 41.5095 75.1543C41.5014 75.114 41.4934 75.0576 41.4934 74.9931V73.9862C41.4934 73.8332 41.5255 73.7687 41.5497 73.7365C41.5899 73.6962 41.6622 73.6801 41.7668 73.6801H43.2625C43.367 73.6801 43.4474 73.7043 43.4796 73.7365C43.5037 73.7607 43.5359 73.8251 43.5359 73.9862V74.9931H43.5439Z" fill="#4B689B"/>
<path d="M48.2803 73.2129C48.2079 73.1324 48.1034 73.076 47.9747 73.0357C47.8541 73.0035 47.7013 72.9874 47.5244 72.9874H45.0557V75.9759H47.5244C47.7013 75.9759 47.8541 75.9598 47.9747 75.9276C48.1034 75.8953 48.1999 75.839 48.2803 75.7584C48.3527 75.6778 48.409 75.5731 48.4411 75.4442C48.4733 75.3234 48.4894 75.1704 48.4894 74.9851V73.9782C48.4894 73.801 48.4733 73.6479 48.4411 73.5271C48.409 73.3982 48.3527 73.2935 48.2803 73.2129ZM47.7978 74.9931C47.7978 75.1462 47.7657 75.2106 47.7415 75.2348C47.7094 75.2751 47.629 75.2912 47.5244 75.2912H45.7392V73.6721H47.5244C47.629 73.6721 47.7094 73.6962 47.7415 73.7285C47.7657 73.7526 47.7978 73.8171 47.7978 73.9782V74.9931V74.9931Z" fill="#4B689B"/>
<path d="M54.0218 74.4293C54.1746 74.3407 54.2631 74.1876 54.2631 73.9621V73.7848C54.2631 73.6398 54.247 73.511 54.2229 73.4143C54.1907 73.3096 54.1425 73.221 54.0701 73.1646C53.9977 73.1001 53.9093 73.0599 53.7967 73.0357C53.6921 73.0115 53.5554 72.9954 53.4027 72.9954H51.0626V75.984H53.3946C53.5474 75.984 53.6841 75.9678 53.8047 75.9437C53.9253 75.9195 54.0218 75.8712 54.1023 75.8067C54.1827 75.7423 54.239 75.6537 54.2792 75.5409C54.3113 75.4362 54.3355 75.3073 54.3355 75.1543V74.969C54.3355 74.7837 54.2872 74.6387 54.1907 74.542C54.1344 74.4937 54.0862 74.4615 54.0218 74.4293ZM51.7381 73.6801H53.3946C53.4911 73.6801 53.5313 73.7043 53.5474 73.7204C53.5635 73.7365 53.5876 73.7768 53.5876 73.8654V73.9701C53.5876 74.0748 53.5635 74.1151 53.5474 74.1393C53.5233 74.1634 53.475 74.1796 53.4027 74.1796H51.7381V73.6801ZM53.6519 75.0898C53.6519 75.1704 53.6359 75.2268 53.6037 75.2509C53.5876 75.267 53.5313 75.2912 53.3946 75.2912H51.7381V74.7515H53.4187C53.5474 74.7515 53.5957 74.7837 53.6117 74.7998C53.6359 74.824 53.6519 74.8723 53.6519 74.9851V75.0898V75.0898Z" fill="#4B689B"/>
<path d="M58.3159 73.2129C58.2355 73.1324 58.139 73.076 58.0103 73.0438C57.8897 73.0115 57.745 72.9954 57.5681 72.9954H56.0563C55.8794 72.9954 55.7266 73.0115 55.606 73.0438C55.4853 73.076 55.3808 73.1324 55.3004 73.2129C55.22 73.2935 55.1717 73.3982 55.1396 73.5271C55.1074 73.6479 55.0994 73.801 55.0994 73.9862V74.9931C55.0994 75.1704 55.1154 75.3234 55.1396 75.4523C55.1717 75.5812 55.22 75.6859 55.3004 75.7665C55.3808 75.847 55.4773 75.9034 55.606 75.9356C55.7266 75.9678 55.8713 75.984 56.0563 75.984H57.5681C57.745 75.984 57.8897 75.9678 58.0103 75.9356C58.139 75.9034 58.2355 75.847 58.3159 75.7665C58.3963 75.6859 58.4446 75.5812 58.4767 75.4523C58.5089 75.3315 58.525 75.1784 58.525 74.9931V73.9782C58.525 73.801 58.5089 73.6479 58.4767 73.519C58.4446 73.3982 58.3963 73.2935 58.3159 73.2129ZM57.8415 74.9931C57.8415 75.1462 57.8093 75.2106 57.7852 75.2348C57.753 75.2751 57.6726 75.2912 57.5681 75.2912H56.0643C56.008 75.2912 55.9598 75.2831 55.9196 75.2751C55.8874 75.267 55.8633 75.2509 55.8472 75.2348C55.8311 75.2187 55.815 75.1865 55.807 75.1543C55.799 75.114 55.7909 75.0576 55.7909 74.9931V73.9862C55.7909 73.8332 55.8231 73.7687 55.8472 73.7365C55.8874 73.6962 55.9598 73.6801 56.0643 73.6801H57.5681C57.6726 73.6801 57.753 73.7043 57.7852 73.7365C57.8093 73.7607 57.8415 73.8251 57.8415 73.9862V74.9931V74.9931Z" fill="#4B689B"/>
<path d="M60.6641 74.2923L59.6991 72.9874H58.895L60.3102 74.8884V75.984H60.9857V74.8884L62.4332 72.9874H61.629L60.6641 74.2923Z" fill="#4B689B"/>
<path d="M27.9999 5.60929C27.9919 5.63345 27.9919 5.66568 27.9919 5.68984C27.9919 5.97178 28.217 6.19733 28.4985 6.19733C28.7799 6.19733 29.0051 5.97178 29.0051 5.68984C29.0051 5.40791 28.7799 5.18236 28.4985 5.18236C28.4583 5.18236 28.4261 5.19041 28.3939 5.19041L27.0591 3.87739V1.00163L29.97 4.14322L30.8626 7.80034C30.7822 7.88895 30.734 8.00978 30.734 8.13867C30.734 8.4206 30.9591 8.64615 31.2406 8.64615C31.522 8.64615 31.7472 8.4206 31.7472 8.13867C31.7472 7.92117 31.6105 7.7359 31.4175 7.6634L30.5088 3.93378C30.4927 3.88544 30.4686 3.83711 30.4364 3.80489L26.9706 0.0913778C26.8902 0.00276902 26.7696 -0.021397 26.665 0.0188797C26.5605 0.0591564 26.4881 0.163876 26.4881 0.284706V4.00628C26.4881 4.07877 26.5203 4.15127 26.5685 4.20766L27.9999 5.60929ZM29.9459 30.162C29.8172 30.162 29.7047 30.2103 29.6162 30.2828L28.0803 29.8639L27.7587 26.9076C27.7426 26.7546 27.6059 26.6418 27.445 26.6579C27.2923 26.674 27.1797 26.811 27.1958 26.9721L27.5335 30.1217C27.5496 30.2345 27.63 30.3311 27.7426 30.3634L29.4634 30.8306C29.5278 31.032 29.7207 31.1689 29.9379 31.1689C30.2193 31.1689 30.4445 30.9433 30.4445 30.6614C30.4525 30.3875 30.2273 30.162 29.9459 30.162ZM26.3997 20.4714C26.3434 20.4472 26.279 20.4392 26.2147 20.4392C25.9333 20.4392 25.7081 20.6647 25.7081 20.9467C25.7081 21.2286 25.9333 21.4541 26.2147 21.4541C26.4962 21.4541 26.7213 21.2286 26.7213 20.9467C26.7213 20.9467 26.7213 20.9467 26.7213 20.9386L30.1711 18.5623C30.2274 18.522 30.2756 18.4576 30.2836 18.3851L31.1521 14.2446C31.1601 14.2043 31.1601 14.156 31.1521 14.1157L29.6725 8.40449C29.7449 8.31588 29.7931 8.20311 29.7931 8.07422C29.7931 7.79229 29.568 7.56674 29.2865 7.56674C29.0051 7.56674 28.7799 7.79229 28.7799 8.07422C28.7799 8.29172 28.9247 8.48505 29.1176 8.54949L30.5812 14.1802L29.7529 18.1515L26.3997 20.4714ZM31.2325 9.81418C31.2325 10.0558 31.4014 10.2572 31.6265 10.3056L32.873 13.5116L31.7311 19.102L26.9706 22.3966H22.2262L21.8965 22.1066C21.8965 22.0825 21.9045 22.0583 21.9045 22.0422C21.9045 21.7603 21.6794 21.5347 21.3979 21.5347C21.1165 21.5347 20.8913 21.7603 20.8913 22.0422C20.8913 22.3241 21.1165 22.5497 21.3979 22.5497C21.4381 22.5497 21.4784 22.5416 21.5186 22.5336L21.9206 22.8961C21.9689 22.9444 22.0412 22.9686 22.1056 22.9686H27.043C27.0993 22.9686 27.1556 22.9524 27.2038 22.9202L32.1251 19.5128C32.1814 19.4725 32.2296 19.4081 32.2377 19.3356L33.4198 13.5519C33.4278 13.4955 33.4278 13.4471 33.4037 13.3908L32.1251 10.1042C32.1814 10.0236 32.2136 9.92695 32.2136 9.81418C32.2136 9.53224 31.9884 9.30669 31.707 9.30669C31.4255 9.30669 31.2325 9.5403 31.2325 9.81418ZM38.3491 39.2806C38.6306 39.2806 38.8557 39.0551 38.8557 38.7731C38.8557 38.5637 38.7271 38.3784 38.5421 38.3059L37.7621 34.7455C37.7541 34.6891 37.7219 34.6407 37.6817 34.6085L35.1969 32.1436L34.5456 26.1262C34.6501 26.0376 34.7144 25.9007 34.7144 25.7476C34.7144 25.4657 34.4893 25.2402 34.2078 25.2402C33.9264 25.2402 33.7012 25.4657 33.7012 25.7476C33.7012 25.949 33.8138 26.1182 33.9827 26.1987L34.6421 32.2966C34.6501 32.3611 34.6742 32.4175 34.7225 32.4658L37.2153 34.9388L37.9792 38.4187C37.8908 38.5073 37.8425 38.6281 37.8425 38.7651C37.8425 39.0551 38.0677 39.2806 38.3491 39.2806ZM24.1481 8.67837L23.4163 9.48391C23.3118 9.59668 23.3198 9.7739 23.4404 9.87862C23.4967 9.92695 23.5611 9.95112 23.6254 9.95112C23.7058 9.95112 23.7782 9.9189 23.8345 9.85446L24.2124 9.43558C24.2044 9.4678 24.2044 9.50002 24.2044 9.53224C24.2044 9.81418 24.4295 10.0397 24.711 10.0397C24.9924 10.0397 25.2176 9.81418 25.2176 9.53224C25.2176 9.50808 25.2176 9.47585 25.2095 9.45169L26.1825 9.79001C26.3273 9.83834 26.4881 9.76585 26.5444 9.62085C26.5927 9.47585 26.5203 9.31475 26.3755 9.25836L24.4617 8.58977C24.3411 8.5656 24.2205 8.58977 24.1481 8.67837ZM28.2572 24.2735H21.8965L20.433 22.9444C20.433 22.9363 20.433 22.9283 20.433 22.9202C20.433 22.6383 20.2078 22.4127 19.9264 22.4127C19.6449 22.4127 19.4198 22.6383 19.4198 22.9202C19.4198 23.2022 19.6449 23.4277 19.9264 23.4277C19.9827 23.4277 20.039 23.4197 20.0872 23.4035L21.5909 24.773C21.6392 24.8213 21.7116 24.8454 21.7839 24.8454H28.3376C28.3939 24.8454 28.4502 24.8293 28.4985 24.7971L33.9183 20.995C33.9746 20.9547 34.0148 20.8903 34.0309 20.8178L35.0602 15.7832C35.0763 15.7187 35.0602 15.6462 35.028 15.5899L34.6099 14.8327C34.6421 14.7682 34.6662 14.6877 34.6662 14.6071C34.6662 14.3252 34.441 14.0996 34.1596 14.0996C33.8781 14.0996 33.653 14.3252 33.653 14.6071C33.653 14.8729 33.854 15.0904 34.1113 15.1065L34.4812 15.7751L33.5002 20.5922L28.2572 24.2735ZM35.5909 18.514L39.1693 24.636C39.1372 24.7005 39.1211 24.773 39.1211 24.8535C39.1211 25.1354 39.3462 25.361 39.6277 25.361C39.9091 25.361 40.1343 25.1354 40.1343 24.8535C40.1343 24.5877 39.9252 24.3702 39.6679 24.3541L36.0895 18.232C36.1217 18.1676 36.1377 18.0951 36.1377 18.0145C36.1377 17.7326 35.9126 17.507 35.6311 17.507C35.3497 17.507 35.1245 17.7326 35.1245 18.0145C35.1245 18.2803 35.3336 18.4978 35.5909 18.514ZM19.46 25.8282C19.46 25.5463 19.2348 25.3207 18.9534 25.3207C18.6719 25.3207 18.4468 25.5463 18.4468 25.8282C18.4468 26.0215 18.5593 26.1907 18.7121 26.2712L19.1705 30.4761C19.1785 30.5486 19.2107 30.6131 19.267 30.6614L25.6197 36.1954C25.6679 36.2438 25.7403 36.2679 25.8046 36.2679H31.2808C31.3692 36.4049 31.522 36.4935 31.6989 36.4935C31.9804 36.4935 32.2055 36.2679 32.2055 35.986C32.2055 35.7041 31.9804 35.4785 31.6989 35.4785C31.522 35.4785 31.3692 35.5671 31.2808 35.7041H25.9091L19.7173 30.307L19.275 26.2068C19.3956 26.1182 19.46 25.9813 19.46 25.8282ZM25.6759 33.956C25.6759 34.238 25.9011 34.4635 26.1825 34.4635C26.464 34.4635 26.6892 34.238 26.6892 33.956C26.6892 33.7627 26.5766 33.5936 26.4238 33.513L25.7081 26.9157C25.692 26.7626 25.5553 26.6498 25.3945 26.666C25.2417 26.6821 25.1291 26.819 25.1452 26.9801L25.8609 33.5774C25.7403 33.6661 25.6759 33.803 25.6759 33.956ZM21.6633 30.162C21.3819 30.162 21.1567 30.3875 21.1567 30.6695C21.1567 30.9514 21.3819 31.177 21.6633 31.177C21.8885 31.177 22.0734 31.032 22.1377 30.8306L23.7219 30.3634C23.8506 30.3231 23.939 30.1942 23.9229 30.0653L23.5852 26.9157C23.5691 26.7626 23.4324 26.6498 23.2716 26.666C23.1188 26.6821 23.0062 26.819 23.0223 26.9801L23.3359 29.8962L21.9769 30.2909C21.9045 30.2103 21.792 30.162 21.6633 30.162ZM25.0809 39.5706C24.7994 39.5706 24.5743 39.7962 24.5743 40.0781C24.5743 40.2553 24.6627 40.4084 24.7994 40.497V47.0701L24.2044 50.8884L22.9901 51.9195H22.4192V51.0656C22.4192 50.9125 22.2905 50.7837 22.1377 50.7837C21.985 50.7837 21.8563 50.9125 21.8563 51.0656V51.9195H21.1165V51.0656C21.1165 50.9125 20.9878 50.7837 20.835 50.7837C20.6823 50.7837 20.5536 50.9125 20.5536 51.0656V51.9195H19.8299V51.0656C19.8299 50.9125 19.7012 50.7837 19.5484 50.7837C19.3956 50.7837 19.267 50.9125 19.267 51.0656V51.9195H18.5593V50.7434L22.2664 47.6421C22.3227 47.6662 22.387 47.6824 22.4594 47.6824C22.7408 47.6824 22.966 47.4568 22.966 47.1749C22.966 46.8929 22.7408 46.6674 22.4594 46.6674C22.186 46.6674 21.9608 46.8849 21.9608 47.1668L18.101 50.397C18.0367 50.4534 17.9964 50.5259 17.9964 50.6145V52.2014C17.9964 52.3545 18.1251 52.4833 18.2779 52.4833H23.0866C23.151 52.4833 23.2153 52.4592 23.2716 52.4189L24.6466 51.2589C24.6949 51.2186 24.7351 51.1542 24.7431 51.0898L25.3623 47.1507C25.3623 47.1346 25.3623 47.1185 25.3623 47.1104V40.5131C25.499 40.4245 25.5875 40.2714 25.5875 40.0942C25.5875 39.7962 25.3623 39.5706 25.0809 39.5706ZM50.6202 47.2232C50.5076 47.3118 50.4353 47.4568 50.4353 47.6099C50.4353 47.8918 50.6604 48.1173 50.9419 48.1173C51.2233 48.1173 51.4485 47.8918 51.4485 47.6099C51.4485 47.4165 51.3439 47.2554 51.1831 47.1668L51.0143 45.3866C51.0143 45.3624 51.0062 45.3382 50.9982 45.3141L49.1406 40.2392C49.1245 40.1909 49.0924 40.1425 49.0441 40.1103L45.4014 37.3635L43.5358 34.1977C43.568 34.1333 43.584 34.0608 43.584 33.9802C43.584 33.6983 43.3589 33.4727 43.0774 33.4727C42.796 33.4727 42.5708 33.6983 42.5708 33.9802C42.5708 34.246 42.7799 34.4635 43.0453 34.4796L44.943 37.6937C44.9591 37.7259 44.9832 37.7501 45.0154 37.7743L48.6421 40.505L50.4594 45.4671L50.6202 47.2232ZM45.5461 24.3541C45.2647 24.3541 45.0395 24.5796 45.0395 24.8616C45.0395 25.1435 45.2647 25.369 45.5461 25.369C45.5542 25.369 45.5703 25.369 45.5783 25.369L50.3307 31.5072V37.6212C50.194 37.7098 50.1056 37.8629 50.1056 38.0401C50.1056 38.322 50.3307 38.5476 50.6122 38.5476C50.8936 38.5476 51.1188 38.322 51.1188 38.0401C51.1188 37.8629 51.0303 37.7098 50.8936 37.6212V31.3944C50.8936 31.33 50.8695 31.2736 50.8373 31.2253L46.0286 25.0146C46.0447 24.9663 46.0527 24.9099 46.0527 24.8535C46.0447 24.5796 45.8195 24.3541 45.5461 24.3541ZM44.4364 32.9813L46.0849 35.7766C46.0527 35.841 46.0367 35.9135 46.0367 35.994C46.0367 36.276 46.2618 36.5015 46.5433 36.5015C46.8247 36.5015 47.0499 36.276 47.0499 35.994C47.0499 35.7282 46.8408 35.5107 46.5754 35.4946L44.9752 32.788L45.8115 29.0262C45.9964 28.9537 46.1332 28.7684 46.1332 28.559C46.1332 28.277 45.908 28.0515 45.6265 28.0515C45.3451 28.0515 45.1199 28.277 45.1199 28.559C45.1199 28.6959 45.1762 28.8167 45.2566 28.9053L44.3962 32.78C44.3882 32.8444 44.3962 32.9169 44.4364 32.9813ZM44.1711 51.6375L43.0533 46.1357L44.4606 41.1736C44.4766 41.1172 44.4766 41.0609 44.4606 41.0125L42.804 35.7846C42.8684 35.696 42.9086 35.5913 42.9086 35.4704C42.9086 35.1885 42.6834 34.963 42.402 34.963C42.1205 34.963 41.8954 35.1885 41.8954 35.4704C41.8954 35.696 42.0481 35.8893 42.2572 35.9538L43.8896 41.1011L42.804 44.9274L41.0591 36.3726L40.9063 34.6488L42.8362 32.49C42.8684 32.4577 42.8925 32.4094 42.9005 32.3611L43.9861 27.5037C44.0022 27.4473 43.9941 27.3909 43.97 27.3346L42.9166 24.8132C42.9649 24.7327 42.997 24.636 42.997 24.5393C42.997 24.2574 42.7719 24.0319 42.4904 24.0319C42.209 24.0319 41.9838 24.2574 41.9838 24.5393C41.9838 24.781 42.1607 24.9904 42.3859 25.0307L43.4071 27.4715L42.3618 32.1678L40.8339 33.8755L40.8017 33.4969C40.8017 33.4888 40.8017 33.4888 40.8017 33.4808L40.1825 28.9134C40.1584 28.7603 40.0217 28.6476 39.8689 28.6717C39.7161 28.6959 39.6036 28.8328 39.6277 28.9859L40.2388 33.5452L40.4881 36.421C40.4881 36.429 40.4881 36.4451 40.4962 36.4532L43.6162 51.7745C43.6242 51.8067 43.6323 51.8389 43.6564 51.8711L46.4548 56.3016V57.8482H45.6185V57.0346C45.6185 56.8816 45.4898 56.7527 45.3371 56.7527C45.1843 56.7527 45.0556 56.8816 45.0556 57.0346V57.8885H44.3158V57.0346C44.3158 56.8816 44.1871 56.7527 44.0344 56.7527C43.8816 56.7527 43.7529 56.8816 43.7529 57.0346V57.8885H43.0292V57.0346C43.0292 56.8816 42.9005 56.7527 42.7477 56.7527C42.595 56.7527 42.4663 56.8816 42.4663 57.0346V57.8885H41.4209L41.051 57.1957V54.473C41.051 54.465 41.051 54.4488 41.051 54.4408L40.5283 49.7365C40.5283 49.7204 40.5203 49.6962 40.5203 49.6801L38.0355 41.9792C38.0275 41.955 38.0114 41.9308 38.0033 41.9067L32.8006 34.3024L31.916 26.1182C32.0206 26.0296 32.0849 25.8926 32.0849 25.7476C32.0849 25.4657 31.8597 25.2402 31.5783 25.2402C31.2969 25.2402 31.0717 25.4657 31.0717 25.7476C31.0717 25.949 31.1843 26.1182 31.3531 26.1987L32.2457 34.4394C32.2538 34.4877 32.2699 34.528 32.294 34.5683L37.5128 42.1967L39.9815 49.8251L40.2147 51.9114H39.5955V51.0575C39.5955 50.9045 39.4669 50.7756 39.3141 50.7756C39.1613 50.7756 39.0326 50.9045 39.0326 51.0575V51.9114H38.2928V51.0575C38.2928 50.9045 38.1642 50.7756 38.0114 50.7756C37.8586 50.7756 37.7299 50.9045 37.7299 51.0575V51.9114H37.0062V51.0575C37.0062 50.9045 36.8776 50.7756 36.7248 50.7756C36.572 50.7756 36.4433 50.9045 36.4433 51.0575V51.9114H35.7839V50.7353L38.2687 48.6409C38.3089 48.649 38.3491 48.657 38.3893 48.657C38.6708 48.657 38.8959 48.4315 38.8959 48.1496C38.8959 47.8676 38.6708 47.6421 38.3893 47.6421C38.1079 47.6421 37.8827 47.8676 37.8827 48.1496C37.8827 48.1737 37.8827 48.1979 37.8908 48.2221L35.3256 50.3809C35.2612 50.4373 35.2291 50.5098 35.2291 50.5984V52.1853C35.2291 52.3383 35.3577 52.4672 35.5105 52.4672H40.2871L40.5122 54.473V57.2521C40.5122 57.3004 40.5203 57.3407 40.5444 57.381L41.0269 58.2832C41.0751 58.3718 41.1716 58.4362 41.2762 58.4362H46.7604C46.9132 58.4362 47.0418 58.3074 47.0418 58.1543V56.2452C47.0418 56.1888 47.0257 56.1405 47.0016 56.0921L44.1711 51.6375ZM55.7828 50.0748L54.0458 45.298L52.7834 39.6028V30.452C52.7834 30.3875 52.7592 30.3311 52.7271 30.2828L48.7546 25.1435L51.1992 22.155L50.3066 25.3529C50.1056 25.4174 49.9608 25.6107 49.9608 25.8282C49.9608 26.1101 50.186 26.3357 50.4674 26.3357C50.7489 26.3357 50.974 26.1101 50.974 25.8282C50.974 25.7074 50.9258 25.5865 50.8534 25.506L52.0998 21.0192C52.132 20.8903 52.0757 20.7533 51.9551 20.6969C51.8345 20.6325 51.6897 20.6647 51.6093 20.7694L48.4008 24.6924L46.9775 22.8477C46.9453 22.8074 46.9051 22.7752 46.8569 22.7591L38.9924 19.7303C38.9442 19.5048 38.7431 19.3437 38.5019 19.3437C38.2205 19.3437 37.9953 19.5692 37.9953 19.8511C37.9953 20.1331 38.2205 20.3586 38.5019 20.3586C38.6064 20.3586 38.711 20.3264 38.7914 20.27L46.5835 23.2747L52.2365 30.5728V39.6351C52.2365 39.6592 52.2365 39.6753 52.2446 39.6995L53.5151 45.443C53.5151 45.451 53.5232 45.4671 53.5232 45.4752L55.252 50.2278V51.3878L54.8982 51.9114H53.7805V51.0575C53.7805 50.9045 53.6518 50.7756 53.499 50.7756C53.3462 50.7756 53.2176 50.9045 53.2176 51.0575V51.9114H52.4778V51.0575C52.4778 50.9045 52.3491 50.7756 52.1963 50.7756C52.0435 50.7756 51.9149 50.9045 51.9149 51.0575V51.9114H51.1912V51.0575C51.1912 50.9045 51.0625 50.7756 50.9097 50.7756C50.7569 50.7756 50.6283 50.9045 50.6283 51.0575V51.9114H49.9287V50.7353L51.5932 49.3337C51.6415 49.3498 51.6817 49.3579 51.738 49.3579C52.0194 49.3579 52.2446 49.1323 52.2446 48.8504C52.2446 48.5684 52.0194 48.3429 51.738 48.3429C51.4565 48.3429 51.2314 48.5684 51.2314 48.8504C51.2314 48.8665 51.2314 48.8826 51.2314 48.8987L49.4623 50.3889C49.3979 50.4453 49.3658 50.5178 49.3658 50.6064V52.1933C49.3658 52.3464 49.4944 52.4753 49.6472 52.4753H55.051C55.1475 52.4753 55.2279 52.427 55.2842 52.3545L55.7747 51.6295C55.8069 51.5811 55.823 51.5248 55.823 51.4684V50.1715C55.7989 50.1392 55.7908 50.107 55.7828 50.0748ZM20.835 4.23988C20.9396 4.23988 21.0361 4.20766 21.1165 4.15127L22.0573 4.52182L19.9987 7.34119C19.9666 7.38952 19.9425 7.44591 19.9425 7.51035V9.45169L19.1544 11.4655C18.9292 11.5139 18.7604 11.7152 18.7604 11.9569C18.7604 12.2388 18.9855 12.4644 19.267 12.4644C19.5484 12.4644 19.7736 12.2388 19.7736 11.9569C19.7736 11.8522 19.7414 11.7555 19.6851 11.675L20.4893 9.6128C20.5054 9.58057 20.5054 9.54835 20.5054 9.50808V7.59896L22.6765 4.63459L25.2498 3.90156C25.3382 3.97405 25.4508 4.02239 25.5714 4.02239C25.8529 4.02239 26.078 3.79684 26.078 3.5149C26.078 3.23296 25.8529 3.00741 25.5714 3.00741C25.3462 3.00741 25.1613 3.15241 25.097 3.35379L22.5237 4.08683L21.3256 3.62767C21.2773 3.40212 21.0763 3.23296 20.835 3.23296C20.5536 3.23296 20.3284 3.45851 20.3284 3.74045C20.3284 4.02239 20.5616 4.23988 20.835 4.23988ZM20.0711 12.9799H18.1653C18.0849 12.9799 18.0045 13.0202 17.9482 13.0846L16.9832 14.2446C16.9109 14.3332 16.8948 14.4621 16.9511 14.5588L17.6426 15.8315C17.6909 15.9201 17.7874 15.9765 17.8919 15.9765H20.3284C20.433 15.9765 20.5295 15.9201 20.5777 15.8315L21.2693 14.5588C21.3256 14.4541 21.3095 14.3332 21.2371 14.2446L20.2722 13.0846C20.2319 13.0121 20.1515 12.9799 20.0711 12.9799ZM20.1676 15.4046H18.0608L17.5381 14.446L18.294 13.5357H19.9344L20.6903 14.446L20.1676 15.4046ZM33.9585 38.8295C33.7816 38.8295 33.6288 38.9181 33.5404 39.0551H26.657L17.5542 31.1367L16.9832 25.8685L18.487 23.4197C18.7523 23.4035 18.9695 23.186 18.9695 22.9202C18.9695 22.6383 18.7443 22.4127 18.4628 22.4127C18.1814 22.4127 17.9562 22.6383 17.9562 22.9202C17.9562 22.9927 17.9723 23.0652 18.0045 23.1297L16.4525 25.659C16.4203 25.7154 16.4043 25.7718 16.4123 25.8363L17.0074 31.3058C17.0154 31.3783 17.0476 31.4428 17.1039 31.4911L19.6208 33.6741V35.849C19.6208 35.8732 19.6288 35.9054 19.6369 35.9296L21.3497 41.5925V45.5316C21.213 45.6202 21.1245 45.7732 21.1245 45.9505C21.1245 46.2324 21.3497 46.4579 21.6311 46.4579C21.9126 46.4579 22.1377 46.2324 22.1377 45.9505C22.1377 45.7732 22.0493 45.6202 21.9126 45.5316V41.5522C21.9126 41.5281 21.9045 41.4958 21.8965 41.4717L20.1837 35.8088V34.1574L26.3755 39.5384C26.4238 39.5867 26.4962 39.6109 26.5605 39.6109H33.5484C33.6369 39.7478 33.7897 39.8364 33.9666 39.8364C34.248 39.8364 34.4732 39.6109 34.4732 39.329C34.4651 39.0551 34.24 38.8295 33.9585 38.8295ZM17.4657 4.50571C17.7472 4.50571 17.9723 4.28016 17.9723 3.99822C17.9723 3.91767 17.9562 3.84517 17.916 3.77267L19.2991 1.34801V3.5874C19.1624 3.67601 19.074 3.82906 19.074 4.00628C19.074 4.28821 19.2991 4.51376 19.5806 4.51376C19.862 4.51376 20.0872 4.28821 20.0872 4.00628C20.0872 3.82906 19.9987 3.67601 19.862 3.5874V0.284706C19.862 0.155821 19.7736 0.0430457 19.653 0.0108244C19.5323 -0.021397 19.3956 0.0349904 19.3394 0.147765L17.4336 3.50684C17.1762 3.52295 16.9672 3.74045 16.9672 4.00628C16.9591 4.28016 17.1843 4.50571 17.4657 4.50571ZM18.9614 22.1147C19.0097 22.1469 19.0579 22.163 19.1142 22.163C19.1624 22.163 19.2107 22.1469 19.2589 22.1227L21.4703 20.8017H23.9712C24.0275 20.8017 24.0838 20.7856 24.132 20.7533L27.9195 18.1434C27.9758 18.1031 28.024 18.0387 28.0321 17.9662L28.5467 15.5174C28.7317 15.4449 28.8603 15.2596 28.8603 15.0502C28.8603 14.7682 28.6352 14.5427 28.3537 14.5427C28.0723 14.5427 27.8471 14.7682 27.8471 15.0502C27.8471 15.1871 27.9034 15.3079 27.9838 15.3965L27.4933 17.7406L26.3916 18.4978L25.3784 15.4449C25.3704 15.4126 25.3543 15.3804 25.3302 15.3563L22.2584 11.5219C22.2744 11.4736 22.2825 11.4172 22.2825 11.3608C22.2825 11.0789 22.0573 10.8533 21.7759 10.8533C21.4944 10.8533 21.2693 11.0789 21.2693 11.3608C21.2693 11.6427 21.4944 11.8683 21.7759 11.8683C21.7839 11.8683 21.792 11.8683 21.8 11.8683L24.8477 15.6785L25.9011 18.8362L24.5099 19.7947L23.4083 16.4679C23.4002 16.4357 23.3842 16.4035 23.36 16.3793L22.8454 15.7349C22.8615 15.6865 22.8695 15.6382 22.8695 15.5899C22.8695 15.3079 22.6444 15.0824 22.3629 15.0824C22.0815 15.0824 21.8563 15.3079 21.8563 15.5899C21.8563 15.8718 22.0815 16.0973 22.3629 16.0973C22.379 16.0973 22.3951 16.0973 22.4031 16.0973L22.8856 16.7015L24.0275 20.1331L23.8506 20.2539H21.5186L19.3554 16.6773C19.2991 16.5887 19.2027 16.5404 19.1062 16.5404C19.0016 16.5484 18.9132 16.6048 18.8649 16.6934L17.1039 20.2458C17.0717 20.2378 17.0395 20.2297 17.0074 20.2297H15.6645L14.9568 18.1676L16.4525 16.0812C16.4605 16.0812 16.4605 16.0812 16.4686 16.0812C16.75 16.0812 16.9752 15.8557 16.9752 15.5737C16.9752 15.2918 16.75 15.0663 16.4686 15.0663C16.1871 15.0663 15.962 15.2918 15.962 15.5737C15.962 15.6382 15.97 15.6946 15.9941 15.751L14.7477 17.4829V15.751C14.7638 15.7349 14.7799 15.7187 14.796 15.7026L17.8758 11.8522C17.8839 11.8522 17.9 11.8522 17.908 11.8522C18.1894 11.8522 18.4146 11.6266 18.4146 11.3447C18.4146 11.0628 18.1894 10.8372 17.908 10.8372C17.6265 10.8372 17.4014 11.0628 17.4014 11.3447C17.4014 11.4011 17.4094 11.4494 17.4255 11.4977L14.7397 14.8568V13.2941L16.2434 11.4011C16.3158 11.3125 16.3238 11.1916 16.2676 11.0869L15.4875 9.68529L16.1871 9.43558C16.1791 9.4678 16.1791 9.50002 16.1791 9.53224C16.1791 9.81418 16.4043 10.0397 16.6857 10.0397C16.9672 10.0397 17.1923 9.81418 17.1923 9.53224C17.1923 9.51613 17.1923 9.50808 17.1923 9.49197L17.522 9.85446C17.5783 9.9189 17.6507 9.95112 17.7311 9.95112C17.7954 9.95112 17.8678 9.92695 17.916 9.87862C18.0286 9.7739 18.0367 9.59668 17.9402 9.48391L17.2084 8.67837C17.136 8.59782 17.0154 8.5656 16.9028 8.59782L15.5599 9.06503L16.7179 6.004L18.1573 5.44013C18.2377 5.49651 18.3342 5.52874 18.4387 5.52874C18.7202 5.52874 18.9453 5.30319 18.9453 5.02125C18.9453 4.73931 18.7202 4.51376 18.4387 4.51376C18.1975 4.51376 17.9964 4.68292 17.9482 4.90847L16.4043 5.52874C16.3319 5.56096 16.2756 5.61734 16.2434 5.68984L14.8282 9.43558C14.8282 9.43558 14.8282 9.44363 14.8282 9.45169C14.8282 9.45974 14.8201 9.47585 14.8201 9.48391C14.8201 9.49196 14.8201 9.50002 14.8201 9.50808C14.8201 9.51613 14.8201 9.53224 14.8201 9.5403C14.8201 9.54835 14.8201 9.55641 14.8201 9.56446C14.8201 9.57252 14.8201 9.58863 14.8282 9.59668C14.8282 9.60474 14.8282 9.6128 14.8362 9.62085V9.62891C14.8362 9.63696 14.8442 9.64502 14.8523 9.65307C14.8523 9.66113 14.8603 9.66113 14.8603 9.66918L15.7127 11.1997L14.2653 13.0202C14.2251 13.0685 14.2009 13.133 14.2009 13.1974V17.6279C14.2009 17.6601 14.209 17.6923 14.217 17.7165L15.2141 20.6003C15.2543 20.7131 15.3589 20.7936 15.4795 20.7936H16.935L18.9614 22.1147ZM19.1383 17.4104L21.0039 20.4231L19.1222 21.5508L17.5783 20.56L19.1383 17.4104Z" fill="#4B689B"/>
</svg>
