<svg width="24" height="24" viewBox="0 0 24 24" fill="none" xmlns="http://www.w3.org/2000/svg">
<path fill-rule="evenodd" clip-rule="evenodd" d="M11.5739 3.01995C11.8094 2.95925 11.9906 3.05365 12.0431 3.0835C12.1129 3.12322 12.1614 3.16827 12.185 3.19144C12.2356 3.24115 12.2764 3.29519 12.3035 3.33312C12.3623 3.41526 12.4275 3.52231 12.4945 3.64C12.6312 3.88009 12.8053 4.21794 12.9976 4.61962C13.3433 5.34163 13.7586 6.2922 14.1358 7.29641C16.3103 7.54558 17.6973 8.27947 18.57 9.06486C19.1023 9.54397 19.4271 10.0281 19.6203 10.4007C19.7168 10.5868 19.7805 10.7451 19.8211 10.8614C19.8414 10.9195 19.856 10.9673 19.866 11.0029C19.871 11.0207 19.8749 11.0355 19.8778 11.047L19.8814 11.0619L19.8827 11.0675L19.8833 11.0698L19.8835 11.0708C19.8835 11.0708 19.8837 11.0718 19.2984 11.1944L19.4724 11.7507L19.4661 11.7526L19.4458 11.7586L19.3646 11.783C19.293 11.8045 19.1871 11.8367 19.0509 11.8787C18.7786 11.9628 18.3854 12.0862 17.9038 12.243C17.2734 12.4484 16.4925 12.7109 15.6336 13.0173C16.0449 15.3086 16.3334 18.1793 16.1091 20.4624L16.0768 20.7914L15.769 20.9328C15.6463 20.9891 15.5225 20.9957 15.4908 20.9974L15.4872 20.9976C15.4314 21.0009 15.3721 21.0004 15.3161 20.9985C15.2023 20.9948 15.0595 20.9837 14.8977 20.9674C14.5719 20.9345 14.1366 20.8766 13.6359 20.797C12.6342 20.6379 11.3474 20.388 10.1156 20.065C8.89776 19.7456 7.68035 19.3414 6.85227 18.8578C6.44614 18.6205 6.05742 18.3214 5.84463 17.9397C5.73233 17.7382 5.66511 17.5062 5.68122 17.2537C5.69674 17.0106 5.787 16.7876 5.92466 16.59L5.94744 16.5522L6.04282 16.3933C6.12511 16.2558 6.24279 16.0585 6.38404 15.8194C6.66671 15.341 7.0431 14.6967 7.41907 14.0314C7.79585 13.3647 8.16863 12.6831 8.4459 12.1282C8.58495 11.8499 8.69574 11.6119 8.77045 11.4278C8.80782 11.3357 8.83292 11.265 8.84788 11.2143C8.83238 11.1798 8.80814 11.1323 8.77257 11.0707C8.68435 10.9178 8.55058 10.7193 8.37846 10.4847C8.03579 10.0177 7.57307 9.45088 7.10283 8.89712C6.63414 8.34518 6.16464 7.81401 5.81182 7.4203C5.63555 7.2236 5.48872 7.06157 5.3861 6.94887C5.33479 6.89252 5.29455 6.84852 5.26722 6.8187L5.25095 6.80097C5.23364 6.78324 5.21667 6.76431 5.20043 6.74415C5.06871 6.58068 4.9895 6.37689 5.00113 6.15064C5.01207 5.93748 5.10069 5.76051 5.19557 5.62836C5.37616 5.37684 5.6644 5.17054 5.94556 5.00394C6.52756 4.65909 7.35903 4.32564 8.17552 4.03929C9.00194 3.74945 9.85195 3.49465 10.4928 3.31286C10.8138 3.22179 11.0837 3.14865 11.2738 3.09818C11.3688 3.07294 11.444 3.05335 11.4956 3.04001L11.555 3.02475L11.5706 3.02077L11.5739 3.01995ZM7.63525 7.70081C7.76408 7.84964 7.89545 8.00267 8.02688 8.15745C8.50303 8.71817 8.98671 9.30967 9.35384 9.81C9.53661 10.0591 9.6986 10.2965 9.8174 10.5024C9.87666 10.6051 9.93128 10.7104 9.97255 10.8125C10.0094 10.9037 10.0564 11.0416 10.0564 11.1944C10.0564 11.3212 10.0256 11.4448 9.99932 11.5341C9.96993 11.6337 9.93002 11.7424 9.8847 11.8541C9.79385 12.0779 9.66814 12.3461 9.52339 12.6357C9.23306 13.2168 8.84905 13.9182 8.46903 14.5907C8.40683 14.7008 8.34464 14.8102 8.28288 14.9185C8.65535 14.7104 9.04565 14.5069 9.44592 14.309C10.8181 13.6306 12.3518 12.997 13.7813 12.455C15.2122 11.9125 16.5465 11.4587 17.5228 11.1407C17.9096 11.0147 18.2405 10.9099 18.4994 10.8291C18.3553 10.574 18.1227 10.2478 17.7558 9.9176C16.9392 9.18265 15.3904 8.36942 12.4856 8.36942C11.1388 8.36942 9.47108 8.11396 8.109 7.811C7.94724 7.77502 7.78897 7.73819 7.63525 7.70081ZM6.89529 17.2755C6.87762 17.3076 6.87654 17.3255 6.87654 17.3255C6.87637 17.3277 6.87498 17.3452 6.89788 17.3863C6.95679 17.492 7.12273 17.6588 7.46961 17.8614C8.14757 18.2573 9.22964 18.6282 10.4279 18.9425C11.6123 19.253 12.8583 19.4952 13.8293 19.6495C14.2818 19.7215 14.6695 19.7735 14.9597 19.8044C15.0766 17.8284 14.8399 15.443 14.4922 13.4344C14.4009 13.4686 14.3091 13.5032 14.217 13.5381C12.8077 14.0725 11.3136 14.6905 9.98934 15.3452C8.6869 15.9891 7.59019 16.6486 6.89529 17.2755ZM6.38508 6.11437C6.47714 6.15063 6.58639 6.1901 6.71238 6.23203C7.14107 6.37471 7.72022 6.53165 8.37643 6.6776C9.6947 6.97082 11.2648 7.20666 12.4856 7.20666C12.6001 7.20666 12.7129 7.20784 12.824 7.21015C12.5131 6.42165 12.1885 5.68801 11.9116 5.10978C11.7396 4.75049 11.5888 4.45711 11.4736 4.25078C11.3011 4.2971 11.0812 4.35732 10.8286 4.42896C10.2006 4.60713 9.37655 4.85437 8.58239 5.13289C7.77829 5.41489 7.04259 5.71611 6.56944 5.99647C6.49671 6.03956 6.43575 6.07899 6.38508 6.11437ZM19.2984 11.1944L19.4724 11.7507L20 11.5951L19.8835 11.0708L19.2984 11.1944Z" fill="#717681"/>
</svg>
