<svg width="24" height="24" viewBox="0 0 24 24" fill="none" xmlns="http://www.w3.org/2000/svg">
<path d="M16.7969 12.9441C17.317 12.9441 17.7386 12.525 17.7386 12.008C17.7386 11.491 17.317 11.0719 16.7969 11.0719C16.2768 11.0719 15.8551 11.491 15.8551 12.008C15.8551 12.525 16.2768 12.9441 16.7969 12.9441Z" fill="#717681"/>
<path fill-rule="evenodd" clip-rule="evenodd" d="M12.629 17.5619L12.629 15.9344C13.1188 16.1394 13.633 16.2982 14.1661 16.4053V19.2554C14.1661 20.1085 14.8618 20.8 15.72 20.8H16.4209C18.8394 20.8 20.8 18.8511 20.8 16.447V11.1613C20.8 7.20623 17.5745 4 13.5957 4H9.19582C8.45257 4 7.83119 4.51872 7.67809 5.21184C6.9081 4.92035 6.05451 4.85056 5.48004 4.83725C4.61134 4.81712 4 5.53551 4 6.31775L4.00001 13.8174C4.00001 16.7385 6.38224 19.1065 9.32086 19.1065H11.0751C11.9333 19.1065 12.629 18.4149 12.629 17.5619ZM5.45151 6.05387C6.17165 6.07056 7.06249 6.18643 7.64195 6.54035V8.46836C7.64195 11.3373 9.14296 13.8578 11.4069 15.2962C11.4055 15.3135 11.4047 15.331 11.4047 15.3487L11.4047 17.5619C11.4047 17.7428 11.2571 17.8895 11.0751 17.8895L9.32086 17.8895C7.05838 17.8895 5.22427 16.0664 5.22427 13.8174L5.22427 6.31775C5.22427 6.2313 5.25712 6.16139 5.30001 6.11671C5.34041 6.07462 5.39056 6.05246 5.45151 6.05387ZM15.788 15.3488H17.0322C17.3703 15.3488 17.6443 15.6213 17.6443 15.9573C17.6443 16.2934 17.3703 16.5658 17.0322 16.5658H15.3904V19.2554C15.3904 19.4364 15.5379 19.583 15.72 19.583H16.4209C18.1633 19.583 19.5757 18.179 19.5757 16.447V11.1613C19.5757 7.87834 16.8984 5.21696 13.5957 5.21696H9.19582C9.01378 5.21696 8.86621 5.36365 8.86621 5.5446V8.46836C8.86621 12.2683 11.9652 15.3488 15.788 15.3488Z" fill="#717681"/>
</svg>
