<svg width="24" height="24" viewBox="0 0 24 24" fill="none" xmlns="http://www.w3.org/2000/svg">
<path d="M9.80986 7.54874C9.80986 8.13899 9.33692 8.61748 8.75352 8.61748C8.17012 8.61748 7.69718 8.13899 7.69718 7.54874C7.69718 6.95849 8.17012 6.47999 8.75352 6.47999C9.33692 6.47999 9.80986 6.95849 9.80986 7.54874Z" fill="#717681"/>
<path d="M16.0106 7.54882C16.0106 7.93248 15.7032 8.2435 15.324 8.2435H11.9225C11.5433 8.2435 11.2359 7.93248 11.2359 7.54882C11.2359 7.16516 11.5433 6.85414 11.9225 6.85414H15.324C15.7032 6.85414 16.0106 7.16516 16.0106 7.54882Z" fill="#717681"/>
<path d="M16.022 11.5813C16.022 11.965 15.7146 12.276 15.3354 12.276H11.934C11.5548 12.276 11.2474 11.965 11.2474 11.5813C11.2474 11.1976 11.5548 10.8866 11.934 10.8866H15.3354C15.7146 10.8866 16.022 11.1976 16.022 11.5813Z" fill="#717681"/>
<path d="M16.0106 15.6739C16.0106 16.0576 15.7032 16.3686 15.324 16.3686H11.9225C11.5433 16.3686 11.2359 16.0576 11.2359 15.6739C11.2359 15.2903 11.5433 14.9793 11.9225 14.9793L15.324 14.9793C15.7032 14.9793 16.0106 15.2903 16.0106 15.6739Z" fill="#717681"/>
<path d="M9.83717 11.5813C9.83717 12.1716 9.36423 12.6501 8.78083 12.6501C8.19743 12.6501 7.72449 12.1716 7.72449 11.5813C7.72449 10.9911 8.19743 10.5126 8.78083 10.5126C9.36423 10.5126 9.83717 10.9911 9.83717 11.5813Z" fill="#717681"/>
<path d="M8.78083 16.714C9.36423 16.714 9.83717 16.2355 9.83717 15.6452C9.83717 15.055 9.36423 14.5765 8.78083 14.5765C8.19743 14.5765 7.72449 15.055 7.72449 15.6452C7.72449 16.2355 8.19743 16.714 8.78083 16.714Z" fill="#717681"/>
<path fill-rule="evenodd" clip-rule="evenodd" d="M21.3134 8.188C22.1989 8.188 22.1989 6.79863 21.3134 6.79863H19.8451V5.20623C19.8451 3.43212 18.4296 2 16.6761 2H7.16901C5.41549 2 4 3.43212 4 5.20623V17.9938C4 19.7679 5.41549 21.2 7.16901 21.2H16.6761C18.4296 21.2 19.8451 19.7572 19.8451 17.9938V16.3907H21.3134C21.6926 16.3907 22 16.0796 22 15.696C22 15.3123 21.6926 15.0013 21.3134 15.0013H19.8451V8.188H21.3134ZM16.6761 3.38937C17.669 3.38937 18.4718 4.20161 18.4718 5.20623L18.4718 17.9938C18.4718 18.9984 17.669 19.8106 16.6761 19.8106H7.16901C6.17606 19.8106 5.37324 18.9984 5.37324 17.9938L5.37324 5.20623C5.37324 4.20161 6.17606 3.38937 7.16901 3.38937L16.6761 3.38937Z" fill="#717681"/>
</svg>
