<svg width="20" height="20" viewBox="0 0 20 20" fill="none" xmlns="http://www.w3.org/2000/svg">
<path fill-rule="evenodd" clip-rule="evenodd" d="M5.39238 5.96802C5.09147 3.32002 7.16279 1 9.82782 1C12.4929 1 14.5642 3.32002 14.2633 5.96803L14.0012 8.274C13.76 10.3966 11.9641 12 9.82782 12C7.69159 12 5.89563 10.3966 5.65442 8.274L5.39238 5.96802Z" fill="#626F84"/>
<path fill-rule="evenodd" clip-rule="evenodd" d="M2.11689 17.6984C2.72694 14.9532 5.16182 13 7.97403 13H11.6813C14.4934 13 16.9283 14.9532 17.5384 17.6984L17.6383 18.1481C17.7355 18.5853 17.4028 19 16.955 19H2.70028C2.25245 19 1.9198 18.5853 2.01695 18.1481L2.11689 17.6984Z" fill="#626F84"/>
</svg>
