<svg width="243" height="44" viewBox="0 0 243 44" fill="none" xmlns="http://www.w3.org/2000/svg">
<path fill-rule="evenodd" clip-rule="evenodd" d="M169.444 17.225H159.367L159.313 40.2799H169.39C171.672 40.3266 173.931 39.8339 175.985 38.8426C177.828 37.9526 179.373 36.5456 180.43 34.7932C181.508 32.9656 182.056 30.8742 182.012 28.753C182.072 26.6365 181.542 24.545 180.483 22.7117C179.425 20.9593 177.881 19.5523 176.038 18.6623C173.983 17.6718 171.724 17.1797 169.444 17.2261V17.225ZM173.716 35.6771C172.323 36.3485 170.792 36.6828 169.245 36.6533L163.719 36.7327V20.9054H169.312C170.859 20.8699 172.392 21.2046 173.783 21.8815C175.019 22.4874 176.047 23.4465 176.737 24.6371C177.453 25.9076 177.813 27.3477 177.778 28.8056C177.813 30.2635 177.453 31.7035 176.737 32.974C176.021 34.1553 174.969 35.0964 173.716 35.6771ZM187.686 34.938H199.16L201.521 40.2799H205.992L195.586 17.225H191.378L180.999 40.2799H185.417L187.686 34.938ZM193.502 21.5779L197.841 31.6546H189.136L193.502 21.5779ZM209.802 20.8528H202.165V17.225H221.725V20.8528H214.088V40.2799H209.802V20.854V20.8528ZM224.562 34.938H236.089L238.397 40.2799H242.868L232.462 17.225H228.254L217.888 40.2799H222.293L224.562 34.938ZM230.418 21.5779L234.771 31.6546H226.039L230.418 21.5779Z" fill="#191C1F"/>
<path fill-rule="evenodd" clip-rule="evenodd" d="M0 9.46952C0 3.2577 12.2135 0 24.2821 0C36.3485 0 48.5619 3.2577 48.5619 9.45784H45.1198C45.1049 9.3152 45.0646 9.17639 45.0007 9.048C44.9423 8.8925 44.8625 8.7459 44.7636 8.61248C44.6695 8.44885 44.5492 8.30173 44.4075 8.17695C44.272 8.03081 44.1264 7.89425 43.972 7.76828C43.7575 7.58035 43.5229 7.41667 43.2726 7.2802C43.2322 7.25549 43.1917 7.23097 43.1511 7.20664C43.0082 7.12219 42.8684 7.03261 42.7319 6.93809C42.0436 6.55382 41.3246 6.22732 40.5823 5.96194L37.7858 12.2006L37.4566 12.9246L37.2464 13.4138C37.2265 13.4418 37.1997 13.5049 37.1647 13.5889C37.0868 13.7831 36.9947 13.9712 36.8891 14.1517C36.4279 14.9037 35.4786 15.7747 33.3944 15.0485L32.9063 14.8512H32.7743C31.6619 14.4109 30.5021 14.1013 29.3181 13.9287C29.2097 13.9094 29.1018 13.8868 28.9947 13.861C28.799 13.8085 28.5981 13.778 28.3957 13.7699C27.0304 13.6038 25.6563 13.5199 24.281 13.5189H24.0825C21.2329 13.4334 18.3924 13.8809 15.707 14.8383L15.1664 15.0625C12.9502 15.8401 12.0407 14.7846 11.632 14.0466L11.3412 13.4278L7.97845 5.97479C6.53252 6.44872 5.20256 7.22172 4.07505 8.2435L3.95712 8.38829C3.79013 8.58556 3.66428 8.81423 3.58698 9.06085C3.31908 9.69417 3.19314 10.3785 3.218 11.0657C3.20861 11.7299 3.3157 12.3907 3.53443 13.018C3.5753 13.0974 3.60566 13.1814 3.62784 13.269C3.68622 13.4208 3.77613 13.5609 3.89056 13.6777C3.93019 13.7569 3.98402 13.8281 4.04936 13.8879C5.32904 15.0359 6.84653 15.8872 8.49338 16.3808C8.49338 16.3808 9.06085 16.6049 10.1689 16.9085L11.0131 17.1467C13.318 17.692 15.658 18.0808 18.0166 18.3062C20.1071 18.5159 22.2068 18.6219 24.3078 18.6238H26.6162C27.9382 18.5963 29.2583 18.5083 30.5722 18.3599C33.1151 18.1614 35.6332 17.7196 38.0918 17.0405C38.2903 16.9856 38.4596 16.9354 38.6184 16.8863C38.7643 16.8431 38.9009 16.8011 39.0399 16.7637C39.18 16.7264 39.2909 16.682 39.3808 16.647C39.4522 16.6123 39.5287 16.5895 39.6074 16.5793C40.5687 16.2611 41.5037 15.8684 42.4038 15.4046L40.3196 20.0214C35.1152 21.5588 29.7084 22.3013 24.2821 22.2236C16.1437 22.2236 7.97962 20.7465 3.49473 17.8718V19.9946C3.49473 22.4221 11.6063 25.9834 24.2821 25.9834C29.0544 26.0459 33.8122 25.4467 38.4199 24.2027L36.6007 28.2381C32.5488 29.0774 28.4199 29.4883 24.2821 29.4641C16.1437 29.4641 7.97962 27.9742 3.49473 25.1252V27.2363C3.49473 29.6766 11.6063 33.211 24.2821 33.211C27.7924 33.2251 31.2968 32.925 34.7535 32.3143L33.0394 36.1126C30.1376 36.5133 27.2115 36.7115 24.2821 36.7058C16.1437 36.7058 7.97962 35.2159 3.49473 32.3668V34.4768C3.49473 36.93 11.6063 40.4515 24.2424 40.5041C26.5692 40.5134 28.8944 40.3859 31.2062 40.1223L29.5575 43.7618C27.8036 43.9216 26.0433 44.0011 24.2821 44C12.2135 44 0 40.7423 0 34.5305V9.46952ZM14.0198 12.503C16.8235 11.3263 19.83 10.7084 22.8705 10.6839V3.52159C18.7591 3.55302 14.6669 4.0843 10.6839 5.10373L14.0198 12.503ZM25.6926 10.6839C28.7368 10.71 31.7467 11.3279 34.555 12.503L37.8933 5.10373C33.9056 4.08343 29.8086 3.55215 25.6926 3.52159V10.6839ZM78.2117 33.5275L82.9196 40.2799L87.457 40.3325L82.1817 32.7627C83.6572 32.2264 84.9294 31.2446 85.8223 29.9533C86.7085 28.6324 87.1686 27.0717 87.1406 25.4813C87.1806 23.9371 86.7678 22.4151 85.9531 21.1027C85.1459 19.8303 83.9804 18.8253 82.6032 18.2139C80.9343 17.5154 79.1364 17.1783 77.3278 17.225H67.8443V40.2542H72.1318V33.5275H77.3278C77.622 33.5438 77.9175 33.5438 78.2117 33.5275ZM77.1305 20.8528C78.6402 20.7492 80.1397 21.1681 81.3772 22.0391C81.8725 22.4585 82.2619 22.9887 82.5139 23.5868C82.7659 24.1849 82.8733 24.8339 82.8274 25.4813C82.862 26.1218 82.7492 26.7616 82.4978 27.3517C82.2464 27.9417 81.863 28.4663 81.3772 28.885C80.1458 29.7699 78.6429 30.1947 77.1305 30.0853H72.1307V20.8528H77.1305ZM47.2694 34.938H58.7974L61.1047 40.2799H65.5767L55.1696 17.225H50.9626L40.5823 40.2799H45.0007L47.2694 34.938ZM53.0328 21.5779L57.3858 31.6546H48.7207L53.0328 21.5779ZM107.229 36.6929V40.2799H89.9371V17.225H106.833V20.8131H94.2235V26.8147H105.343V30.3352H94.2235V36.6929H107.229ZM130.495 40.2799V17.225H126.248V32.8409L113.547 17.225H110.025V40.2799H114.272V24.664L126.973 40.2799H130.495ZM150.359 34.938H138.831L136.562 40.2799H132.156L142.444 17.225H146.665L157.059 40.2799H152.588L150.359 34.938ZM148.907 31.6546L144.554 21.5779L140.242 31.6546H148.907Z" fill="#01A872"/>
</svg>
