<svg width="214" height="153" viewBox="0 0 214 153" fill="none" xmlns="http://www.w3.org/2000/svg">
<rect x="8" width="206" height="145" rx="9" fill="#E6EEFF"/>
<rect x="1.2" y="9.2" width="203.6" height="142.6" rx="7.8" stroke="#4B689B" stroke-width="2.4"/>
<line x1="2" y1="18.8" x2="205" y2="18.8" stroke="#4B689B" stroke-width="2.4"/>
<rect x="88.9443" y="64" width="10.2857" height="43" rx="5" fill="#219246"/>
<rect x="109.516" y="64" width="10.2857" height="43" rx="5" fill="#FFAF37"/>
<rect x="130.087" y="64" width="10.2857" height="43" rx="5" fill="#FF8C19"/>
<rect x="150.658" y="64" width="10.2857" height="43" rx="5" fill="#D92020"/>
<ellipse cx="56.9438" cy="94.9812" rx="7.46528" ry="7.09201" fill="#6EA5F7"/>
<path fill-rule="evenodd" clip-rule="evenodd" d="M52.1667 86.6925L51.2125 87.4092C48.8862 89.1566 47.3889 91.9309 47.3889 95.0556C47.3889 100.333 51.6671 104.611 56.9444 104.611C62.2218 104.611 66.5 100.333 66.5 95.0556C66.5 91.9309 65.0027 89.1566 62.6764 87.4092L61.7222 86.6925V71.1667C61.7222 68.528 59.5831 66.3889 56.9444 66.3889C54.3058 66.3889 52.1667 68.528 52.1667 71.1667V71.1668H56.9446V73.5557H52.1667V75.9443H56.9446V78.3331H52.1667V86.6925ZM49.7778 71.1667C49.7778 67.2086 52.9864 64 56.9444 64C60.9025 64 64.1111 67.2086 64.1111 71.1667V85.4991C67.0123 87.6783 68.8889 91.1478 68.8889 95.0556C68.8889 101.652 63.5412 107 56.9444 107C50.3477 107 45 101.652 45 95.0556C45 91.1478 46.8766 87.6783 49.7778 85.4991V71.1667Z" fill="#6EA5F7"/>
<path fill-rule="evenodd" clip-rule="evenodd" d="M59.1842 80.4237L59.1842 92.3682L54.7051 92.3682L54.7051 80.4237L59.1842 80.4237Z" fill="#6EA5F7"/>
</svg>
