<svg width="20" height="20" viewBox="0 0 20 20" fill="none" xmlns="http://www.w3.org/2000/svg">
<path d="M10.5413 11.3683C10.5413 11.0692 10.2988 10.8267 9.99967 10.8267C9.70051 10.8267 9.45801 11.0692 9.45801 11.3683V12.7987C9.45801 13.0979 9.70051 13.3404 9.99967 13.3404C10.2988 13.3404 10.5413 13.0979 10.5413 12.7987V11.3683Z" fill="#626F84"/>
<path fill-rule="evenodd" clip-rule="evenodd" d="M6.0156 5.08411L6.01561 6.99984H6C4.34315 6.99984 3 8.34295 3 9.99985V14.9998C3 16.6566 4.34315 17.9998 6 17.9998H14C15.6569 17.9998 17 16.6566 17 14.9998V9.99985C17 8.34295 15.6569 6.99984 14 6.99984H13.9602V5.08411C13.9602 2.89027 12.1817 1.11182 9.9879 1.11182C7.79406 1.11182 6.0156 2.89028 6.0156 5.08411ZM9.9879 2.44182C8.5286 2.44182 7.3456 3.62482 7.3456 5.08411L7.34561 6.99984H12.6302V5.08411C12.6302 3.62481 11.4472 2.44182 9.9879 2.44182ZM14 8.29985H6C5.06112 8.29985 4.3 9.06095 4.3 9.99985V14.9998C4.3 15.9387 5.06112 16.6998 6 16.6998H14C14.9389 16.6998 15.7 15.9387 15.7 14.9998V9.99985C15.7 9.06095 14.9389 8.29985 14 8.29985Z" fill="#626F84"/>
</svg>
