<svg width="296" height="30" viewBox="0 0 296 30" fill="none" xmlns="http://www.w3.org/2000/svg">
<path d="M40.09 29.8661L51.3451 0.0341797H44.6124L36.7236 22.9481L28.6308 0.0341797H22.6803L14.4174 22.9143L6.73267 0.0341797H0L11.0511 29.8661H17.4097L25.6385 7.6609L33.6973 29.8661H40.09Z" fill="#4B689B"/>
<path d="M72.5635 22.9143L76.3378 29.8661H83.0705L66.5789 0.0341797H60.4243L43.9326 29.8661H50.6653L54.4057 22.9143H72.5635ZM63.5186 5.87233L70.3532 18.2236H56.7179L63.5186 5.87233Z" fill="#4B689B"/>
<path d="M90.0749 29.8652H95.9915V5.90509H106.941V0.0332031H79.0918V5.90509H90.0749V29.8652Z" fill="#4B689B"/>
<path d="M141.896 28.2794C142.474 27.8407 142.95 27.3683 143.29 26.8621C143.63 26.3559 143.902 25.9171 144.072 25.5122L140.298 21.7326C140.026 22.3063 139.618 22.8462 139.074 23.3187C138.53 23.7911 137.645 24.0273 136.489 24.0273H119.828C119.08 24.0273 118.468 23.9598 117.991 23.7911C117.515 23.6224 117.175 23.3862 116.937 23.0824C116.699 22.7787 116.529 22.3738 116.427 21.9013C116.325 21.4289 116.291 20.8889 116.291 20.2477V9.7188C116.291 8.30144 116.563 7.32279 117.073 6.78284C117.583 6.2429 118.502 5.97292 119.828 5.97292H136.251C137.373 5.97292 138.257 6.20916 138.836 6.68161C139.414 7.15406 139.856 7.69399 140.094 8.26768L143.868 4.45432C143.698 4.04936 143.426 3.61066 143.086 3.10446C142.746 2.59826 142.27 2.12581 141.692 1.6871C141.114 1.24839 140.4 0.877186 139.584 0.573467C138.768 0.269748 137.781 0.134766 136.693 0.134766H119.828C118.025 0.134766 116.529 0.303494 115.339 0.573467C114.149 0.877186 113.197 1.41714 112.483 2.15956C111.769 2.90198 111.259 3.91439 110.953 5.16301C110.647 6.41164 110.511 7.96397 110.511 9.82003V20.3152C110.511 22.1713 110.681 23.7236 110.953 24.9722C111.259 26.2209 111.769 27.1995 112.483 27.9419C113.197 28.6844 114.149 29.2243 115.339 29.528C116.529 29.8317 118.025 30.0005 119.828 30.0005H136.863C137.985 30.0005 138.938 29.8318 139.754 29.5618C140.604 29.0893 141.318 28.7181 141.896 28.2794Z" fill="#4B689B"/>
<path d="M178.109 29.8652V0.0332031H172.295V12.1482H154.375V0.0332031H148.561V29.8652H154.375V17.5477H172.295V29.8652H178.109Z" fill="#4B689B"/>
<path d="M217.621 24.77C217.927 23.5214 218.063 22.0028 218.063 20.1805V9.68527C218.063 7.86295 217.893 6.34437 217.621 5.09574C217.315 3.88087 216.805 2.86846 216.091 2.09229C215.377 1.31612 214.425 0.776179 213.201 0.47246C211.977 0.168741 210.48 0 208.644 0H183.346V29.832H208.644C210.48 29.832 212.011 29.6632 213.201 29.3595C214.425 29.0558 215.377 28.5159 216.091 27.7397C216.805 27.031 217.315 26.0186 217.621 24.77ZM212.181 20.2142C212.181 21.699 211.909 22.6777 211.432 23.2177C210.922 23.7239 210.004 23.9938 208.644 23.9938H189.296V5.90565H208.644C209.97 5.90565 210.888 6.17563 211.398 6.71557C211.909 7.25552 212.181 8.26792 212.181 9.71903V20.2142Z" fill="#4B689B"/>
<path d="M255.809 27.7734C256.523 27.031 257.067 26.0186 257.373 24.77C257.679 23.5214 257.815 22.0028 257.815 20.1805V9.68527C257.815 7.86296 257.679 6.34437 257.373 5.09574C257.067 3.84712 256.557 2.86846 255.809 2.09229C255.095 1.34987 254.109 0.809926 252.919 0.47246C251.695 0.168741 250.233 0 248.43 0H232.551C230.715 0 229.184 0.168741 227.994 0.47246C226.804 0.776179 225.852 1.31612 225.104 2.09229C224.39 2.83472 223.88 3.84712 223.574 5.09574C223.268 6.34437 223.132 7.86296 223.132 9.68527V20.1805C223.132 22.0028 223.268 23.5214 223.574 24.77C223.88 26.0186 224.39 26.9973 225.104 27.7734C225.818 28.5159 226.804 29.0558 227.994 29.3933C229.184 29.697 230.715 29.8657 232.551 29.8657H248.43C250.199 29.8657 251.695 29.697 252.919 29.3933C254.109 29.0558 255.061 28.5159 255.809 27.7734ZM251.899 20.2142C251.899 21.6991 251.627 22.6777 251.117 23.2177C250.607 23.7239 249.688 23.9938 248.328 23.9938H232.517C231.837 23.9938 231.293 23.9263 230.851 23.8251C230.409 23.7239 230.035 23.5214 229.762 23.2177C229.49 22.9139 229.286 22.5427 229.184 22.0703C229.082 21.5978 229.014 20.9904 229.014 20.2142V9.71903C229.014 8.23418 229.286 7.25552 229.796 6.71558C230.307 6.17563 231.225 5.90565 232.551 5.90565H248.362C249.688 5.90565 250.607 6.17563 251.117 6.71558C251.627 7.25552 251.899 8.26793 251.899 9.71903V20.2142Z" fill="#4B689B"/>
<path d="M279.168 17.3789H290.457V21.1923C290.457 22.1035 290.151 22.8121 289.505 23.2846C288.859 23.757 287.703 23.9933 286.037 23.9933H272.367C271.653 23.9933 271.109 23.9595 270.633 23.8583C270.191 23.757 269.817 23.5546 269.545 23.2171C269.273 22.8796 269.069 22.4072 268.967 21.7997C268.865 21.1923 268.797 20.3824 268.797 19.3362V9.71847C268.797 8.23362 269.035 7.25496 269.545 6.71502C270.055 6.20882 270.973 5.93885 272.333 5.93885H288.519C289.675 5.93885 290.559 6.17507 291.103 6.64752C291.647 7.11997 292.089 7.65992 292.361 8.23361L296 4.42026C296 4.42026 294.027 0.0332031 289.641 0.0332031H272.299C270.429 0.0332031 268.899 0.201936 267.675 0.539402C266.451 0.876867 265.498 1.4168 264.818 2.19297C264.104 2.96914 263.628 3.9478 263.356 5.19642C263.084 6.4113 262.948 7.9299 262.948 9.71847V20.2136C262.948 22.1035 263.084 23.6558 263.356 24.8707C263.628 26.0855 264.138 27.0979 264.818 27.8404C265.532 28.5828 266.485 29.1227 267.675 29.4265C268.899 29.7302 270.429 29.8652 272.299 29.8652C272.299 29.8652 283.18 29.8652 286.003 29.8652C289.573 29.8652 290.423 28.2453 290.423 28.2453V29.8652H295.966V12.5194H279.168V17.3789Z" fill="#4B689B"/>
</svg>
