<svg width="173" height="140" viewBox="0 0 173 140" fill="none" xmlns="http://www.w3.org/2000/svg">
<path d="M117.241 44.8486L98.1722 51.0754L81.5823 58.3973L76.9411 59.6226C75.759 60.747 74.5196 61.8857 73.1792 63.0388C71.709 64.3071 70.3397 65.4603 69.2874 66.2962C68.12 67.2187 66.3903 68.9483 65.5112 70.0435C64.1995 71.6866 63.1617 73.4306 62.7149 74.7712C61.9221 77.1928 62.3114 79.643 63.8392 81.9061C65.7994 84.7887 69.7056 87.7289 74.2601 89.7324C76.5808 90.756 80.4868 92.0675 83.4271 92.8025C88.3131 94.0421 97.7685 95.3826 102.972 95.5845C104.024 95.6277 105.436 95.6277 105.494 95.5845C105.609 95.5122 106.416 93.9701 107.354 92.0533C110.553 85.5238 112.859 79.398 114.113 74.166C114.863 70.9952 115.454 66.7719 115.843 61.7706C115.944 60.3724 115.987 55.688 115.9 54.1024C115.771 51.5081 115.54 49.4038 115.18 47.3426C115.122 47.0399 115.108 46.766 115.137 46.7516C115.194 46.7084 115.367 46.6508 117.716 45.9732L117.241 44.8491V44.8488H117.241V44.8486ZM112.888 47.4C113.061 47.4 113.522 51.8248 113.638 54.6213C113.667 55.2121 113.652 55.6013 113.623 55.6013C113.508 55.6013 111.187 54.2322 109.53 53.1944C108.089 52.2863 105.35 50.4701 104.918 50.1242C104.773 50.0234 104.788 50.0091 105.97 49.6053C107.973 48.9278 112.73 47.4 112.888 47.4ZM103.174 50.5999C103.303 50.5999 103.635 50.787 104.428 51.2772C107.397 53.1365 111.433 55.3852 113.162 56.1348C113.695 56.3653 113.753 56.2787 112.528 57.1149C109.905 58.9021 106.633 60.6604 102.626 62.4333C101.92 62.7505 101.329 62.9954 101.314 62.9954C101.286 62.9954 101.372 62.6353 101.487 62.2028C102.453 58.6135 103.001 54.9814 103.03 52.0699C103.044 50.6285 103.044 50.6285 103.174 50.5854C103.145 50.5999 103.159 50.5999 103.174 50.5999ZM101.17 51.3637C101.256 51.45 101.199 54.6788 101.084 55.558C100.824 57.6624 100.421 59.6226 99.7578 61.828C99.5992 62.361 99.4548 62.8081 99.4263 62.8368C99.3684 62.9088 97.3937 60.9774 96.7451 60.2279C95.6208 58.9307 94.7418 57.6334 94.0932 56.3651C93.7616 55.7165 93.2429 54.4483 93.286 54.4049C93.5166 54.2464 101.113 51.3061 101.17 51.3637ZM91.7437 55.0679C91.758 55.0679 91.7724 55.0679 91.787 55.0823C91.8157 55.1111 91.9168 55.3418 92.0033 55.6012C92.4643 56.8552 93.5019 58.7001 94.3958 59.882C95.376 61.1793 96.6589 62.5629 97.7252 63.471C98.0713 63.7592 98.3882 64.033 98.4313 64.0763C98.518 64.1629 98.5468 64.1483 96.1973 65.0421C93.4734 66.0798 90.5041 67.1175 87.1024 68.2129C86.2898 68.4749 85.478 68.7392 84.6669 69.0057C84.5369 69.049 84.5803 68.9769 84.955 68.386C86.6413 65.7483 89.2068 60.5739 90.6483 56.9128C90.8934 56.2786 91.1383 55.6445 91.1817 55.5003C91.2394 55.2984 91.3113 55.2264 91.4986 55.1255C91.5995 55.0969 91.7005 55.0679 91.7437 55.0679ZM88.8612 56.2642C88.9044 56.2932 88.1692 57.8353 87.4486 59.2478C86.0504 61.9719 84.5226 64.653 82.4759 67.9104C82.13 68.4725 81.7986 68.9915 81.7553 69.0491C81.6833 69.1501 81.6543 69.1211 81.4237 68.6744C80.9337 67.7086 80.53 66.469 80.3138 65.3303C80.0975 64.2059 80.1409 62.2458 80.386 61.0352C80.5732 60.1416 80.559 60.156 80.9913 59.9397C82.8362 59.0029 88.8035 56.2066 88.8612 56.2642ZM113.724 57.2733V57.8786C113.724 61.0929 113.378 65.5033 112.874 68.7177C112.787 69.2797 112.715 69.7408 112.701 69.7554C112.701 69.7554 112.283 69.6403 111.793 69.4959C109.631 68.8184 107.281 67.8239 105.163 66.6566C103.764 65.8926 101.732 64.6385 101.79 64.5808C101.804 64.5665 102.41 64.2494 103.116 63.8746C105.941 62.4045 108.651 60.819 111 59.248C111.879 58.657 113.205 57.7058 113.494 57.4463L113.724 57.2733ZM77.9788 61.5394C78.0364 61.5394 78.022 61.6548 77.9355 62.1737C77.8778 62.5485 77.8059 63.2404 77.7772 63.7158C77.6616 65.8203 78.0078 67.377 79.0455 69.5101C79.3338 70.1011 79.5645 70.5912 79.5499 70.6055C79.449 70.6921 69.9074 73.4884 66.9092 74.3099C66.0157 74.5548 65.2375 74.7711 65.1795 74.7853C65.0788 74.8143 65.0643 74.7999 65.1075 74.5547C65.439 72.4361 67.0534 69.6686 69.3018 67.3336C70.8009 65.777 71.9973 64.869 74.0439 63.7013C75.5141 62.8655 77.777 61.6117 77.95 61.5539C77.9501 61.5394 77.9644 61.5394 77.9788 61.5394ZM100.464 65.5608C100.478 65.5465 100.824 65.734 101.242 65.9789C104.327 67.7662 108.622 69.4238 112.283 70.2741L112.614 70.3463L112.153 70.6055C110.236 71.6722 103.937 74.2953 97.4948 76.7025C96.5577 77.0483 95.6354 77.3944 95.4622 77.4664C95.2892 77.5384 95.1306 77.5817 95.1306 77.5673C95.1306 77.5527 95.3902 77.0483 95.7215 76.4286C97.5232 73.0559 99.3395 68.9481 100.262 66.0942C100.377 65.8203 100.449 65.5754 100.464 65.5608ZM98.1722 66.3104C98.1868 66.3251 98.0714 66.6276 97.9271 66.9734C96.6732 70.0147 95.0299 73.33 92.9256 77.0486C92.3924 78 91.9455 78.7639 91.9309 78.7639C91.9167 78.7639 91.4842 78.5043 90.9653 78.1873C87.9095 76.3135 85.1999 74.0073 83.4272 71.7732L83.1676 71.4561L84.4791 71.0957C89.178 69.8131 93.1703 68.4294 97.1342 66.7286C97.6965 66.4979 98.1578 66.3104 98.1722 66.3104ZM112.413 71.2831C112.413 71.2831 112.427 71.2975 112.413 71.2831C112.427 71.6146 111.692 74.5839 111.087 76.7313C110.582 78.533 110.149 79.9456 109.357 82.439C109.011 83.5346 108.709 84.4424 108.694 84.4424C108.68 84.4424 108.593 84.4281 108.507 84.3994C104.226 83.6209 100.392 82.5399 96.7885 81.0987C95.7794 80.695 94.3381 80.0463 94.2517 79.9743C94.223 79.9452 95.0878 79.5419 96.1832 79.0662C102.741 76.1979 109.544 72.9404 111.879 71.5425C112.153 71.3695 112.369 71.2831 112.413 71.2831ZM79.5356 72.4074C79.5644 72.4362 77.7339 75.0739 75.1682 78.6628C74.2746 79.9168 73.2369 81.3869 72.8478 81.9346C72.4585 82.4824 71.8677 83.3472 71.5361 83.8661L70.9305 84.803L70.2818 84.2553C69.5179 83.621 68.192 82.2662 67.6011 81.5167C66.3614 79.9746 65.5256 78.3459 65.1941 76.8614C65.0355 76.1694 65.0355 75.8233 65.1794 75.7803C65.3956 75.7227 69.244 74.8146 72.8476 73.9784C74.8511 73.5174 77.1715 72.9697 78.0075 72.7679C78.8436 72.5658 79.5212 72.4074 79.5356 72.4074ZM81.3804 73.1137L81.8415 73.6325C83.9173 75.9531 86.036 77.6686 88.6016 79.1673C89.0629 79.4269 89.4088 79.6574 89.3798 79.672C89.2792 79.744 80.4723 82.8715 76.3933 84.2841C74.1017 85.0911 72.2134 85.7397 72.1992 85.7397C72.1848 85.7397 72.055 85.6534 71.9107 85.5524L71.6514 85.365L72.0693 84.7598C73.4241 82.7995 75.1252 80.652 78.8294 76.1838L81.3804 73.1137ZM92.8825 81.3437C92.8967 81.3294 93.5309 81.5598 94.3092 81.8484C96.1832 82.5545 97.6675 83.0013 99.6568 83.5058C102.107 84.1257 105.653 84.731 107.743 84.9039C108.06 84.9326 108.233 84.9616 108.175 85.0049C108.074 85.0626 105.956 85.7688 104.399 86.2589C101.92 87.0371 94.3526 89.2711 88.1837 91.0441C87.045 91.3756 86.0648 91.6495 86.0072 91.6638C85.8632 91.6928 85.3874 91.5628 85.3874 91.5052C85.3874 91.4765 85.7333 91.0298 86.1513 90.5396C88.2267 88.0605 90.288 85.2931 92.0033 82.6699C92.4788 81.949 92.8825 81.3581 92.8825 81.3437ZM90.3455 81.4159C90.3599 81.4303 89.3366 83.0733 87.5496 85.8983C86.7855 87.0946 85.9351 88.4495 85.6323 88.9252C85.344 89.3864 84.9117 90.1072 84.6667 90.5107L84.2487 91.2458L84.0325 91.1881C83.5135 91.044 79.867 89.7611 78.9012 89.372C77.7048 88.8963 76.4653 88.3199 75.5428 87.8298C74.3898 87.21 72.9486 86.2874 73.0638 86.2588C73.0926 86.2444 75.0673 85.7109 77.4453 85.0624C83.7586 83.347 87.2609 82.3526 89.5529 81.632C89.9709 81.5023 90.3312 81.4013 90.3455 81.4159ZM108.29 85.6244H108.305C108.362 85.7687 106.028 92.2547 105.177 94.3013C104.99 94.7626 104.918 94.8781 104.817 94.8634C104.572 94.8492 101.185 94.3735 99.1233 94.0708C95.5345 93.5231 89.5096 92.4707 87.9963 92.125L87.6504 92.053L89.7977 91.5626C94.4102 90.5249 96.6298 89.9628 98.8782 89.271C101.718 88.4062 104.529 87.3251 107.368 85.9992C107.815 85.7974 108.189 85.6388 108.29 85.6244Z" fill="#4B689B"/>
<path d="M97.5807 0.397223C97.2636 0.354219 92.1466 2.19912 88.846 3.5394C84.3922 5.35572 80.9331 7.08543 78.7998 8.58411C78.0072 9.14648 77.0125 10.1409 76.8542 10.53C76.7966 10.6741 76.7676 10.8471 76.7676 11.02L78.6991 12.8506L83.2969 14.3207L94.2368 16.281L106.748 18.4287L106.877 17.3477C106.834 17.3477 106.805 17.3333 106.762 17.3333L105.119 17.0737L104.788 16.4829C103.087 13.4848 101.213 9.76607 100.118 7.25811C99.2673 5.31225 98.46 3.06397 98.0131 1.44958C97.768 0.469471 97.7393 0.411845 97.581 0.397488V0.397156H97.5807V0.397223ZM97.3498 1.13254H97.3646C97.3788 1.14676 97.4365 1.55061 97.4942 2.02597C97.739 4.04415 98.1862 5.98967 98.8923 8.09412C99.4255 9.67967 99.4255 9.59326 98.8059 9.40576C97.3357 9.00231 90.7488 7.86362 85.9779 7.20062C85.2139 7.09966 84.5653 6.99883 84.5653 6.98447C84.5077 6.92684 88.01 5.09617 89.5523 4.37568C91.527 3.46742 96.9464 1.20452 97.3498 1.13254ZM83.4553 7.58971L84.0176 7.77688C87.0731 8.81481 94.7553 10.285 98.9931 10.6309C99.4686 10.6742 99.8724 10.7175 99.8865 10.7175C99.9009 10.7319 99.4976 10.9481 98.9785 11.193C96.932 12.2164 94.6834 13.4704 93.1267 14.4362C92.6657 14.7243 92.2475 14.9551 92.19 14.9551C92.1323 14.9551 91.8297 14.8974 91.5126 14.8541L90.9361 14.7675L89.4949 13.3549C86.9581 10.8903 84.969 8.98782 84.205 8.267L83.4553 7.58971ZM82.8789 8.03643L84.9112 10.5733C86.0209 11.9714 87.1452 13.3406 87.3904 13.6432C87.6352 13.9461 87.8372 14.1912 87.8228 14.2055C87.7651 14.2487 84.8826 13.6865 83.3546 13.3407C81.7835 12.9803 81.1349 12.8074 80.1692 12.5048L79.3764 12.2453V12.0433C79.3908 11.0776 80.6161 9.63633 82.6916 8.1663L82.8789 8.03643ZM100.146 11.4957C100.204 11.4957 100.276 11.6254 100.449 12.0146C100.939 13.0955 102.467 16.0072 102.841 16.5692C102.957 16.7568 103.158 16.7711 101.126 16.4396C96.2403 15.6467 94.6691 15.3875 94.6691 15.3587C94.6691 15.3443 94.8132 15.2433 95.0006 15.1424C96.5141 14.3066 98.0418 13.2399 99.3968 12.1012C99.7283 11.8273 100.031 11.5678 100.089 11.5245C100.103 11.4957 100.132 11.4814 100.146 11.4957Z" fill="#4B689B"/>
<path d="M76.9553 10.3281C76.9553 10.3281 76.6384 10.8328 76.941 11.5823C77.1286 12.0434 77.6762 12.6055 78.2959 13.1821C78.2959 13.1821 84.7098 19.4375 85.4882 20.3313C89.0338 24.4246 90.5761 28.4604 90.7203 34.0241C90.8068 37.5986 90.1291 40.7407 88.4429 44.3874C85.4449 50.9312 79.1173 58.1524 69.3594 66.1663L70.7865 65.6906C71.7089 64.9986 72.963 64.2638 75.9032 62.6494C82.6919 58.9305 90.3311 55.5145 99.6999 51.9977C113.191 46.924 135.373 40.9855 147.999 39.0543L149.311 38.8524L149.109 38.5353C147.956 36.748 147.163 35.6383 146.212 34.4564C143.445 31.0259 140.087 28.2442 135.978 25.938C130.328 22.7816 123.021 20.3169 113.767 18.4864C112.023 18.1403 108.189 17.4773 105.076 17.0017C98.4745 15.9786 94.2082 15.2722 89.5095 14.465C87.8232 14.1766 85.3006 13.7443 83.6287 13.3841C82.7639 13.1965 81.1065 12.8074 79.8093 12.3607C78.7716 11.9569 77.2724 11.5533 76.9553 10.3281ZM80.6742 13.9316C80.6884 13.9174 80.919 14.0036 81.2219 14.1046C81.7696 14.2918 82.4758 14.508 83.312 14.7388C83.9446 14.9128 84.5788 15.081 85.2145 15.2432C86.0793 15.4593 86.7999 15.6612 86.8142 15.6612C86.9153 15.7621 88.3711 20.4173 88.8612 22.2047C89.0483 22.8823 89.1927 23.4587 89.1783 23.4587C89.1635 23.4733 89.0051 23.2281 88.8178 22.8967C87.1314 19.9274 84.4649 16.915 81.3804 14.4935C80.977 14.2055 80.6742 13.946 80.6742 13.9316ZM87.7656 15.8919C87.8377 15.8919 88.1548 15.9351 88.5438 16.0215C90.9941 16.5692 95.3903 17.4052 98.2008 17.8809C98.6765 17.9529 99.0514 18.0396 99.0514 18.0682C99.0514 18.0972 98.8783 18.1979 98.662 18.3134C98.1866 18.5583 96.2694 19.6968 95.6354 20.1293C94.0354 21.1959 92.5942 22.349 91.5563 23.3867C91.1384 23.8048 90.7779 24.1507 90.7779 24.1507C90.7779 24.1507 90.6916 23.9057 90.6193 23.6029C90.1007 21.5994 89.0195 18.6301 88.0394 16.5403C87.8808 16.2089 87.751 15.9062 87.751 15.8774C87.751 15.9062 87.751 15.8919 87.7656 15.8919ZM100.248 18.2701C100.334 18.2988 100.478 18.7889 100.766 19.8699C101.3 21.9599 101.545 24.2949 101.458 26.4713C101.429 27.0767 101.401 27.6387 101.372 27.711L101.329 27.8549L100.579 27.61C99.0369 27.12 96.529 26.3847 94.3815 25.7795C93.1561 25.4479 92.1619 25.1453 92.1619 25.1165C92.1619 25.0299 93.9492 23.2427 94.713 22.5653C96.1685 21.2823 100.118 18.2267 100.248 18.2701ZM101.242 18.414C101.285 18.371 107.209 19.3942 109.905 19.9131C111.908 20.3022 114.82 20.9077 114.993 20.9798C115.079 21.0086 114.776 21.1815 113.811 21.6139C110.006 23.3292 107.18 24.8712 104.37 26.7452C103.635 27.2352 103.015 27.6387 103.001 27.6387C102.986 27.6387 102.972 27.2209 102.972 26.7163C102.972 23.9779 102.424 21.2104 101.415 18.8755C101.314 18.6448 101.228 18.4287 101.242 18.414ZM116.564 21.441C116.607 21.4842 116.419 22.6519 116.246 23.3436C115.728 25.4912 114.33 28.6768 112.615 31.6746C112.312 32.2079 112.038 32.6404 112.009 32.6547C111.98 32.6691 111.591 32.4528 111.144 32.1934C109.472 31.2133 107.57 30.2909 105.494 29.4259C104.918 29.181 104.413 28.9791 104.399 28.9505C104.298 28.8639 108.939 25.7938 111.389 24.3237C113.335 23.1418 116.506 21.3833 116.564 21.441ZM117.659 21.6139C117.789 21.6139 120.412 22.3347 121.781 22.7383C125.168 23.7473 129.06 25.1741 131.597 26.3272L132.649 26.803L131.914 26.9758C125.716 28.4026 120.412 30.046 115.295 32.1215C114.877 32.2944 114.502 32.4386 114.474 32.4386C114.445 32.4386 114.589 32.1071 114.776 31.7034C116.319 28.4316 117.313 25.0156 117.558 22.1039C117.573 21.83 117.616 21.6139 117.659 21.6139ZM91.5419 27.61C91.5851 27.5667 93.5886 28.0425 94.6696 28.3449C96.3127 28.8063 99.8007 29.9736 99.8007 30.0602C99.8007 30.0746 99.4116 30.4061 98.9506 30.8098C97.0624 32.3809 95.2462 34.0382 93.0696 36.1427C92.421 36.7627 91.8734 37.2671 91.8447 37.2671C91.8157 37.2671 91.8016 37.1804 91.8157 37.0651C92.1472 34.6436 92.0753 31.5304 91.6141 28.3738C91.5707 27.9701 91.5275 27.6244 91.5419 27.61ZM133.644 27.6534C133.672 27.682 132.721 29.181 132.116 30.0313C131.251 31.2708 129.982 32.9143 127.114 36.5176C125.601 38.42 123.9 40.5678 123.338 41.2884C122.761 42.009 122.286 42.6143 122.271 42.6143C122.257 42.6143 122.07 42.355 121.868 42.0379C120.253 39.6164 118.322 37.4976 116.03 35.5951C115.598 35.2346 115.122 34.8454 114.964 34.7301C114.805 34.6149 114.675 34.4996 114.675 34.4852C114.675 34.4421 117.125 33.3896 118.985 32.6403C122.243 31.3142 126.681 29.7288 130.011 28.7053C131.755 28.1577 133.615 27.6244 133.644 27.6534ZM134.753 27.9414C134.811 27.9271 135.157 28.1001 135.575 28.3449C139.078 30.3484 142.508 32.9285 145.218 35.5806C145.982 36.3302 147.87 38.2904 147.841 38.3048C147.841 38.3048 147.178 38.3624 146.4 38.42C140.331 38.8814 132.563 40.164 125.096 41.9656C124.592 42.0808 124.145 42.1818 124.116 42.1818C124.088 42.1818 124.65 41.6197 125.356 40.9424C129.738 36.7193 131.741 34.0528 134.105 29.2962C134.436 28.5901 134.725 27.9848 134.753 27.9414C134.739 27.9414 134.739 27.9414 134.753 27.9414ZM102.655 31.2279C102.857 31.2709 104.73 32.1504 106.143 32.8565C107.44 33.5049 109.386 34.5429 109.487 34.6292C109.501 34.6436 108.809 35.004 107.959 35.422C105.249 36.7769 102.929 38.0595 100.507 39.5298C99.8152 39.9478 99.2387 40.2939 99.2243 40.2939C99.1667 40.2939 99.181 40.236 99.5702 39.5298C100.868 37.1662 101.905 34.3411 102.496 31.588C102.554 31.3719 102.611 31.2279 102.655 31.2279ZM100.781 31.5737C100.824 31.617 100.334 33.3897 100.032 34.3555C99.4404 36.186 98.4459 38.4777 97.4803 40.2073C97.2494 40.6107 96.9036 41.2017 96.7163 41.5332L96.356 42.1097L95.5488 41.3316C94.6121 40.4235 93.848 39.8614 92.8681 39.3568C92.4786 39.1552 92.1761 38.982 92.1761 38.9534C92.1761 38.8381 94.6408 36.604 96.529 34.9897C97.8837 33.8221 100.738 31.5305 100.781 31.5737ZM112.24 36.287L112.946 36.748C114.56 37.8004 116.463 39.1984 117.919 40.4235C118.74 41.1008 120.325 42.5279 120.643 42.8738L120.815 43.0614L119.648 43.3928C113.047 45.2231 107.944 46.8519 101.992 49.0429C101.329 49.2878 100.766 49.4896 100.723 49.4896C100.637 49.4896 100.565 49.5616 102.049 48.1922C105.855 44.6901 109.227 40.827 111.735 37.0651L112.24 36.287ZM109.227 37.0364C109.256 37.0651 107.281 39.8469 106.099 41.418C104.687 43.2918 102.179 46.4339 100.449 48.4804C99.7288 49.331 99.1092 50.0372 99.0802 50.0517C99.0369 50.066 99.0225 49.8499 99.0225 49.5184C99.0225 47.7742 98.5758 45.9148 97.7973 44.3295C97.4658 43.6665 97.4081 43.5079 97.4804 43.4359C97.7542 43.1908 101.948 40.7981 104.6 39.3713C106.388 38.4201 109.184 37.0076 109.227 37.0364ZM91.0085 41.5046C91.0518 41.5046 91.3834 41.6774 91.7582 41.8793C92.6806 42.3838 93.5022 42.9459 94.2372 43.5514C94.2659 43.5801 93.8913 43.8829 93.4013 44.243C92.0319 45.2231 89.9565 46.7943 88.7459 47.7601C87.4772 48.769 87.4343 48.7978 87.5782 48.5816C88.5296 47.1258 89.0051 46.3043 89.5097 45.2522C89.9565 44.3154 90.4032 43.2055 90.7203 42.2397C90.8355 41.8217 90.9798 41.5046 91.0085 41.5046ZM95.866 45.3097C95.9379 45.2954 96.0246 45.425 96.4136 46.0016C97.2352 47.2265 97.8694 48.8699 98.0282 50.1959L98.0567 50.4843L96.0823 51.2483C92.5508 52.6174 89.2935 53.9724 87.088 54.9811C86.4684 55.2695 85.3873 55.7883 84.6812 56.1344C83.9749 56.4946 83.3983 56.7685 83.3983 56.7541C83.3983 56.7398 83.845 56.4082 84.3927 56.0045C88.7026 52.8769 92.4356 49.4464 95.2317 46.0161C95.5345 45.6556 95.8085 45.3241 95.837 45.3097L95.866 45.3097ZM93.632 45.8575C93.6897 45.9151 92.0466 47.7744 90.9223 48.913C88.1405 51.7526 85.3875 53.9724 81.9714 56.1344C81.539 56.4082 81.1499 56.6531 81.1066 56.6821C81.0056 56.7398 81.1353 56.5955 82.6344 54.9668C83.5858 53.9434 84.3063 53.0786 85.1279 52.0122C85.6756 51.306 85.7765 51.2051 86.5694 50.6427C88.6882 49.1148 93.5743 45.7997 93.632 45.8575Z" fill="#4B689B"/>
<path d="M31.2172 105.54C30.9514 105.54 30.6854 105.565 30.4218 105.565C25.0514 105.851 21.4293 108.214 19.3115 112.83C17.5002 117.004 17.698 122.461 19.3318 126.661C21.2318 130.764 24.3018 132.93 29.4263 133.748C30.5105 133.926 31.2375 134.521 33.3375 136.973L35.9214 140H40.6076L37.4915 136.859C35.769 135.136 34.3758 133.637 34.3758 133.505C34.3758 133.373 35.0348 133.084 35.8323 132.841C38.4618 132.046 40.6453 130.014 42.1728 126.901C43.409 124.401 43.5864 123.628 43.7636 120.518C44.2273 111.259 39.3458 105.471 31.217 105.537L31.2172 105.54ZM35.3258 129.751C33.046 130.855 29.7356 131.076 27.5747 130.283C25.3404 129.462 23.1772 127.142 22.2042 124.515C21.1227 121.643 21.2771 116.343 22.5133 113.957C24.5018 110.157 27.1314 108.41 30.974 108.41C36.6735 108.41 39.9159 111.9 40.339 118.461C40.6734 123.938 38.8393 128.046 35.3283 129.749L35.3258 129.751ZM116.279 113.448C114.314 113.448 112.809 114.244 111.796 115.811L111 117.052V113.825H107.598V133.178H110.998V126.992C110.998 121.336 111.069 120.675 111.859 119.127C112.948 117.004 114.823 115.946 116.634 116.452L117.85 116.807V113.453H116.279V113.448ZM96.2932 113.27C95.6268 113.27 94.9199 113.359 94.2161 113.514C89.6639 114.704 87.0979 119.061 87.2549 123.545C87.2549 127.299 87.9842 129.176 89.7957 131.144C93.5069 134.189 96.8631 134.432 101.392 132.799C102.165 132.469 103.006 132.089 103.006 132.089V129.045L101.392 129.88C97.7268 131.476 94.9657 131.476 92.7541 129.597C91.3435 128.16 90.7226 126.438 90.4366 124.472H104.153V121.863C104.153 116.543 100.952 113.184 96.2904 113.27H96.2932ZM90.7455 121.757C90.7455 121.757 91.2523 118.438 93.1318 117.136C94.0364 116.498 95.0747 116.189 96.0904 116.189C97.1089 116.189 98.1246 116.518 98.963 117.159C100.686 118.484 100.974 121.731 100.974 121.731H90.7457V121.757H90.7455ZM8.73056 118.266C5.04245 116.032 3.40604 114.42 3.60613 112.521C4.17851 107.264 10.6736 107.992 14.2705 109.98L14.2961 106.444C14.2961 106.444 12.3075 105.583 9.4576 105.537C5.08544 105.471 2.25847 106.905 0.933826 109.823C-1.01179 114.129 0.710949 117.377 6.9375 120.999C10.4331 123.033 11.9782 124.799 11.9782 126.724C11.9782 130.701 7.18303 132.089 2.23593 129.594C1.2178 129.087 0.356425 128.664 0.310868 128.664C0.13343 129.792 0.224894 132.489 0.224894 132.489C0.224894 132.489 1.74485 133.128 4.02444 133.568C9.67814 134.695 14.8231 132.043 15.3094 127.737C15.7325 123.694 14.2706 121.574 8.73079 118.263L8.73056 118.266ZM146.388 113.225C145.724 113.225 145.02 113.316 144.285 113.471C139.739 114.661 137.177 119.018 137.352 123.502C137.352 127.251 138.079 129.11 139.89 131.076C143.602 134.123 146.958 134.369 151.51 132.733C152.28 132.404 153.119 132.029 153.119 132.029V128.979L151.508 129.82C147.835 131.411 145.073 131.411 142.87 129.531C141.451 128.097 140.836 126.395 140.549 124.406H154.243V121.797C154.243 116.503 151.041 113.142 146.38 113.23L146.388 113.225ZM140.84 121.711C140.84 121.711 141.352 118.398 143.229 117.07C144.131 116.429 145.17 116.12 146.185 116.12C147.199 116.12 148.219 116.45 149.058 117.093C150.781 118.418 151.07 121.688 151.07 121.688H140.843L140.84 121.711ZM78.4852 118.309C74.7971 116.08 73.1656 114.464 73.3632 112.564C73.9356 107.305 80.4308 108.034 84.0277 110.023L84.0532 106.487C84.0532 106.487 82.0645 105.626 79.2147 105.585C74.8425 105.519 72.0156 106.953 70.6885 109.871C68.7455 114.177 70.4908 117.425 76.6969 121.047C80.1877 123.079 81.7328 124.822 81.7328 126.747C81.7328 130.724 76.9401 132.135 71.9929 129.617C70.9797 129.11 70.1185 128.692 70.0678 128.692C69.8904 129.819 69.9819 132.517 69.9819 132.517C69.9819 132.517 71.4838 133.133 73.7561 133.596C79.415 134.726 84.5623 132.076 85.0463 127.77C85.4668 123.747 84.0077 121.627 78.4853 118.314V118.309H78.4852ZM166.377 113.402C164.411 113.402 162.889 114.2 161.893 115.768L161.098 117.004V113.782H157.696V133.13H161.095V126.945C161.095 121.291 161.164 120.627 161.957 119.082C163.046 116.962 164.92 115.9 166.732 116.409L167.947 116.764V113.402H166.377V113.402ZM51.4315 118.197V105.871H48.0018V133.173H62.4255V129.949H51.4317V118.197H51.4315ZM130.749 122.04L127.922 129.396L125.203 122L122.442 113.803H118.932C121.206 120.252 123.681 126.813 126.176 133.173C127.258 133.199 128.342 133.173 129.424 133.173L133.241 123.588L137.129 113.805H133.773C133.773 113.805 132.291 117.691 130.746 122.043L130.749 122.04ZM59.3348 98.4314C59.8871 98.4314 60.348 98.2543 60.728 97.8743C61.1028 97.4992 61.3004 97.0585 61.3004 96.5063C61.3004 95.954 61.1028 95.493 60.728 95.1383C60.348 94.7838 59.9097 94.6063 59.36 94.6063C58.803 94.6063 58.3418 94.7838 57.9668 95.1585C57.5869 95.5336 57.4146 95.9947 57.4146 96.5266C57.4146 97.084 57.5921 97.5448 57.9668 97.8946C58.3216 98.249 58.7826 98.4265 59.3348 98.4265V98.4314ZM58.119 95.2904C58.4482 94.9612 58.8485 94.809 59.3601 94.809C59.8415 94.809 60.2418 94.9612 60.5763 95.2904C60.9056 95.6197 61.0829 96.0199 61.0829 96.5063C61.0829 96.9926 60.9056 97.4133 60.5763 97.7424C60.242 98.0715 59.8415 98.2287 59.3601 98.2287C58.8713 98.2287 58.4735 98.0767 58.1444 97.7424C57.8151 97.4133 57.6378 96.9926 57.6378 96.5063C57.6378 96.0199 57.7897 95.6198 58.119 95.2904ZM58.9371 96.6838H59.1599C59.3172 96.6838 59.4716 96.8356 59.6032 97.1245L59.8694 97.7221H60.2873L59.9581 97.0583C59.8239 96.7925 59.6922 96.638 59.5376 96.5946C59.7327 96.5491 59.8871 96.4833 59.9986 96.3514C60.1098 96.2377 60.1505 96.083 60.1505 95.9081C60.1505 95.7056 60.0872 95.5537 59.9531 95.4422C59.801 95.3155 59.5578 95.2472 59.2436 95.2472H58.5397V97.7221H58.8942V96.6835L58.9371 96.6838ZM58.9371 95.5336H59.2463C59.4691 95.5336 59.6262 95.5792 59.7123 95.6449C59.796 95.7108 59.8188 95.7972 59.8188 95.954C59.8188 96.2402 59.6412 96.3747 59.3121 96.3747H58.9323V95.5336H58.9371ZM2.28114 96.4632C2.28114 95.602 2.2559 94.9612 2.23558 94.5837H2.2559C2.34445 95.0292 2.45343 95.3613 2.54209 95.5816L5.83502 102.938H6.38731L9.68024 95.5159C9.76913 95.3134 9.85779 95.0093 9.96666 94.5862H9.99189C9.92613 95.3209 9.90335 95.9592 9.90335 96.4682V102.961H11.0304V93.3095H9.61693L6.58998 100.022C6.47842 100.288 6.32388 100.686 6.12635 101.213H6.08056C6.0148 100.952 5.86026 100.554 5.63995 100.068L2.6811 93.2865H1.17913V102.938H2.26326V96.468L2.28114 96.4632ZM13.5003 96.4812H14.4733V102.492H13.5003V96.4812ZM13.9867 94.2772C14.1895 94.2772 14.3617 94.2086 14.4934 94.0746C14.6277 93.9428 14.7165 93.7706 14.7165 93.568C14.7165 93.3704 14.6505 93.193 14.496 93.0614C14.3593 92.9271 14.1844 92.8585 13.9843 92.8585C13.7869 92.8585 13.6096 92.9271 13.4776 93.0614C13.3437 93.193 13.2548 93.3704 13.2548 93.568C13.2548 93.7885 13.3233 93.9428 13.4776 94.0746C13.6299 94.2086 13.7868 94.2772 13.9843 94.2772H13.9867ZM21.409 102.624V101.565C20.8769 101.963 20.3044 102.16 19.7117 102.16C19.0027 102.16 18.4274 101.917 18.0068 101.451C17.589 100.99 17.3661 100.349 17.3661 99.5514C17.3661 98.7155 17.589 98.0515 18.0499 97.5449C18.4932 97.0586 19.0684 96.8154 19.7727 96.8154C20.3476 96.8154 20.8996 96.993 21.4091 97.3477V96.2205C20.9456 95.9773 20.4162 95.8657 19.8182 95.8657C18.7137 95.8657 17.8526 96.2205 17.2092 96.9047C16.5707 97.5885 16.2415 98.5182 16.2415 99.6404C16.2415 100.638 16.5276 101.477 17.1231 102.118C17.7437 102.776 18.5368 103.111 19.5094 103.111C20.2614 103.09 20.8769 102.933 21.409 102.624ZM24.1927 99.4195C24.1927 98.6266 24.3701 97.9859 24.6993 97.5448C25.0085 97.1473 25.3833 96.9472 25.8266 96.9472C26.2015 96.9472 26.4674 97.0155 26.6624 97.17V96.0199C26.5105 95.9541 26.2901 95.9314 26.0039 95.9314C25.6062 95.9314 25.2517 96.0652 24.9401 96.3114C24.6108 96.572 24.3474 96.9699 24.1928 97.4766H24.1676V96.0655H23.0657V102.956H24.1701V99.4195H24.1927ZM30.5332 103.092C31.5719 103.092 32.4078 102.758 33.0283 102.094C33.6462 101.436 33.9553 100.549 33.9553 99.4445C33.9553 98.3176 33.6718 97.4562 33.0942 96.8151C32.5218 96.1746 31.7262 95.8651 30.6875 95.8651C29.6488 95.8651 28.8129 96.1743 28.1924 96.7721C27.5288 97.431 27.1791 98.3606 27.1791 99.5537C27.1791 100.592 27.4629 101.454 28.0608 102.094C28.6788 102.758 29.497 103.09 30.5332 103.09V103.092ZM28.9626 97.479C29.3832 97.0357 29.9356 96.8152 30.6193 96.8152C31.3288 96.8152 31.8606 97.0357 32.2558 97.479C32.6534 97.9426 32.8512 98.6039 32.8512 99.4878C32.8512 100.329 32.6737 100.99 32.2988 101.433C31.924 101.897 31.3718 102.142 30.642 102.142C29.9329 102.142 29.3832 101.897 28.9626 101.433C28.5448 100.967 28.3446 100.329 28.3446 99.4878C28.3016 98.6519 28.522 97.9681 28.9626 97.479ZM38.7913 102.492C39.2117 102.117 39.4348 101.656 39.4348 101.078C39.4348 100.572 39.2573 100.151 38.9281 99.8196C38.6594 99.5538 38.2443 99.313 37.6439 99.0698C37.1117 98.8471 36.7825 98.6492 36.6051 98.4947C36.4279 98.3175 36.3189 98.0973 36.3189 97.7855C36.3189 97.4993 36.4304 97.2789 36.6484 97.1016C36.8713 96.9245 37.155 96.8384 37.535 96.8384C38.1303 96.8384 38.6393 96.9953 39.1053 97.3273V96.2227C38.6595 96.0001 38.1757 95.8936 37.6234 95.8936C36.9143 95.8936 36.3164 96.0888 35.8754 96.4659C35.4118 96.8411 35.1916 97.3274 35.1916 97.8997C35.1916 98.4063 35.3435 98.8269 35.6321 99.1358C35.8753 99.3993 36.2911 99.668 36.8684 99.9084C37.4208 100.152 37.7956 100.372 37.9956 100.549C38.1931 100.727 38.2818 100.947 38.2818 101.208C38.2818 101.851 37.8412 102.183 36.9798 102.183C36.3161 102.183 35.721 101.965 35.1887 101.525V102.715C35.6701 103.004 36.2477 103.136 36.886 103.136C37.7043 103.093 38.345 102.892 38.7858 102.495L38.7913 102.492ZM44.0501 95.8654C43.0113 95.8654 42.1755 96.1746 41.5548 96.7723C40.8963 97.4312 40.5416 98.3608 40.5416 99.5539C40.5416 100.593 40.828 101.454 41.4232 102.095C42.0438 102.758 42.8594 103.09 43.8981 103.09C44.9619 103.09 45.7727 102.756 46.3932 102.092C47.0138 101.433 47.3228 100.547 47.3228 99.4423C47.3228 98.315 47.034 97.4539 46.4614 96.813C45.8639 96.172 45.0682 95.8629 44.055 95.8629L44.0501 95.8654ZM46.193 99.4879C46.193 100.329 46.0157 100.99 45.6408 101.433C45.2658 101.897 44.7136 102.142 43.984 102.142C43.2744 102.142 42.725 101.897 42.3043 101.433C41.8865 100.967 41.6864 100.329 41.6864 99.4879C41.6864 98.6013 41.9069 97.9175 42.3502 97.4562C42.7679 97.0155 43.3205 96.7925 44.0068 96.7925C44.6907 96.7925 45.2405 97.0153 45.638 97.4562C45.9928 97.9425 46.1904 98.6038 46.1904 99.4879H46.193ZM49.1772 102.935H50.2791V96.9701H51.8926V96.0428H50.2789V94.9789C50.2789 94.0115 50.6537 93.525 51.429 93.525C51.6899 93.525 51.9559 93.5908 52.1535 93.7024V92.707C51.9559 92.6183 51.6899 92.5981 51.3578 92.5981C50.7627 92.5981 50.2764 92.7756 49.8785 93.1503C49.4149 93.591 49.1694 94.1635 49.1694 94.9389V96.0687H48.0038V96.9958H49.1694V102.939L49.1772 102.935ZM53.7036 101.056C53.7036 102.404 54.2992 103.09 55.5149 103.09C55.9558 103.09 56.2875 103.019 56.5535 102.862V101.915C56.351 102.067 56.1102 102.138 55.8443 102.138C55.4696 102.138 55.2061 102.049 55.0514 101.849C54.8943 101.651 54.8058 101.317 54.8058 100.856V96.9675H56.5534V96.0402H54.8058V94.0089C54.4258 94.1405 54.0535 94.2521 53.7012 94.3633V96.0401H52.5106V96.9674H53.7012V101.053L53.7036 101.056ZM172.254 113.757C171.879 113.402 171.436 113.225 170.886 113.225C170.329 113.225 169.868 113.402 169.493 113.782C169.118 114.155 168.94 114.618 168.94 115.15C168.94 115.703 169.118 116.164 169.49 116.518C169.865 116.873 170.326 117.05 170.883 117.05C171.433 117.05 171.896 116.873 172.277 116.498C172.649 116.118 172.846 115.68 172.846 115.13C172.826 114.573 172.626 114.112 172.251 113.757L172.254 113.757ZM172.077 116.366C171.747 116.695 171.347 116.847 170.861 116.847C170.379 116.847 169.979 116.695 169.645 116.366C169.316 116.032 169.138 115.614 169.138 115.125C169.138 114.643 169.29 114.243 169.624 113.909C169.954 113.58 170.352 113.428 170.861 113.428C171.342 113.428 171.742 113.58 172.077 113.909C172.406 114.243 172.583 114.643 172.583 115.125C172.583 115.637 172.431 116.032 172.077 116.366ZM171.083 115.239C171.281 115.193 171.438 115.105 171.547 114.996C171.659 114.882 171.699 114.727 171.699 114.55C171.699 114.352 171.636 114.195 171.502 114.086C171.35 113.96 171.104 113.891 170.793 113.891H170.088V116.363H170.443V115.325H170.663C170.816 115.325 170.968 115.477 171.104 115.766L171.367 116.361H171.788L171.459 115.697C171.345 115.408 171.213 115.276 171.079 115.233L171.083 115.239ZM170.84 115.016H170.46V114.18H170.772C170.992 114.18 171.147 114.221 171.236 114.289C171.324 114.355 171.345 114.441 171.345 114.598C171.345 114.884 171.167 115.016 170.838 115.016L170.84 115.016ZM109.212 95.7566H109.521V93.2817H110.339V92.9726H108.394V93.2817H109.212V95.7566H109.212ZM111.087 93.8973C111.087 93.6565 111.087 93.4589 111.069 93.3477C111.089 93.4793 111.135 93.5682 111.155 93.6339L112.105 95.7566H112.257L113.209 93.6135C113.235 93.5477 113.255 93.4615 113.298 93.3477C113.278 93.5682 113.278 93.745 113.278 93.8796V95.7542H113.607V92.9726H113.209L112.348 94.8928C112.328 94.9614 112.259 95.0953 112.216 95.2476H112.191C112.173 95.1587 112.128 95.0701 112.064 94.9184L111.203 92.9729H110.757V95.7593H111.069V93.9L111.087 93.8973Z" fill="#4B689B"/>
</svg>
