<svg width="238" height="31" viewBox="0 0 238 31" fill="none" xmlns="http://www.w3.org/2000/svg">
<path d="M102.971 20.1521H118.668L110.377 6.73419L95.1333 30.969H88.2017L106.741 1.89342C107.145 1.31322 107.682 0.838535 108.307 0.509123C108.932 0.179711 109.627 0.00516692 110.333 0.000112973C111.039 -0.00494097 111.736 0.159643 112.365 0.480075C112.995 0.800508 113.538 1.26746 113.951 1.84181L132.542 30.969H125.61L122.345 25.5502H106.463L103.002 20.1521M175.028 25.5502V0.293588H169.136V28.0377C169.135 28.4233 169.212 28.805 169.363 29.1598C169.513 29.5147 169.734 29.8352 170.012 30.102C170.291 30.3879 170.624 30.6147 170.992 30.769C171.36 30.9232 171.755 31.0018 172.154 31H198.933L202.425 25.5812H174.997M77.6239 21.0397C80.3692 21.0397 83.0021 19.9469 84.9433 18.0015C86.8845 16.0562 87.9751 13.4178 87.9751 10.6667C87.9751 7.91556 86.8845 5.27712 84.9433 3.33179C83.0021 1.38646 80.3692 0.293588 77.6239 0.293588H51.8747V30.969H57.7558V5.72268H77.2634C78.5773 5.72268 79.8374 6.24574 80.7665 7.17679C81.6956 8.10784 82.2176 9.37061 82.2176 10.6873C82.2176 12.004 81.6956 13.2668 80.7665 14.1978C79.8374 15.1289 78.5773 15.6519 77.2634 15.6519H60.6707L78.2419 30.969H86.7803L74.9769 21.0397H77.6239ZM15.7023 30.969H33.4898C37.479 30.8653 41.2699 29.2044 44.0548 26.3403C46.8396 23.4762 48.3981 19.6354 48.3981 15.6365C48.3981 11.6375 46.8396 7.79674 44.0548 4.93264C41.2699 2.06854 37.479 0.407637 33.4898 0.303909H15.7023C13.6597 0.250795 11.6271 0.608099 9.72443 1.35475C7.82178 2.1014 6.08758 3.22229 4.6241 4.6513C3.16063 6.08031 1.99751 7.78852 1.20333 9.67519C0.409153 11.5619 0 13.5888 0 15.6365C0 17.6841 0.409153 19.7111 1.20333 21.5977C1.99751 23.4844 3.16063 25.1926 4.6241 26.6216C6.08758 28.0506 7.82178 29.1715 9.72443 29.9182C11.6271 30.6648 13.6597 31.0221 15.7023 30.969ZM33.0881 25.5709H16.0937C13.5225 25.4878 11.0844 24.4058 9.29487 22.5537C7.50537 20.7017 6.50483 18.2248 6.50483 15.6468C6.50483 13.0688 7.50537 10.5919 9.29487 8.73983C11.0844 6.88777 13.5225 5.80579 16.0937 5.72268H33.0881C34.4155 5.67978 35.7379 5.90472 36.9768 6.38415C38.2157 6.86357 39.3458 7.58769 40.2999 8.51346C41.254 9.43924 42.0127 10.5478 42.5308 11.7732C43.0489 12.9986 43.3158 14.3159 43.3158 15.6468C43.3158 16.9776 43.0489 18.2949 42.5308 19.5204C42.0127 20.7458 41.254 21.8543 40.2999 22.7801C39.3458 23.7059 38.2157 24.43 36.9768 24.9094C35.7379 25.3888 34.4155 25.6138 33.0881 25.5709ZM144.829 30.969H162.988L166.428 25.5709H145.231C143.904 25.6138 142.581 25.3888 141.342 24.9094C140.103 24.43 138.973 23.7059 138.019 22.7801C137.065 21.8543 136.306 20.7458 135.788 19.5204C135.27 18.2949 135.003 16.9776 135.003 15.6468C135.003 14.3159 135.27 12.9986 135.788 11.7732C136.306 10.5478 137.065 9.43924 138.019 8.51346C138.973 7.58769 140.103 6.86357 141.342 6.38415C142.581 5.90472 143.904 5.67978 145.231 5.72268H162.483L165.964 0.303909H144.829C142.787 0.250795 140.754 0.608099 138.851 1.35475C136.949 2.1014 135.214 3.22229 133.751 4.6513C132.288 6.08031 131.124 7.78852 130.33 9.67519C129.536 11.5619 129.127 13.5888 129.127 15.6365C129.127 17.6841 129.536 19.7111 130.33 21.5977C131.124 23.4844 132.288 25.1926 133.751 26.6216C135.214 28.0506 136.949 29.1715 138.851 29.9182C140.754 30.6648 142.787 31.0221 144.829 30.969ZM216.793 25.5709C214.635 25.5717 212.536 24.8665 210.814 23.5624C209.093 22.2583 207.843 20.4267 207.255 18.3458H232.407L235.868 12.9374H207.255C207.842 10.8557 209.091 9.0231 210.813 7.71876C212.534 6.41441 214.635 5.70984 216.793 5.71236H234.055L237.506 0.293588H216.391C212.402 0.397316 208.611 2.05822 205.826 4.92232C203.042 7.78642 201.483 11.6272 201.483 15.6261C201.483 19.6251 203.042 23.4658 205.826 26.33C208.611 29.194 212.402 30.855 216.391 30.9587H234.55L238 25.5606H216.783" fill="#C74634"/>
</svg>
