<svg width="269" height="65" viewBox="0 0 269 65" fill="none" xmlns="http://www.w3.org/2000/svg">
<path d="M200.533 17.7103C197.082 19.5795 197.226 25.6186 200.964 27.0565C204.99 28.4944 209.304 28.6382 213.33 29.6447C214.336 29.9323 215.343 30.3636 215.774 31.3701C216.781 33.3832 215.918 36.4027 213.617 37.1217C210.31 38.1282 206.428 38.1282 203.265 36.8341C201.108 35.9714 200.101 33.8145 199.958 31.8015C199.095 31.8015 198.088 31.8015 197.226 31.9453C197.369 33.9583 197.801 36.1152 199.382 37.4092C201.971 39.4223 205.278 39.7099 208.441 39.8536C211.317 39.8536 214.48 39.5661 216.925 37.9844C219.8 35.9714 220.088 30.6512 216.637 28.9257C213.474 27.3441 209.879 27.2003 206.572 26.4814C204.99 26.05 203.121 25.9062 201.683 24.8997C199.814 23.1742 200.677 19.5795 203.121 19.0044C206.284 18.1416 209.735 17.9979 212.755 19.1482C214.624 19.7233 215.343 21.7363 215.63 23.318C216.493 23.318 217.356 23.318 218.362 23.318C218.362 21.5926 217.787 19.7233 216.349 18.573C214.049 16.7038 210.885 16.56 208.153 16.56C205.709 16.4162 202.977 16.4162 200.533 17.7103Z" fill="#4B689B"/>
<path d="M98.0116 18.4296C96.5737 17.1355 94.4169 16.7041 92.5477 16.7041C88.3778 16.7041 84.2079 16.8479 80.0381 16.8479C80.0381 24.1811 80.0381 31.6581 80.0381 38.9913C80.757 38.9913 81.476 38.9913 82.1949 38.9913C82.1949 35.8279 82.0511 32.6646 82.1949 29.645C85.7896 29.645 89.2405 29.645 92.8352 29.645C95.4234 29.5012 98.443 28.3509 99.4495 25.7627C100.312 23.3184 100.025 20.155 98.0116 18.4296ZM96.8613 25.3314C96.1424 27.2006 93.9855 27.7758 92.1163 27.9196C88.8092 28.0634 85.502 27.9196 82.3387 27.9196C82.3387 24.9 82.3387 21.7367 82.3387 18.7171C85.502 18.7171 88.6654 18.7171 91.8287 18.7171C93.4104 18.7171 95.2796 19.0047 96.2861 20.2988C97.2927 21.5929 97.4364 23.6059 96.8613 25.3314Z" fill="#4B689B"/>
<path d="M249.564 16.8479C249.564 24.1811 249.564 31.5143 249.564 38.9913C255.891 38.9913 262.362 38.9913 268.688 38.9913C268.688 38.4161 268.688 37.841 268.688 37.122C263.224 36.9782 257.76 37.122 252.153 36.9782C252.153 30.2202 252.153 23.4621 252.153 16.7041C251.29 16.8479 250.427 16.8479 249.564 16.8479Z" fill="#4B689B"/>
<path d="M139.136 19.7234C139.136 21.305 139.136 22.8867 139.136 24.4684C138.129 24.4684 137.266 24.4684 136.26 24.4684C136.26 24.8998 136.26 25.4749 136.26 25.9063C137.266 25.9063 138.273 25.9063 139.136 25.9063C139.136 29.2134 139.136 32.6643 139.136 35.9714C139.136 36.9779 139.423 37.9845 140.286 38.5596C141.867 39.2786 143.593 39.1348 145.318 38.991C145.318 38.5596 145.318 37.9845 145.318 37.5531C144.168 37.6969 143.018 37.8407 142.011 37.2655C141.292 36.8342 141.436 35.9714 141.292 35.2525C141.292 32.0892 141.292 29.0696 141.292 25.9063C142.586 25.9063 143.881 25.9063 145.175 25.9063C145.175 25.3311 145.175 24.8997 145.031 24.3246C143.737 24.3246 142.443 24.3246 141.149 24.3246C141.149 22.7429 141.149 21.1613 141.149 19.5796C140.717 19.7234 139.854 19.7234 139.136 19.7234Z" fill="white"/>
<path d="M120.873 25.331C118.86 26.6251 118.86 30.3636 121.305 31.3701C124.612 32.5204 128.35 32.2328 131.801 33.2393C133.527 33.8145 133.671 36.4027 132.089 37.2654C129.788 38.4157 127.056 38.2719 124.612 37.8405C122.886 37.553 121.449 36.4027 121.305 34.5334C120.442 34.5334 119.579 34.5334 118.86 34.5334C119.148 35.8275 119.436 37.2654 120.586 38.1281C122.455 39.4222 124.899 39.4222 127.056 39.566C129.357 39.566 131.801 39.4222 133.814 38.2719C135.54 37.2654 136.115 34.9648 135.108 33.3831C134.389 32.2328 133.095 31.8014 131.801 31.5139C129.069 30.9387 126.194 30.9387 123.462 30.3636C122.455 30.076 121.592 29.357 121.592 28.3505C121.592 26.9126 123.174 26.1937 124.468 25.9061C126.481 25.6186 128.782 25.4748 130.795 26.3375C131.945 26.7689 132.233 27.9192 132.52 29.0695C133.383 29.0695 134.102 29.0695 134.965 29.0695C134.821 27.7754 134.389 26.3375 133.239 25.6186C131.082 24.1807 128.494 24.1807 126.05 24.3245C124.324 24.1807 122.455 24.3245 120.873 25.331Z" fill="white"/>
<path d="M171.919 24.6118C170.912 25.0431 170.337 26.0496 169.762 27.0562C169.762 26.1934 169.762 25.3307 169.762 24.6118C169.043 24.6118 168.324 24.6118 167.461 24.6118C167.318 29.5005 167.461 34.2456 167.461 39.1343C168.18 39.1343 168.899 39.1343 169.618 39.1343C169.618 36.6899 169.618 34.1018 169.618 31.6574C169.618 29.9319 170.193 27.9189 171.631 26.9124C173.213 25.7621 175.226 26.0496 177.095 26.0496C177.095 25.4745 177.095 24.7555 177.095 24.1804C175.37 24.0366 173.644 23.8928 171.919 24.6118Z" fill="white"/>
<path d="M225.983 17.9982C229.146 16.4165 232.741 16.1289 236.192 16.4165C239.499 16.7041 242.806 17.8544 244.963 20.4426C247.695 23.3183 248.27 27.9196 247.12 31.658C246.544 33.8149 245.107 35.3965 243.525 36.8344C244.819 37.6971 246.113 38.5599 247.407 39.5664C246.832 40.1415 246.257 40.5729 245.682 41.1481C244.388 40.2853 243.094 39.2788 241.799 38.5599C240.793 38.5599 239.786 39.135 238.636 39.4226C235.76 39.9977 232.597 39.9977 229.721 39.4226C226.558 38.8474 223.395 36.9782 221.669 34.1024C219.944 31.3705 219.8 27.7758 220.519 24.7562C221.382 21.7367 223.395 19.2923 225.983 17.9982ZM230.296 18.5733C227.277 19.2923 224.401 21.4491 223.395 24.4686C222.388 27.7758 222.676 31.658 225.12 34.39C227.277 36.8344 230.44 37.8409 233.604 37.8409C237.054 37.9847 240.793 36.9782 243.094 34.2462C246.257 30.2202 245.826 23.7497 241.656 20.5864C238.492 17.8544 234.179 17.7106 230.296 18.5733Z" fill="#4B689B"/>
<path d="M139.135 19.7231C139.854 19.7231 140.573 19.7231 141.436 19.7231C141.436 21.3048 141.436 22.8865 141.436 24.4682C142.73 24.4682 144.024 24.4682 145.318 24.4682C145.318 25.0433 145.318 25.4747 145.462 26.0498C144.168 26.0498 142.874 26.0498 141.579 26.0498C141.579 29.2132 141.579 32.2327 141.579 35.396C141.579 36.115 141.579 36.9777 142.298 37.4091C143.305 37.8404 144.455 37.6967 145.606 37.6967C145.606 38.128 145.606 38.7032 145.606 39.1345C143.88 39.2783 142.155 39.4221 140.573 38.7032C139.566 38.2718 139.279 37.1215 139.423 36.115C139.423 32.8079 139.423 29.3569 139.423 26.0498C138.416 26.0498 137.41 26.0498 136.547 26.0498C136.547 25.6185 136.547 25.0433 136.547 24.6119C137.553 24.6119 138.416 24.6119 139.423 24.6119C139.135 22.8865 139.135 21.3048 139.135 19.7231Z" fill="#4B689B"/>
<path d="M114.404 25.3311C111.816 23.8932 108.652 23.7494 105.776 24.1808C103.332 24.6121 101.031 25.9062 100.025 28.2068C99.0184 30.5074 99.0184 33.2394 100.169 35.54C101.463 37.9844 104.195 39.2785 106.783 39.4223C110.09 39.7099 113.829 39.2785 116.273 36.6903C118.861 33.3832 118.286 27.4879 114.404 25.3311ZM113.972 36.1152C112.678 37.4093 110.809 37.9844 109.084 37.9844C107.071 38.1282 104.914 37.6968 103.476 36.4027C101.607 34.6773 101.319 31.8015 102.038 29.3571C102.757 27.2003 104.77 25.9062 106.927 25.6186C108.94 25.3311 111.24 25.4749 113.11 26.6252C114.548 27.4879 115.266 29.0696 115.41 30.6512C115.698 32.6643 115.41 34.6773 113.972 36.1152Z" fill="#4B689B"/>
<path d="M120.874 25.33C122.311 24.3235 124.181 24.1797 125.906 24.0359C128.351 23.8921 131.083 23.8921 133.096 25.33C134.246 26.0489 134.677 27.4868 134.821 28.7809C133.958 28.7809 133.239 28.7809 132.377 28.7809C132.233 27.6306 131.802 26.6241 130.651 26.0489C128.638 25.1862 126.481 25.1862 124.325 25.6176C123.03 25.7613 121.449 26.4803 121.449 28.062C121.305 29.0685 122.312 29.9312 123.318 30.075C126.05 30.7939 128.926 30.6501 131.658 31.2253C132.952 31.5129 134.246 32.088 134.965 33.0945C135.971 34.6762 135.396 37.1206 133.671 37.9833C131.658 39.1336 129.213 39.2774 126.913 39.2774C124.756 39.1336 122.312 39.1336 120.442 37.8395C119.292 36.9768 118.861 35.6827 118.717 34.2448C119.58 34.2448 120.442 34.2448 121.161 34.2448C121.161 36.1141 122.743 37.4082 124.468 37.552C126.913 37.8395 129.645 38.1271 131.945 36.9768C133.527 36.1141 133.383 33.5259 131.658 32.9508C128.207 31.9442 124.468 32.2318 121.161 31.0815C118.861 30.3626 118.861 26.6241 120.874 25.33Z" fill="#4B689B"/>
<path d="M152.22 24.3236C154.52 23.7484 157.109 23.7484 159.409 24.4674C160.703 24.8987 161.71 25.9053 162.716 26.768C162.716 25.9053 162.86 25.1863 162.86 24.4674C163.579 24.4674 164.298 24.4674 165.017 24.4674C165.161 28.9248 165.017 33.3822 165.161 37.8397C165.305 39.7089 164.873 41.7219 163.435 43.016C161.566 44.7415 158.834 45.0291 156.39 45.0291C154.233 45.0291 151.932 44.8853 149.919 43.8788C148.625 43.1598 147.906 41.7219 147.619 40.2841C148.338 40.2841 149.056 40.2841 149.775 40.2841C150.207 41.2906 150.638 42.4409 151.645 42.8722C153.226 43.5912 154.952 43.5912 156.677 43.5912C158.546 43.4474 160.703 43.1598 161.854 41.5782C163.004 39.9965 162.716 37.9835 162.716 36.1142C160.416 38.5586 156.821 38.99 153.658 38.5586C151.645 38.271 149.632 37.5521 148.194 35.9704C146.612 33.9574 146.468 31.2254 147.043 28.9248C147.619 26.6242 149.919 24.8987 152.22 24.3236ZM154.089 25.7615C152.507 26.049 150.782 26.768 149.919 28.2059C148.913 29.9313 148.913 32.2319 149.488 33.9574C150.207 35.8266 152.364 36.8331 154.233 37.1207C156.677 37.4083 159.553 37.1207 161.278 35.2515C163.291 32.8071 163.004 28.6372 160.416 26.768C158.69 25.4739 156.246 25.4739 154.089 25.7615Z" fill="#4B689B"/>
<path d="M171.919 24.6113C173.644 23.8924 175.37 24.0362 177.095 24.0362C177.095 24.6113 177.095 25.3302 177.095 25.9054C175.226 25.9054 173.213 25.6178 171.631 26.7681C170.193 27.7746 169.618 29.7877 169.618 31.5131C169.618 33.9575 169.618 36.5457 169.618 38.9901C168.899 38.9901 168.18 38.9901 167.461 38.9901C167.318 34.1013 167.318 29.3563 167.461 24.4675C168.18 24.4675 168.899 24.4675 169.762 24.4675C169.762 25.3302 169.762 26.193 169.762 26.9119C170.337 26.0492 170.912 25.0427 171.919 24.6113Z" fill="#4B689B"/>
<path d="M177.958 27.6315C179.396 25.1871 182.416 24.1806 185.148 24.0368C188.023 23.893 191.187 24.3243 193.2 26.4812C194.781 27.9191 195.213 30.0759 195.357 32.2327C189.893 32.2327 184.572 32.2327 179.108 32.2327C179.252 33.6706 179.684 35.2522 180.834 36.2588C182.991 38.128 186.154 38.4156 188.742 37.6966C190.468 37.2653 191.906 35.9712 192.481 34.2457C193.343 34.2457 194.206 34.2457 194.925 34.2457C194.206 36.6901 192.049 38.4156 189.605 38.9907C186.298 39.7097 182.416 39.5659 179.54 37.5529C176.664 35.5398 176.089 30.7948 177.958 27.6315ZM182.128 26.4812C180.546 27.3439 179.684 29.0694 179.396 30.7948C183.997 30.7948 188.598 30.7948 193.2 30.7948C193.056 29.7883 192.768 28.638 192.049 27.9191C189.605 25.0433 185.148 24.7557 182.128 26.4812Z" fill="#4B689B"/>
<path d="M37.7643 1.1744C35.0323 0.743035 32.1565 0.599246 29.4246 1.03061C27.8429 1.31819 26.2612 2.03713 24.9671 2.75607C20.5097 1.31819 15.4771 0.455457 10.8759 1.31819C7.56876 1.89334 4.40542 3.90637 2.67997 6.92592C0.523146 10.5206 0.091781 14.8343 0.379357 19.0041C0.954509 23.6053 2.10481 28.2066 3.39891 32.664C4.54921 36.5463 5.8433 40.4285 8.00012 43.8795C9.15043 45.7487 10.8759 47.7617 13.1765 48.3369C15.0457 48.7682 16.915 48.1931 18.3529 47.0428C19.0718 47.7617 19.9345 48.3369 20.9411 48.6245C23.673 49.631 26.6926 49.631 29.4246 48.4807C29.5683 52.2192 29.4246 56.1014 30.8624 59.5524C31.4376 61.2778 32.3003 62.8595 33.882 63.866C35.6074 65.0163 37.6205 65.1601 39.6335 64.8725C41.359 64.5849 43.2282 64.0098 44.6661 63.1471C46.2478 62.1405 47.5418 60.7027 48.2608 58.9772C49.9862 55.0949 50.13 50.9251 50.2738 46.7552C54.2999 47.0428 58.4697 46.0363 61.4893 43.3043C62.6396 42.2978 63.6461 40.7161 63.2147 39.1344C62.7834 37.6966 61.2017 36.6901 59.7638 36.8338C58.1822 36.9776 56.7443 37.409 55.1626 37.409C58.6135 31.3699 61.3455 24.8994 62.4958 18.1414C62.9272 15.2656 63.3585 12.3899 62.4958 9.51411C62.0644 7.93244 60.9141 6.63835 59.7638 5.48804C57.1756 2.89986 53.5809 1.1744 49.9862 0.455459C45.8164 -0.40727 41.6465 0.0240946 37.7643 1.1744Z" fill="white"/>
<path d="M37.6216 2.90023C41.9353 1.60614 46.5365 1.17478 50.8501 2.46887C54.3011 3.47538 57.4644 5.48842 59.6212 8.36418C60.4839 9.51448 60.7715 11.0962 60.7715 12.534C60.9153 15.1222 60.3402 17.7104 59.765 20.1548C58.1833 26.7691 55.3076 32.9519 51.7129 38.7035C53.7259 39.5662 56.0265 39.1348 58.0395 38.8473C58.9023 38.7035 60.0526 38.4159 60.6277 39.2786C61.2029 40.1413 60.6277 41.1479 60.0526 41.723C57.033 44.7426 52.4318 45.4615 48.4057 44.7426C47.9744 48.3373 47.543 51.932 46.9679 55.6705C46.6803 57.6835 45.9614 59.8403 44.3797 61.1344C42.9418 62.4285 40.9288 63.0037 39.0595 63.2912C37.1903 63.5788 34.8897 63.435 33.4518 61.9971C31.8701 60.5592 30.8636 58.4024 30.7198 56.3894C30.2885 52.7947 30.2884 49.0562 30.2884 45.4615C28.563 46.8994 26.2624 47.7621 23.9618 47.6183C22.3801 47.4745 20.5109 47.187 19.3606 46.0367C18.6416 45.4615 18.7854 44.3112 19.5043 43.736C20.7984 42.7295 22.5239 42.8733 23.9618 42.2982C25.1121 42.0106 25.6872 40.8603 26.2624 40.1413C24.9683 39.9976 23.6742 39.71 22.6677 39.1348C20.9422 41.0041 19.2168 43.0171 17.6351 44.8863C16.6286 46.0367 15.3345 47.0432 13.7528 46.7556C12.0274 46.468 10.7333 45.1739 9.72675 43.8798C7.85751 41.1479 6.56342 37.9845 5.5569 34.8212C3.97523 29.6448 2.68114 24.4684 1.9622 19.1483C1.53083 15.1222 1.9622 10.8086 4.26281 7.50145C6.13205 4.76948 9.29539 3.3316 12.4587 3.04402C16.7724 2.61266 21.086 3.47538 25.1121 4.91326C28.4192 2.75644 32.7328 2.32508 36.6151 3.18781C37.0465 2.90023 37.3341 3.04402 37.6216 2.90023ZM40.785 4.05054C41.6477 4.62569 42.5104 5.05705 43.3732 5.6322C46.8241 7.93281 49.556 11.2399 51.1377 14.9784C51.5691 16.1287 52.1442 17.1353 52.0004 18.4293C52.0004 20.8737 51.1377 23.3181 51.4253 25.7625C51.7129 28.3507 52.288 31.0827 51.5691 33.6709C51.4253 34.5336 50.8501 35.3963 50.5626 36.2591C50.5626 36.4029 50.7064 36.6904 50.7064 36.6904C50.9939 36.2591 51.2815 35.8277 51.5691 35.3963C54.3011 30.9389 56.3141 26.0501 57.752 21.0175C58.4709 18.2856 59.0461 15.4098 59.0461 12.534C59.0461 11.3837 58.9023 10.0896 58.1833 9.08312C56.6017 7.07009 54.4448 5.48842 52.0004 4.4819C48.4057 3.3316 44.5235 3.18781 40.785 4.05054ZM30.7198 4.33811C27.9878 4.62569 25.3997 6.20736 23.818 8.36418C21.6612 11.3837 20.6546 15.1222 20.3671 18.7169C22.6677 17.7104 25.1121 16.7039 27.7003 17.279C29.2819 17.7104 30.576 19.1483 30.8636 20.73C31.5825 24.0371 32.0139 27.3442 31.295 30.6513C30.7198 33.2395 29.1381 35.5401 28.563 38.2721C29.2819 38.2721 30.0009 38.4159 30.576 38.7035C31.8701 39.4224 32.5891 40.8603 32.4453 42.2982C32.3015 45.8929 32.3015 49.4876 32.5891 53.0823C32.7328 54.5201 32.7328 56.1018 33.1642 57.5397C33.7394 59.2652 34.8897 60.9906 36.7589 61.422C38.7719 61.7096 40.785 61.1344 42.6542 60.2717C44.3797 59.409 45.2424 57.3959 45.53 55.5267C46.1051 51.6444 46.5365 47.7621 46.9679 43.8798C47.1117 42.442 46.8241 41.0041 47.6868 39.71C48.1182 38.8473 48.9809 38.5597 49.6998 38.1283C49.1247 37.2656 48.4057 36.4029 47.8306 35.5401C45.9613 31.5141 43.3732 27.7756 42.5104 23.4619C42.2229 21.5927 42.3666 19.4359 43.9483 18.1418C45.6738 16.7039 47.9744 16.8477 50.1312 16.8477C48.8371 13.253 46.5365 10.0896 43.6607 7.78903C39.9223 5.05705 35.1772 3.76296 30.7198 4.33811ZM11.596 4.62569C9.1516 5.05705 6.7072 6.49493 5.41311 8.79554C3.68765 11.8151 3.54387 15.266 3.83144 18.5731C4.4066 22.8868 5.41311 27.2004 6.70721 31.5141C7.85751 35.1088 9.00781 38.7035 11.0208 41.8668C11.7398 43.0171 12.6025 44.1674 13.8966 44.5988C15.0469 44.8864 15.9096 43.8798 16.6286 43.1609C18.0665 41.2917 19.7919 39.5662 21.3736 37.6969C19.073 35.6839 17.9227 32.5206 18.2103 29.3572C18.4978 27.0566 18.6416 24.6122 18.4978 22.1678C18.2103 18.8607 18.7854 15.4098 19.7919 12.1027C20.5109 9.65827 21.805 7.50145 23.5304 5.6322C19.6481 4.76948 15.4783 3.90675 11.596 4.62569ZM45.0986 19.4359C43.9483 20.2986 43.9483 22.024 44.2359 23.3181C45.0986 27.488 47.543 30.9389 49.2685 34.6774C50.7064 31.9454 49.8436 28.7821 49.556 25.7625C49.2685 23.3181 49.9874 21.0175 50.1312 18.7169C48.5495 18.7169 46.6803 18.4293 45.0986 19.4359ZM20.2233 21.0175C20.2233 23.0306 20.3671 25.0436 20.2233 26.9128C20.0795 28.6383 19.6481 30.3638 20.0795 32.0892C20.6546 35.2526 23.3866 37.8407 26.6937 37.8407C27.1251 36.2591 27.7003 34.6774 28.4192 33.2395C30.4322 29.3572 30.0009 24.8998 28.9944 20.8737C28.7068 19.7234 27.7003 18.8607 26.55 18.8607C24.2494 18.8607 22.0925 19.8672 20.2233 21.0175ZM49.4123 40.4289C48.8371 41.0041 48.8371 41.8668 48.8371 42.5857C50.1312 43.0171 51.5691 43.0171 53.007 42.8733C55.02 42.5857 57.1768 42.0106 58.7585 40.4289C56.3141 40.7165 53.5821 41.2916 51.1377 40.1413C50.5626 39.8538 49.8436 40.1413 49.4123 40.4289ZM25.6872 43.3047C24.2494 44.1674 22.5239 44.0236 21.2298 44.7426C24.1056 46.1804 28.2754 45.7491 30.2884 43.0171C31.295 42.0106 30.2885 39.9976 28.9944 40.1413C27.5565 41.0041 26.9813 42.5857 25.6872 43.3047Z" fill="white"/>
<path d="M45.6727 20.0107C46.5354 19.4355 47.6857 19.4355 48.5485 19.7231C48.5485 20.8734 47.1106 21.7361 46.1041 21.161C45.8165 21.0172 45.2413 20.442 45.6727 20.0107Z" fill="white"/>
<path d="M25.3984 20.154C26.2611 19.8665 27.2676 20.0103 27.9866 20.5854C28.4179 21.0168 27.9866 21.7357 27.5552 21.8795C26.5487 22.5984 24.967 21.8795 24.8232 20.7292C24.8232 20.4416 25.1108 20.154 25.3984 20.154Z" fill="white"/>
<path d="M40.7842 4.04964C44.3789 3.18691 48.4049 3.3307 51.8559 4.62479C54.3003 5.48752 56.4571 7.21298 58.0387 9.22601C58.9015 10.2325 58.9015 11.5266 58.9015 12.6769C58.9015 15.5527 58.3263 18.2847 57.6074 21.1604C56.1695 26.193 54.1565 31.0818 51.4245 35.5392C51.1369 35.9706 50.8493 36.402 50.5618 36.8333C50.5618 36.6895 50.418 36.402 50.418 36.402C50.7056 35.5392 51.2807 34.6765 51.4245 33.8138C52.1434 31.2256 51.5683 28.4936 51.2807 25.9054C50.9931 23.461 51.8559 21.0166 51.8559 18.5722C51.9996 17.4219 51.4245 16.2716 50.9931 15.1213C49.2677 11.3828 46.6795 8.07571 43.2286 5.7751C42.6534 5.05616 41.6469 4.62479 40.7842 4.04964Z" fill="#4B689B"/>
<path d="M30.7192 4.33698C35.1766 3.76183 39.9216 5.05592 43.5163 7.78789C46.3921 10.0885 48.8365 13.2518 49.9868 16.8465C47.9738 16.8465 45.5294 16.7028 43.8039 18.1406C42.2222 19.4347 42.0784 21.5915 42.366 23.4608C43.2288 27.9182 45.8169 31.6567 47.6862 35.539C48.1175 36.5455 48.8365 37.2645 49.5554 38.1272C48.6927 38.5585 47.9738 38.8461 47.5424 39.7088C46.8235 41.0029 47.111 42.4408 46.8235 43.8787C46.3921 47.761 45.9607 51.6433 45.3856 55.5255C45.098 57.3948 44.2353 59.4078 42.5098 60.2705C40.7844 61.1333 38.6275 61.7084 36.6145 61.4208C34.7453 61.1333 33.4512 59.264 33.0198 57.5386C32.5884 56.1007 32.5884 54.519 32.4446 53.0811C32.3009 49.4864 32.3009 45.8917 32.3009 42.297C32.4446 40.8591 31.7257 39.4213 30.4316 38.7023C29.8565 38.4147 29.1375 38.271 28.4186 38.271C28.9937 35.6828 30.5754 33.3822 31.1506 30.6502C31.8695 27.3431 31.4381 24.0359 30.7192 20.7288C30.4316 19.1472 29.1375 17.7093 27.5559 17.2779C24.9677 16.7028 22.5233 17.5655 20.2227 18.7158C20.5102 15.1211 21.5168 11.3826 23.6736 8.36305C25.399 6.20622 27.9872 4.76834 30.7192 4.33698Z" fill="#4B689B"/>
<path d="M11.5952 4.62574C15.6213 3.9068 19.6474 4.62574 23.5297 5.77604C21.8042 7.64529 20.5101 9.80211 19.7912 12.2465C18.7847 15.4098 18.3533 18.8608 18.4971 22.3117C18.6409 24.7561 18.6409 27.0567 18.2095 29.5011C17.7781 32.5206 19.0722 35.684 21.3728 37.8408C19.7912 39.71 18.2095 41.4355 16.6278 43.3047C15.9089 44.1675 15.0462 45.0302 13.8959 44.7426C12.6018 44.3112 11.739 43.1609 11.0201 42.0106C9.00707 38.8473 7.85676 35.2526 6.70646 31.6579C5.41236 27.488 4.40585 23.1744 3.8307 18.717C3.54312 15.4098 3.6869 11.8151 5.41236 8.93938C6.70645 6.63877 9.00706 5.20089 11.5952 4.62574Z" fill="#4B689B"/>
<path d="M45.0978 19.4354C46.5357 18.4288 48.5487 18.5726 50.1304 18.7164C49.9866 21.017 49.2676 23.3176 49.5552 25.762C49.8428 28.6378 50.5617 31.8011 49.2676 34.6769C47.3984 30.9384 44.954 27.4875 44.2351 23.3176C44.0913 22.0235 44.0913 20.4419 45.0978 19.4354ZM45.6729 20.0105C45.2416 20.4419 45.6729 21.017 46.1043 21.1608C47.1108 21.736 48.5487 20.8732 48.5487 19.7229C47.686 19.4354 46.5357 19.4354 45.6729 20.0105Z" fill="#4B689B"/>
<path d="M20.2224 21.0165C22.0917 19.8662 24.2485 18.8597 26.4053 19.0035C27.5556 19.0035 28.5621 19.8662 28.8497 21.0165C29.8562 25.0426 30.1438 29.5 28.2745 33.3823C27.5556 34.8202 26.9805 36.4018 26.5491 37.9835C23.242 37.9835 20.51 35.2515 19.9348 32.232C19.5035 30.5065 20.0786 28.7811 20.0786 27.0556C20.3662 24.8988 20.2224 23.0296 20.2224 21.0165ZM25.3988 20.1538C25.1112 20.2976 24.8236 20.4414 24.8236 20.7289C24.9674 21.8792 26.5491 22.5982 27.5556 21.8792C27.987 21.5917 28.4183 21.0165 27.987 20.5852C27.268 20.01 26.2615 19.8662 25.3988 20.1538Z" fill="#4B689B"/>
<path d="M49.4111 40.4286C49.8425 40.141 50.5614 39.7096 51.1365 40.141C53.4372 41.4351 56.1691 40.7161 58.7573 40.4286C57.1756 41.8664 55.1626 42.5854 53.0058 42.873C51.5679 43.0168 50.13 43.1605 48.8359 42.5854C48.8359 41.8664 48.8359 41.0037 49.4111 40.4286Z" fill="#4B689B"/>
<path d="M25.6862 43.304C26.9803 42.585 27.5554 41.0033 28.8495 40.1406C30.1436 39.9968 31.2939 42.0099 30.1436 43.0164C28.1306 45.7483 23.9607 46.3235 21.085 44.7418C22.5228 44.1667 24.2483 44.1667 25.6862 43.304Z" fill="#4B689B"/>
<path d="M37.7645 1.17458C41.6468 0.168064 45.8166 -0.2633 49.8427 0.45564C53.4374 1.03079 56.8883 2.90004 59.6203 5.48822C60.7706 6.63853 61.9209 7.93262 62.3523 9.51429C63.215 12.39 62.7836 15.2658 62.3523 18.1416C61.0582 24.8996 58.47 31.3701 55.0191 37.4092C56.6007 37.4092 58.0386 36.9778 59.6203 36.834C61.0582 36.6902 62.7836 37.6967 63.0712 39.1346C63.5026 40.7163 62.496 42.298 61.3457 43.3045C58.1824 46.0365 53.8688 46.8992 49.9865 46.7554C49.6989 50.9253 49.6989 55.0951 47.9735 58.9774C47.1107 60.7028 45.9604 62.1407 44.3788 63.1472C42.7971 64.1538 41.0716 64.5851 39.3462 64.8727C37.4769 65.1603 35.3201 65.0165 33.5946 63.8662C32.013 62.8597 31.1502 61.278 30.5751 59.5525C29.281 55.9578 29.4248 52.2193 29.1372 48.4809C26.4052 49.6312 23.3857 49.6312 20.6537 48.6246C19.6472 48.3371 18.7845 47.7619 18.0655 47.043C16.6277 48.1933 14.7584 48.7684 12.8892 48.3371C10.5886 47.7619 9.00688 45.7489 7.71279 43.8796C5.55597 40.4287 4.26188 36.5464 3.11157 32.6642C1.81748 28.2067 0.667177 23.7493 0.0920243 19.0043C-0.195552 14.8344 0.0920249 10.5208 2.39263 6.9261C4.11809 4.05034 7.28143 2.03731 10.5886 1.31837C15.3336 0.31185 20.2224 1.31837 24.6798 2.61246C26.1177 1.89352 27.5555 1.17458 29.1372 0.887003C32.1568 0.455639 35.0325 0.743216 37.7645 1.17458ZM37.6207 2.90004C37.3331 3.04382 36.9018 2.75625 36.6142 2.75625C32.7319 1.89352 28.4183 2.32488 25.1111 4.48171C21.0851 3.04382 16.7714 2.1811 12.4578 2.61246C9.29446 2.90004 5.98733 4.4817 4.26188 7.06989C1.96127 10.5208 1.67369 14.8344 1.96127 18.7167C2.68021 24.0369 3.9743 29.2133 5.55597 34.2458C6.70627 37.4092 7.85658 40.5725 9.72582 43.3045C10.7323 44.5986 12.0264 46.0365 13.7519 46.1802C15.3336 46.324 16.6277 45.4613 17.6342 44.311C19.3596 42.298 20.9413 40.4287 22.6667 38.5595C23.8171 39.1346 25.1111 39.4222 26.2615 39.566C25.5425 40.4287 24.9674 41.4352 23.9608 41.7228C22.523 42.298 20.7975 42.1542 19.5034 43.1607C18.7845 43.7359 18.6407 44.8862 19.3596 45.4613C20.5099 46.6116 22.3792 46.8992 23.9608 47.043C26.2615 47.1868 28.5621 46.4678 30.2875 44.8862C30.2875 48.4809 30.2875 52.2193 30.7189 55.814C30.8627 57.9709 31.8692 60.1277 33.4509 61.4218C34.8887 62.7159 37.1893 63.0035 39.0586 62.7159C40.9278 62.2845 42.9409 61.7094 44.3788 60.5591C45.9604 59.1212 46.6794 57.1081 46.9669 55.0951C47.5421 51.5004 47.9735 47.9057 48.4048 44.1672C52.4309 44.8862 57.0321 44.0234 60.0517 41.1477C60.6268 40.5725 61.3457 39.4222 60.6268 38.7033C60.0516 37.9843 58.9014 38.1281 58.0386 38.2719C56.0256 38.7033 53.725 39.1346 51.7119 38.1281C55.3066 32.3766 58.1824 26.1937 59.7641 19.5795C60.3392 17.1351 60.7706 14.5469 60.7706 11.9587C60.6268 10.5208 60.483 8.93913 59.6203 7.78883C57.4635 4.91307 54.3001 2.90004 50.8492 1.89352C46.6794 1.31837 41.9344 1.60594 37.6207 2.90004Z" fill="#4B689B"/>
</svg>
