<svg width="232" height="74" viewBox="0 0 232 74" fill="none" xmlns="http://www.w3.org/2000/svg">
<path d="M126.939 22.8973C126.939 24.7324 125.431 26.3702 123.465 26.3702C121.957 26.3702 120.647 26.7637 119.533 27.6156C118.288 28.4025 117.305 29.516 116.519 30.7609C114.946 32.8581 114.16 35.3477 113.832 36.2645V48.7148C113.832 50.6153 112.194 52.1882 110.228 52.1882C108.327 52.1882 106.755 50.6153 106.755 48.7148V22.8973C106.755 20.9969 108.327 19.4899 110.228 19.4899C112.194 19.4899 113.832 20.9974 113.832 22.8973V23.3562C114.225 22.8973 114.749 22.3736 115.208 22.0455C117.371 20.6044 120.189 19.4245 123.465 19.4899C125.431 19.4899 126.939 20.9974 126.939 22.8973Z" fill="#636466"/>
<path d="M125.017 35.8069C125.083 26.8953 132.029 19.4253 141.006 19.4253C149.525 19.4253 156.275 25.7813 156.8 34.627V34.9545C156.8 35.0859 156.8 35.4129 156.734 35.5442C156.537 37.1171 155.161 38.1657 153.326 38.1657H132.487C132.815 39.6732 133.535 41.3764 134.715 42.4905C136.092 44.0634 138.713 45.2418 141.006 45.4385C143.365 45.6347 146.183 45.0455 147.822 43.8007C149.197 42.3586 151.884 42.5559 152.736 43.6034C153.588 44.5217 154.244 46.4876 152.736 47.8628C149.525 50.8108 145.659 52.1875 141.006 52.1875C132.029 52.1231 125.083 44.7185 125.017 35.8069ZM132.16 32.5962H150.705C150.05 29.9752 146.707 26.1094 141.006 25.6505C135.437 25.9121 132.684 29.9098 132.16 32.5962Z" fill="#636466"/>
<path d="M190.185 48.6507C190.185 50.5512 188.612 52.1895 186.646 52.1895C184.876 52.1895 183.5 50.9447 183.172 49.3718C180.682 51.075 177.537 52.1895 174.26 52.1895C165.414 52.1895 158.336 44.7195 158.336 35.8733C158.336 26.8958 165.414 19.4258 174.26 19.4258C177.471 19.4258 180.617 20.4739 183.041 22.1776V9.85909C183.041 7.95863 184.614 6.32031 186.645 6.32031C188.611 6.32031 190.184 7.95863 190.184 9.85909V35.8074V35.8733V48.6507H190.185ZM174.261 26.5682C171.901 26.5682 169.739 27.5509 168.101 29.2547C166.463 30.893 165.48 33.2513 165.48 35.8728C165.48 38.3625 166.462 40.7213 168.101 42.3596C169.739 44.0639 171.901 45.0465 174.261 45.0465C176.685 45.0465 178.782 44.0639 180.42 42.3596C182.058 40.7218 183.042 38.3625 183.042 35.8728C183.042 33.2513 182.059 30.893 180.42 29.2547C178.782 27.5509 176.685 26.5682 174.261 26.5682Z" fill="#636466"/>
<path d="M202.655 11.2348C202.655 13.2006 201.148 14.8384 199.116 14.8384C197.15 14.8384 195.577 13.2006 195.577 11.2348V9.8586C195.577 7.89273 197.15 6.31982 199.116 6.31982C201.148 6.31982 202.655 7.89273 202.655 9.8586V11.2348ZM202.655 23.0949V48.6502C202.655 50.6161 201.148 52.189 199.116 52.189C197.15 52.189 195.577 50.6161 195.577 48.6502V23.0949C195.577 20.9982 197.15 19.4907 199.116 19.4907C201.148 19.4907 202.655 20.9982 202.655 23.0949Z" fill="#636466"/>
<path d="M207.157 42.8146C208.337 41.2427 210.631 41.046 212.072 42.2908C213.776 43.7329 216.725 45.2388 219.281 45.1739C221.05 45.1739 222.688 44.5847 223.737 43.9291C224.654 43.1426 224.916 42.488 224.916 41.9632C224.916 41.6357 224.851 41.5048 224.72 41.3076C224.654 41.1114 224.392 40.8492 223.867 40.5222C222.95 39.8665 220.984 39.1455 218.625 38.6871H218.559C216.528 38.2941 214.561 37.7698 212.858 36.9829C211.089 36.1315 209.516 34.9521 208.336 33.183C207.616 32.0035 207.223 30.562 207.223 29.055C207.223 26.0405 208.927 23.4849 211.089 21.8466C213.382 20.2742 216.135 19.4224 219.15 19.4224C223.671 19.4224 226.882 21.585 228.979 23.026C230.552 24.0746 231.011 26.2373 230.028 27.8746C228.979 29.4475 226.817 29.9063 225.179 28.7923C223.082 27.4167 221.247 26.3676 219.15 26.3676C217.511 26.3676 216.07 26.8919 215.218 27.547C214.366 28.1372 214.169 28.7269 214.169 29.0545C214.169 29.3161 214.169 29.3821 214.3 29.5783C214.366 29.7091 214.562 29.9713 215.021 30.2334C215.874 30.8231 217.577 31.4128 219.805 31.8063L219.871 31.8722H219.937C222.1 32.2647 224.131 32.8549 226.031 33.7722C227.8 34.5586 229.57 35.8035 230.684 37.638C231.471 38.9482 231.929 40.4557 231.929 41.9627C231.929 45.1734 230.16 47.8603 227.8 49.5635C225.441 51.2013 222.492 52.1851 219.281 52.1851C214.17 52.1196 210.238 49.7608 207.617 47.6641C206.174 46.4847 205.978 44.2561 207.157 42.8146Z" fill="#636466"/>
<path d="M82.8856 57.0079C78.282 59.4073 54.4338 69.2119 49.3567 71.8582C44.2795 74.5056 41.459 74.4798 37.4483 72.5625C33.4376 70.6453 8.0589 60.3951 3.48734 58.2101C1.20231 57.1179 0.000976562 56.1966 0.000976562 55.3259V46.607C0.000976562 46.607 33.0405 39.4148 38.3748 37.5017C43.7085 35.588 45.559 35.519 50.0981 37.1817C54.6377 38.8443 81.7791 43.7411 86.2654 45.3839C86.2654 45.3839 86.2634 53.1709 86.2634 53.9792C86.2639 54.8412 85.2289 55.7869 82.8856 57.0079Z" fill="#A41E11"/>
<path d="M82.8857 48.2862C78.2821 50.6846 54.4339 60.4902 49.3568 63.1366C44.2796 65.784 41.4591 65.7581 37.4484 63.8409C33.4372 61.9247 8.05901 51.6724 3.48745 49.4885C-1.08412 47.3035 -1.17997 45.7996 3.31097 44.0416C7.8014 42.2826 33.0406 32.3812 38.3754 30.4675C43.7091 28.5549 45.5596 28.4849 50.0987 30.1481C54.6383 31.8107 78.344 41.2457 82.8299 42.8886C87.3168 44.533 87.4892 45.8868 82.8857 48.2862Z" fill="#D82C20"/>
<path d="M82.8856 42.7894C78.282 45.1889 54.4338 54.9934 49.3567 57.6408C44.2795 60.2872 41.459 60.2613 37.4483 58.3441C33.4371 56.4279 8.0589 46.1766 3.48734 43.9917C1.20231 42.8995 0.000976562 41.9791 0.000976562 41.1085V32.3885C0.000976562 32.3885 33.0405 25.1969 38.3748 23.2832C43.7085 21.3701 45.559 21.3006 50.0981 22.9632C54.6377 24.6259 81.7791 29.5216 86.2654 31.165C86.2654 31.165 86.2634 38.952 86.2634 39.7613C86.2639 40.6228 85.2289 41.5684 82.8856 42.7894Z" fill="#A41E11"/>
<path d="M82.8857 34.0682C78.2821 36.4676 54.4339 46.2722 49.3568 48.9196C44.2796 51.5659 41.4591 51.5401 37.4484 49.6229C33.4372 47.7067 8.05901 37.4549 3.48745 35.2705C-1.08412 33.086 -1.17997 31.5821 3.31097 29.8231C7.8014 28.0651 33.0406 18.1632 38.3754 16.25C43.7091 14.3369 45.5596 14.2674 50.0987 15.93C54.6383 17.5927 78.344 27.0271 82.8299 28.6705C87.3168 30.3144 87.4892 31.6688 82.8857 34.0682Z" fill="#D82C20"/>
<path d="M82.8856 28.044C78.282 30.4434 54.4338 40.2485 49.3567 42.8958C44.2795 45.5422 41.459 45.5163 37.4483 43.5991C33.4371 41.6829 8.0589 31.4311 3.48734 29.2467C1.20231 28.1545 0.000976562 27.2337 0.000976562 26.3635V17.6436C0.000976562 17.6436 33.0405 10.4519 38.3748 8.53876C43.7085 6.6251 45.559 6.55614 50.0981 8.2188C54.6377 9.88146 81.7791 14.7772 86.2654 16.4206C86.2654 16.4206 86.2634 24.2075 86.2634 25.0163C86.2639 25.8773 85.2289 26.823 82.8856 28.044Z" fill="#A41E11"/>
<path d="M82.8857 19.3227C78.2821 21.7221 54.4339 31.5272 49.3568 34.1741C44.2796 36.8204 41.4591 36.7946 37.4484 34.8779C33.4377 32.9612 8.05901 22.7099 3.48745 20.5255C-1.08412 18.341 -1.17997 16.8366 3.31097 15.0781C7.8014 13.3196 33.0406 3.41865 38.3754 1.50499C43.7091 -0.408669 45.5596 -0.477625 50.0987 1.18554C54.6383 2.8482 78.344 12.2826 82.8299 13.926C87.3168 15.5689 87.4892 16.9238 82.8857 19.3227Z" fill="#D82C20"/>
<path d="M54.437 10.9257L46.9623 11.7015L45.2888 15.7276L42.586 11.235L33.9551 10.4592L40.3953 8.1369L38.4632 4.57227L44.4927 6.93009L50.1773 5.06918L48.6408 8.75551L54.437 10.9257Z" fill="white"/>
<path d="M44.843 30.4578L30.8926 24.6722L50.8826 21.6045L44.843 30.4578Z" fill="white"/>
<path d="M25.5016 21.4459C31.4023 21.4459 36.1857 19.5918 36.1857 17.3047C36.1857 15.0176 31.4023 13.1636 25.5016 13.1636C19.6008 13.1636 14.8174 15.0176 14.8174 17.3047C14.8174 19.5918 19.6008 21.4459 25.5016 21.4459Z" fill="white"/>
<path d="M63.2715 12.0259L75.1022 16.701L63.2816 21.371L63.2715 12.0259Z" fill="#7A0C00"/>
<path d="M50.1826 17.203L63.271 12.0259L63.2811 21.371L61.9981 21.873L50.1826 17.203Z" fill="#AD2115"/>
</svg>
