<svg width="214" height="153" viewBox="0 0 214 153" fill="none" xmlns="http://www.w3.org/2000/svg">
<rect x="8" width="206" height="145" rx="9" fill="#E6EEFF"/>
<rect x="1.2" y="9.2" width="203.6" height="142.6" rx="7.8" stroke="#4B689B" stroke-width="2.4"/>
<line x1="119.2" y1="42" x2="119.2" y2="111" stroke="#4B689B" stroke-width="2.4"/>
<line x1="185" y1="110.43" x2="118" y2="110.43" stroke="#4B689B" stroke-width="2.4"/>
<rect x="127.241" y="84.4619" width="12.7069" height="24.7692" fill="#2ABB5B"/>
<rect x="145.725" y="65" width="13.8621" height="44.2308" fill="#2ABB5B"/>
<rect x="165.361" y="49.0767" width="12.7069" height="60.1538" fill="#2ABB5B"/>
<line x1="25" y1="44.75" x2="106" y2="44.75" stroke="#4B689B" stroke-width="2.5"/>
<line x1="25" y1="82.75" x2="75" y2="82.75" stroke="#4B689B" stroke-width="2.5"/>
<line x1="25" y1="53.75" x2="106" y2="53.75" stroke="#4B689B" stroke-width="2.5"/>
<line x1="25" y1="91.75" x2="75" y2="91.75" stroke="#4B689B" stroke-width="2.5"/>
<line x1="25" y1="62.75" x2="93" y2="62.75" stroke="#4B689B" stroke-width="2.5"/>
<line x1="25" y1="100.75" x2="106" y2="100.75" stroke="#4B689B" stroke-width="2.5"/>
<line x1="25" y1="71.75" x2="93" y2="71.75" stroke="#4B689B" stroke-width="2.5"/>
<line x1="25" y1="109.75" x2="106" y2="109.75" stroke="#4B689B" stroke-width="2.5"/>
<line x1="2" y1="19.8" x2="205" y2="19.8" stroke="#4B689B" stroke-width="2.4"/>
</svg>
