<svg width="32" height="32" viewBox="0 0 32 32" fill="none" xmlns="http://www.w3.org/2000/svg">
<path d="M14.333 21.8333C14.333 20.9129 15.0792 20.1667 15.9997 20.1667C16.9201 20.1667 17.6663 20.9129 17.6663 21.8333C17.6663 22.7538 16.9201 23.5 15.9997 23.5C15.0792 23.5 14.333 22.7538 14.333 21.8333Z" fill="#717681"/>
<path d="M14.333 10.1667C14.333 9.24619 15.0792 8.5 15.9997 8.5C16.9201 8.5 17.6663 9.24619 17.6663 10.1667C17.6663 11.0871 16.9201 11.8333 15.9997 11.8333C15.0792 11.8333 14.333 11.0871 14.333 10.1667Z" fill="#717681"/>
<path d="M15.9997 14.3333C15.0792 14.3333 14.333 15.0795 14.333 16C14.333 16.9205 15.0792 17.6667 15.9997 17.6667C16.9201 17.6667 17.6663 16.9205 17.6663 16C17.6663 15.0795 16.9201 14.3333 15.9997 14.3333Z" fill="#717681"/>
</svg>
