<svg width="24" height="24" viewBox="0 0 24 24" fill="none" xmlns="http://www.w3.org/2000/svg">
<path d="M16.0002 9.00024C16.254 8.74641 16.2541 8.33485 16.0002 8.08101C15.7464 7.82717 15.3348 7.82717 15.081 8.08101L12.0002 11.081L9.00024 8.08101C8.74641 7.82717 8.33485 7.82717 8.08101 8.08101C7.82717 8.33485 7.82717 8.74641 8.08101 9.00024L11.081 12.0002L8.08103 15.081C7.82719 15.3348 7.82719 15.7464 8.08103 16.0002C8.33487 16.2541 8.74643 16.2541 9.00027 16.0002L12.0002 12.9195L15.0002 16.0002C15.2541 16.2541 15.6656 16.2541 15.9195 16.0002C16.1733 15.7464 16.1733 15.3348 15.9195 15.081L12.9195 12.0002L16.0002 9.00024Z" fill="#DA0B20"/>
<path fill-rule="evenodd" clip-rule="evenodd" d="M3 12C3 7.02944 7.02944 3 12 3C16.9706 3 21 7.02944 21 12C21 16.9706 16.9706 21 12 21C7.02944 21 3 16.9706 3 12ZM12 4.3C7.74741 4.3 4.3 7.74741 4.3 12C4.3 16.2526 7.74741 19.7 12 19.7C16.2526 19.7 19.7 16.2526 19.7 12C19.7 7.74741 16.2526 4.3 12 4.3Z" fill="#DA0B20"/>
</svg>
