<svg width="24" height="24" viewBox="0 0 24 24" fill="none" xmlns="http://www.w3.org/2000/svg">
<path d="M10.7902 15.2896C11.0702 15.5696 11.5302 15.5596 11.8002 15.2696L16.2202 10.4696C16.4602 10.1996 16.4402 9.78964 16.1802 9.54964C15.9202 9.30964 15.5002 9.31964 15.2602 9.58964L11.2702 13.9296L8.8702 11.5296C8.6202 11.2796 8.2002 11.2796 7.9502 11.5296C7.7002 11.7796 7.7002 12.1996 7.9502 12.4496L10.7902 15.2896Z" fill="#2ABB5B"/>
<path fill-rule="evenodd" clip-rule="evenodd" d="M12 3C7.02944 3 3 7.02944 3 12C3 16.9706 7.02944 21 12 21C16.9706 21 21 16.9706 21 12C21 7.02944 16.9706 3 12 3ZM4.3 12C4.3 7.74741 7.74741 4.3 12 4.3C16.2526 4.3 19.7 7.74741 19.7 12C19.7 16.2526 16.2526 19.7 12 19.7C7.74741 19.7 4.3 16.2526 4.3 12Z" fill="#2ABB5B"/>
</svg>
