<svg width="32" height="32" viewBox="0 0 32 32" fill="none" xmlns="http://www.w3.org/2000/svg">
<circle cx="16" cy="16" r="16" fill="black" fill-opacity="0.05"/>
<path d="M11.1826 15.377C11.1826 15.227 11.241 15.0853 11.3576 14.977C11.5826 14.777 11.9243 14.7937 12.1243 15.0103L15.4594 18.199V9.87516C15.4594 9.576 15.7019 9.3335 16.0011 9.3335C16.3003 9.3335 16.5428 9.576 16.5428 9.87516V18.1462L19.5826 14.9437C19.7826 14.7187 20.1243 14.7103 20.3492 14.9103C20.5659 15.1103 20.5826 15.452 20.3826 15.677L16.4344 19.8585C16.2011 20.1168 15.8011 20.1168 15.5678 19.8585L11.3243 15.7437C11.2243 15.6353 11.1826 15.5103 11.1826 15.377Z" fill="#626F84"/>
<path d="M9.625 22.2502C9.625 21.951 9.86751 21.7085 10.1667 21.7085H21.8333C22.1325 21.7085 22.375 21.951 22.375 22.2502C22.375 22.5493 22.1325 22.7918 21.8333 22.7918H10.1667C9.86751 22.7918 9.625 22.5493 9.625 22.2502Z" fill="#626F84"/>
</svg>
