<svg width="32" height="32" viewBox="0 0 32 32" fill="none" xmlns="http://www.w3.org/2000/svg">
<path d="M10.2188 15.2522C10.2188 15.0722 10.2888 14.9022 10.4288 14.7722C10.6988 14.5322 11.1088 14.5522 11.3488 14.8122L15.3509 18.6386V8.65C15.3509 8.29101 15.6419 8 16.0009 8C16.3599 8 16.6509 8.29101 16.6509 8.65V18.5752L20.2987 14.7322C20.5387 14.4622 20.9487 14.4522 21.2187 14.6922C21.4787 14.9322 21.4987 15.3422 21.2587 15.6122L16.5209 20.63C16.2409 20.94 15.7609 20.94 15.4809 20.63L10.3888 15.6922C10.2688 15.5622 10.2188 15.4122 10.2188 15.2522Z" fill="#626F84"/>
<path d="M8.35059 23.5001C8.35059 23.1411 8.6416 22.8501 9.00059 22.8501H23.0006C23.3596 22.8501 23.6506 23.1411 23.6506 23.5001C23.6506 23.8591 23.3596 24.1501 23.0006 24.1501H9.00059C8.6416 24.1501 8.35059 23.8591 8.35059 23.5001Z" fill="#626F84"/>
</svg>
