<svg width="20" height="20" viewBox="0 0 20 20" fill="none" xmlns="http://www.w3.org/2000/svg">
<circle cx="10" cy="14" r="3" fill="#DA0B20"/>
<path fill-rule="evenodd" clip-rule="evenodd" d="M8 10.4992L7.60058 10.7992C6.62676 11.5307 6 12.692 6 14C6 16.2091 7.79086 18 10 18C12.2091 18 14 16.2091 14 14C14 12.692 13.3732 11.5307 12.3994 10.7992L12 10.4992V4C12 2.89543 11.1046 2 10 2C8.89543 2 8 2.89543 8 4L10 4V5H8V6H10V7H8V10.4992ZM7 4C7 2.34315 8.34315 1 10 1C11.6569 1 13 2.34315 13 4V9.99963C14.2144 10.9118 15 12.3642 15 14C15 16.7614 12.7614 19 10 19C7.23858 19 5 16.7614 5 14C5 12.3642 5.78555 10.9118 7 9.99963V7V6V5V4Z" fill="#DA0B20"/>
<path fill-rule="evenodd" clip-rule="evenodd" d="M11 8L11 13L9 13L9 8L11 8Z" fill="#DA0B20"/>
</svg>
