<svg width="20" height="20" viewBox="0 0 20 20" fill="none" xmlns="http://www.w3.org/2000/svg">
<path d="M5.34119 4.57467C5.12965 4.36313 4.78669 4.36313 4.57515 4.57467C4.36362 4.7862 4.36362 5.12916 4.57515 5.3407L9.234 9.99954L4.65887 14.5747C4.44734 14.7862 4.44734 15.1292 4.65887 15.3407C4.87041 15.5522 5.21337 15.5522 5.42491 15.3407L10 10.7656L14.5752 15.3407C14.7867 15.5522 15.1297 15.5522 15.3412 15.3407C15.5527 15.1292 15.5527 14.7862 15.3412 14.5747L10.7661 9.99954L15.4249 5.3407C15.6364 5.12916 15.6364 4.7862 15.4249 4.57467C15.2134 4.36313 14.8704 4.36313 14.6589 4.57467L10 9.23351L5.34119 4.57467Z" fill="#717681"/>
</svg>
