<svg width="24" height="24" viewBox="0 0 24 24" fill="none" xmlns="http://www.w3.org/2000/svg">
<path fill-rule="evenodd" clip-rule="evenodd" d="M17.6499 21.0032C19.3068 21.0032 20.6499 19.6601 20.6499 18.0032V8.00326C20.6499 6.51119 19.5607 5.27353 18.134 5.04211C18.1139 4.84772 18.0752 4.65841 18.0196 4.47617C17.9149 4.1328 17.5517 3.93935 17.2083 4.04407C16.8649 4.1488 16.6715 4.51206 16.7762 4.85543C16.7909 4.90376 16.8036 4.95307 16.8141 5.00326H9.64992C7.99307 5.00326 6.64992 6.34641 6.64992 8.00326V17.6673C6.60008 17.6569 6.55112 17.6443 6.50313 17.6297C6.15976 17.525 5.79651 17.7184 5.69178 18.0618C5.58705 18.4052 5.7805 18.7684 6.12387 18.8731C6.34617 18.9409 6.57899 18.9835 6.81874 18.9979C7.22905 20.1659 8.3417 21.0032 9.64992 21.0032H17.6499ZM9.64992 19.7032H17.6499C18.5888 19.7032 19.3499 18.9421 19.3499 18.0032V8.00326C19.3499 7.06438 18.5888 6.30327 17.6499 6.30327H9.64992C8.71104 6.30327 7.94992 7.06438 7.94992 8.00326V18.0032C7.94992 18.9421 8.71104 19.7032 9.64992 19.7032Z" fill="#626F84"/>
<path d="M5.37407 16.5007C5.4788 16.8441 5.28534 17.2073 4.94197 17.3121C4.5986 17.4168 4.23535 17.2233 4.13062 16.88C4.04585 16.6021 4.00049 16.3077 4.00049 16.0039V15.0602C4.00049 14.7012 4.2915 14.4102 4.65049 14.4102C5.00947 14.4102 5.30049 14.7012 5.30049 15.0602V16.0039C5.30049 16.1778 5.32638 16.3444 5.37407 16.5007Z" fill="#626F84"/>
<path d="M5.30049 11.9457C5.30049 12.3047 5.00947 12.5957 4.65049 12.5957C4.2915 12.5957 4.00049 12.3047 4.00049 11.9457V10.0582C4.00049 9.69922 4.2915 9.4082 4.65049 9.4082C5.00947 9.4082 5.30049 9.69922 5.30049 10.0582V11.9457Z" fill="#626F84"/>
<path d="M5.30049 6.94401C5.30049 7.30299 5.00947 7.59401 4.65049 7.59401C4.2915 7.59401 4.00049 7.30299 4.00049 6.94401V6.00026C4.00049 5.63038 4.05571 5.27221 4.15882 4.93418C4.26355 4.59081 4.6268 4.39735 4.97017 4.50208C5.31354 4.60681 5.50699 4.97007 5.40226 5.31344C5.33624 5.5299 5.30049 5.76031 5.30049 6.00026V6.94401Z" fill="#626F84"/>
<path d="M6.96358 3.75139C6.62022 3.85612 6.25696 3.66266 6.15223 3.31929C6.0475 2.97593 6.24095 2.61267 6.58432 2.50794C6.92236 2.40484 7.28053 2.34961 7.65041 2.34961H8.29659C8.65558 2.34961 8.94659 2.64063 8.94659 2.99961C8.94659 3.3586 8.65558 3.64961 8.29659 3.64961H7.65041C7.41046 3.64961 7.18005 3.68536 6.96358 3.75139Z" fill="#626F84"/>
<path d="M16.0238 2.4799C16.3672 2.58463 16.5607 2.94789 16.4559 3.29126C16.3512 3.63462 15.9879 3.82808 15.6446 3.72335C15.4879 3.67556 15.3209 3.64961 15.1467 3.64961H14.3785C14.0195 3.64961 13.7285 3.3586 13.7285 2.99961C13.7285 2.64063 14.0195 2.34961 14.3785 2.34961H15.1467C15.4508 2.34961 15.7456 2.39503 16.0238 2.4799Z" fill="#626F84"/>
<path d="M10.4291 3.64961C10.0701 3.64961 9.77905 3.3586 9.77905 2.99961C9.77905 2.64063 10.0701 2.34961 10.4291 2.34961H11.8435C12.2025 2.34961 12.4935 2.64063 12.4935 2.99961C12.4935 3.3586 12.2025 3.64961 11.8435 3.64961H10.4291Z" fill="#626F84"/>
</svg>
