<svg width="20" height="20" viewBox="0 0 20 20" fill="none" xmlns="http://www.w3.org/2000/svg">
<path d="M9.37431 11.5112C9.37431 11.8446 9.64282 12.1131 9.97616 12.1131C10.3095 12.1131 10.578 11.8446 10.578 11.502C10.578 11.2242 10.615 11.039 10.7169 10.7797C10.8465 10.4742 11.1058 10.1964 11.3836 9.90937L11.3878 9.90493C11.8405 9.43382 12.3469 8.90669 12.4762 8.05751C12.5965 7.25196 12.2632 6.41862 11.5965 5.89085C10.9113 5.34455 10.0039 5.22418 9.1706 5.54825C8.07802 5.98344 7.45765 6.92788 7.5132 8.09455C7.52245 8.42789 7.81875 8.67789 8.14282 8.66863C8.47616 8.65011 8.73542 8.37234 8.7169 8.03899C8.68912 7.58529 8.83727 6.97418 9.61505 6.66862C10.0502 6.50196 10.4947 6.55751 10.8465 6.83529C11.1799 7.09455 11.3465 7.4927 11.291 7.88159C11.2182 8.34576 10.9038 8.67576 10.5413 9.05623L10.5225 9.07604C10.1891 9.41863 9.81875 9.80752 9.60579 10.3353C9.43912 10.7334 9.37431 11.076 9.37431 11.5112Z" fill="#9BA0AA"/>
<path d="M10.787 14.0273C10.787 14.4619 10.4346 14.8143 9.99993 14.8143C9.5653 14.8143 9.21289 14.4619 9.21289 14.0273C9.21289 13.5926 9.5653 13.2402 9.99993 13.2402C10.4346 13.2402 10.787 13.5926 10.787 14.0273Z" fill="#9BA0AA"/>
<path fill-rule="evenodd" clip-rule="evenodd" d="M10 0C4.47716 0 0 4.47716 0 10C0 15.5229 4.47716 20 10 20C15.5229 20 20 15.5229 20 10C20 4.47716 15.5229 0 10 0ZM1.44444 10C1.44444 5.2749 5.2749 1.44444 10 1.44444C14.7251 1.44444 18.5556 5.2749 18.5556 10C18.5556 14.7251 14.7251 18.5556 10 18.5556C5.2749 18.5556 1.44444 14.7251 1.44444 10Z" fill="#9BA0AA"/>
</svg>
