<svg width="20" height="21" viewBox="0 0 20 21" fill="none" xmlns="http://www.w3.org/2000/svg">
<path d="M18.0834 8.3944C18.3327 8.55986 18.4006 8.89603 18.2351 9.14527C17.8185 9.77288 17.2837 10.4557 16.6405 11.1102L18.1702 12.6399C18.3817 12.8515 18.3817 13.1944 18.1702 13.406C17.9587 13.6175 17.6157 13.6175 17.4042 13.406L15.8484 11.8502C15.069 12.5165 14.1688 13.113 13.1596 13.536L14.0216 15.61C14.1364 15.8862 14.0055 16.2032 13.7293 16.318C13.453 16.4328 13.136 16.302 13.0212 16.0257L12.1344 13.8919C11.4626 14.0776 10.7501 14.183 9.99987 14.183C9.2363 14.183 8.52375 14.0804 7.86125 13.9018L6.97854 16.0257C6.86373 16.302 6.54672 16.4328 6.27047 16.318C5.99423 16.2032 5.86335 15.8862 5.97816 15.61L6.83389 13.551C5.79718 13.1203 4.90401 12.5105 4.14951 11.852L2.59558 13.406C2.38405 13.6175 2.04108 13.6175 1.82955 13.406C1.61801 13.1944 1.61801 12.8515 1.82955 12.6399L3.36523 11.1043C2.69315 10.407 2.16645 9.70979 1.77978 9.15564C1.60859 8.91031 1.66869 8.57265 1.91403 8.40147C2.15936 8.23028 2.49702 8.29039 2.6682 8.53572C3.88751 10.2831 6.28436 13.0997 9.99987 13.0997C13.3611 13.0997 15.9575 10.6175 17.3326 8.5461C17.498 8.29686 17.8342 8.22895 18.0834 8.3944Z" fill="#717681"/>
</svg>
