<svg width="24" height="24" viewBox="0 0 24 24" fill="none" xmlns="http://www.w3.org/2000/svg">
<path fill-rule="evenodd" clip-rule="evenodd" d="M14.6 4H9.39998C9.02892 4 8.66422 4.02945 8.3078 4.08629C8.10407 4.11878 8.00688 4.34856 8.11527 4.52408L9.19577 6.27387C9.23931 6.34439 9.3171 6.38597 9.39998 6.38597H14.6C14.6829 6.38597 14.7607 6.34439 14.8042 6.27387L15.8847 4.52408C15.9931 4.34856 15.8959 4.11878 15.6922 4.08629C15.3358 4.02945 14.9711 4 14.6 4ZM16.7045 6.48583C16.6082 6.64173 16.6734 6.84627 16.8363 6.93017C18.4032 7.73721 19.5373 9.36601 19.76 11.3001C19.7781 11.4568 19.9081 11.5792 20.0658 11.5792L21.6853 11.5792C21.8566 11.5792 21.9936 11.4358 21.9792 11.2651C21.745 8.48833 20.1964 6.1216 18.0108 4.896C17.8745 4.81955 17.7036 4.86778 17.6215 5.00078L16.7045 6.48583ZM19.873 13.4038C19.7342 13.4038 19.6142 13.4994 19.5766 13.6331C19.1499 15.1508 18.1438 16.3964 16.8363 17.0698C16.6734 17.1537 16.6082 17.3583 16.7045 17.5142L17.6215 18.9992C17.7036 19.1322 17.8745 19.1805 18.0108 19.104C19.9244 18.0309 21.3497 16.0831 21.832 13.7512C21.8695 13.57 21.7282 13.4038 21.5432 13.4038H19.873ZM14.8042 17.7261C14.7607 17.6556 14.6829 17.614 14.6 17.614H9.39998C9.3171 17.614 9.23931 17.6556 9.19577 17.7261L8.11527 19.4759C8.00688 19.6514 8.10407 19.8812 8.3078 19.9137C8.66422 19.9706 9.02892 20 9.39998 20H14.6C14.9711 20 15.3358 19.9706 15.6922 19.9137C15.8959 19.8812 15.9931 19.6514 15.8847 19.4759L14.8042 17.7261ZM7.29551 17.5142C7.39178 17.3583 7.32662 17.1537 7.16372 17.0698C5.85623 16.3964 4.85014 15.1508 4.42339 13.6331C4.3858 13.4994 4.26584 13.4038 4.12696 13.4038L2.45682 13.4038C2.27176 13.4038 2.13052 13.57 2.168 13.7512C2.65034 16.0831 4.07557 18.0309 5.98918 19.104C6.12552 19.1805 6.29636 19.1322 6.37849 18.9992L7.29551 17.5142ZM3.93421 11.5792C4.09193 11.5792 4.22191 11.4568 4.23996 11.3001C4.46274 9.36601 5.59678 7.73721 7.16371 6.93017C7.32661 6.84627 7.39178 6.64173 7.29551 6.48583L6.37848 5.00078C6.29636 4.86778 6.12551 4.81955 5.98918 4.896C3.80356 6.1216 2.25503 8.48833 2.02078 11.2651C2.00637 11.4358 2.14341 11.5792 2.31474 11.5792H3.93421ZM9.39998 8.21053H14.6C16.5386 8.21053 18.11 9.90713 18.11 12C18.11 14.0929 16.5386 15.7895 14.6 15.7895H9.39998C7.46145 15.7895 5.88995 14.0929 5.88995 12C5.88995 9.90713 7.46145 8.21053 9.39998 8.21053Z" fill="#0170F3"/>
</svg>
