<svg width="24" height="24" viewBox="0 0 24 24" fill="none" xmlns="http://www.w3.org/2000/svg">
<path fill-rule="evenodd" clip-rule="evenodd" d="M4 12C4 7.58172 7.58172 4 12 4C16.4183 4 20 7.58172 20 12C20 16.4183 16.4183 20 12 20C7.58172 20 4 16.4183 4 12ZM12 7.77778C11.5828 7.77778 11.2444 8.11605 11.2444 8.53333C11.2444 8.95061 11.5828 9.28889 12 9.28889C12.4172 9.28889 12.7556 8.95061 12.7556 8.53333C12.7556 8.11605 12.4172 7.77778 12 7.77778ZM13.8667 15.5556C13.8667 15.9237 13.5682 16.2222 13.2 16.2222H13.1556C12.1492 16.2222 11.3333 15.4064 11.3333 14.4V11.0667C11.3333 10.6985 11.6318 10.4 12 10.4C12.3682 10.4 12.6667 10.6985 12.6667 11.0667V14.4C12.6667 14.67 12.8855 14.8889 13.1556 14.8889H13.2C13.5682 14.8889 13.8667 15.1874 13.8667 15.5556Z" fill="#0D69F2"/>
</svg>
