<svg width="24" height="24" viewBox="0 0 24 24" fill="none" xmlns="http://www.w3.org/2000/svg">
<path fill-rule="evenodd" clip-rule="evenodd" d="M5 2C3.34315 2 2 3.34315 2 5V19C2 20.6569 3.34315 22 5 22H19C20.6569 22 22 20.6569 22 19V5C22 3.34315 20.6569 2 19 2H5ZM8.97656 7.49907C8.97656 6.0079 10.1854 4.79907 11.6766 4.79907H12.1266C13.6177 4.79907 14.8266 6.0079 14.8266 7.49907V11.3255C15.7325 12.1317 16.3031 13.3066 16.3031 14.6147C16.3031 17.0456 14.3325 19.0163 11.9016 19.0163C9.47065 19.0163 7.5 17.0456 7.5 14.6147C7.5 13.3066 8.07064 12.1317 8.97656 11.3255V7.49907ZM10.1297 11.5772H10.1297V11.5741V7.7522C10.1297 6.77362 10.923 5.98032 11.9016 5.98032C12.8801 5.98032 13.6734 6.77362 13.6734 7.7522V11.5027C13.6711 11.5251 13.6699 11.548 13.6699 11.5713C13.6699 11.7902 13.7839 11.9907 13.9539 12.1287C14.6901 12.7262 15.1606 13.6384 15.1606 14.6604C15.1606 16.4603 13.7015 17.9194 11.9016 17.9194C10.1017 17.9194 8.6426 16.4603 8.6426 14.6604C8.6426 13.6397 9.11182 12.7286 9.84632 12.1311C10.0152 11.9937 10.1286 11.7947 10.1297 11.5772ZM11.8977 6.95776C11.5747 6.95776 11.3127 7.21968 11.3127 7.54276V12.2204C11.3127 12.5267 11.1055 12.7872 10.8467 12.9512C10.2962 13.3003 9.93066 13.9151 9.93066 14.6152C9.93066 15.7025 10.8121 16.584 11.8994 16.584C12.9867 16.584 13.8682 15.7025 13.8682 14.6152C13.8682 13.9142 13.5017 13.2987 12.9499 12.9499C12.6906 12.786 12.4827 12.5252 12.4827 12.2184V7.54276C12.4827 7.21968 12.2208 6.95776 11.8977 6.95776Z" fill="#0170F3"/>
</svg>
