<svg width="24" height="24" viewBox="0 0 24 24" fill="none" xmlns="http://www.w3.org/2000/svg">
<path d="M11.2028 4.82708C11.6431 4.39097 12.3569 4.39097 12.7972 4.82708L19.805 11.7687C20.0405 11.9704 20.0663 12.323 19.8627 12.5563C19.6592 12.7896 19.3032 12.8152 19.0676 12.6135L18.0706 11.6259V18.3833C18.0706 19 17.5659 19.5 16.9432 19.5H14.3415C14.0063 19.5 13.7345 19.2308 13.7345 18.8987V14.6035C13.7345 13.9867 13.2297 13.4868 12.6071 13.4868H11.393C10.7703 13.4868 10.2656 13.9867 10.2656 14.6035V18.8987C10.2656 19.2308 9.99379 19.5 9.65852 19.5H7.05686C6.43422 19.5 5.92947 19 5.92947 18.3833V11.6258L4.93238 12.6135C4.69689 12.8152 4.34091 12.7896 4.13729 12.5563C3.93368 12.323 3.95952 11.9704 4.19502 11.7687L6.79669 9.19162L11.2028 4.82708Z" fill="#0D69F2"/>
</svg>
