<svg width="24" height="24" viewBox="0 0 24 24" fill="none" xmlns="http://www.w3.org/2000/svg">
<path fill-rule="evenodd" clip-rule="evenodd" d="M6.54795 6.99268C6.70747 7.16491 6.87013 7.34201 7.03287 7.52113C7.62244 8.17005 8.22133 8.85458 8.67592 9.4336C8.90222 9.72186 9.10279 9.9966 9.2499 10.2349C9.32327 10.3538 9.3909 10.4756 9.442 10.5938C9.48766 10.6994 9.54588 10.8589 9.54588 11.0358C9.54588 11.1825 9.50774 11.3256 9.47514 11.4289C9.43876 11.5442 9.38934 11.6699 9.33322 11.7992C9.22074 12.0582 9.06508 12.3686 8.88585 12.7038C8.52637 13.3762 8.05088 14.188 7.58034 14.9663C7.50332 15.0936 7.42632 15.2203 7.34985 15.3455C7.81104 15.1048 8.29432 14.8692 8.78993 14.6402C10.489 13.8551 12.388 13.1219 14.158 12.4947C15.9297 11.8668 17.5819 11.3417 18.7907 10.9736C19.2697 10.8278 19.6794 10.7064 20 10.613C19.8215 10.3177 19.5335 9.94022 19.0793 9.55813C18.0681 8.70758 16.1504 7.76645 12.5536 7.76645C10.886 7.76645 8.82108 7.47081 7.13455 7.12019C6.93427 7.07856 6.7383 7.03593 6.54795 6.99268ZM5.63173 18.0733C5.60986 18.1104 5.60852 18.1312 5.60852 18.1312C5.60831 18.1337 5.60659 18.154 5.63495 18.2015C5.70789 18.3238 5.91335 18.5169 6.34286 18.7513C7.1823 19.2096 8.52212 19.6388 10.0058 20.0025C11.4723 20.3619 13.0151 20.6422 14.2174 20.8208C14.7777 20.904 15.2578 20.9642 15.617 21C15.7618 18.7132 15.4687 15.9525 15.0382 13.6281C14.9251 13.6677 14.8115 13.7077 14.6974 13.7481C12.9525 14.3665 11.1025 15.0817 9.46279 15.8394C7.8501 16.5845 6.49217 17.3478 5.63173 18.0733ZM5 5.15671C5.11399 5.19867 5.24926 5.24435 5.40526 5.29288C5.93606 5.458 6.65317 5.63962 7.46569 5.80853C9.09797 6.14786 11.042 6.4208 12.5536 6.4208C12.6954 6.4208 12.8351 6.42216 12.9727 6.42484C12.5877 5.51232 12.1857 4.66329 11.8429 3.99411C11.6299 3.57831 11.4432 3.23879 11.3006 3C11.0871 3.05361 10.8147 3.1233 10.502 3.20621C9.72434 3.4124 8.70404 3.69853 7.7207 4.02086C6.72506 4.34722 5.81412 4.69581 5.22827 5.02027C5.13822 5.07013 5.06274 5.11576 5 5.15671Z" fill="#0170F3"/>
</svg>
