<svg width="24" height="24" viewBox="0 0 24 24" fill="none" xmlns="http://www.w3.org/2000/svg">
<path fill-rule="evenodd" clip-rule="evenodd" d="M14.1053 16.634C14.1053 16.5157 14.2136 16.4271 14.3302 16.4472C14.7809 16.5251 15.2445 16.5656 15.7175 16.5656H16.9542C17.2902 16.5656 17.5627 16.2932 17.5627 15.9572C17.5627 15.6211 17.2902 15.3487 16.9542 15.3487H15.7175C11.9175 15.3487 8.83706 12.2682 8.83706 8.46827V4.46814C8.83706 4.20969 9.04654 4.00015 9.30498 4.00011C10.22 3.99994 11.1351 4.00001 12.0502 4.00008L13.5383 4.00015C17.4933 4.00015 20.6995 7.20635 20.6995 11.1614V16.4471C20.6995 18.8511 18.7506 20.8 16.3466 20.8H15.6499C14.7968 20.8 14.1053 20.1085 14.1053 19.2554V16.634ZM16.6598 12.9442C17.1768 12.9442 17.5959 12.5251 17.5959 12.0081C17.5959 11.4911 17.1768 11.0719 16.6598 11.0719C16.1428 11.0719 15.7237 11.4911 15.7237 12.0081C15.7237 12.5251 16.1428 12.9442 16.6598 12.9442Z" fill="#0170F3"/>
<path d="M7.4973 5.155C7.57149 5.18006 7.62012 5.25044 7.62012 5.32875V8.46827C7.62012 11.7827 9.6115 14.632 12.4631 15.8851C12.532 15.9154 12.5774 15.9832 12.5774 16.0586L12.5774 17.5619C12.5774 18.4149 11.8858 19.1065 11.0328 19.1065L9.28903 19.1065C6.36799 19.1065 4.00001 16.7385 4.00001 13.8175L4 6.31788C4 5.53565 4.60768 4.81727 5.47118 4.8374C6.00299 4.84979 6.77544 4.91117 7.4973 5.155Z" fill="#0170F3"/>
</svg>
