<svg width="24" height="24" viewBox="0 0 24 24" fill="none" xmlns="http://www.w3.org/2000/svg">
<path d="M3.52704 15.0092L10.3677 18.4295C11.3952 18.9433 12.6047 18.9433 13.6323 18.4295L20.4729 15.0092L21.0459 15.2956C21.5986 15.572 21.5986 16.3609 21.0459 16.6373L13.6323 20.3441C12.6047 20.8578 11.3952 20.8578 10.3676 20.3441L2.95408 16.6373C2.4013 16.3609 2.40129 15.572 2.95408 15.2956L3.52704 15.0092Z" fill="#0170F3"/>
<path d="M3.52693 11.0403L10.3677 14.4606C11.3952 14.9744 12.6047 14.9744 13.6323 14.4606L20.473 11.0403L21.1157 11.3616C21.6684 11.638 21.6684 12.4268 21.1157 12.7032L13.6323 16.4449C12.6047 16.9587 11.3952 16.9587 10.3677 16.4449L2.88432 12.7032C2.33153 12.4268 2.33153 11.638 2.88432 11.3616L3.52693 11.0403Z" fill="#0170F3"/>
<path d="M13.6323 3.65145C12.6047 3.13767 11.3952 3.13767 10.3677 3.65145L2.88432 7.39312C2.33153 7.66952 2.33153 8.45837 2.88432 8.73476L10.3677 12.4764C11.3952 12.9902 12.6047 12.9902 13.6323 12.4764L21.1157 8.73476C21.6684 8.45837 21.6684 7.66952 21.1157 7.39312L13.6323 3.65145Z" fill="#0170F3"/>
</svg>
