<svg width="50" height="50" viewBox="0 0 50 50" fill="none" xmlns="http://www.w3.org/2000/svg">
<g filter="url(#filter0_d_857_14950)">
<path fill-rule="evenodd" clip-rule="evenodd" d="M26.3673 24.6344C26.4492 24.5525 26.4492 24.4197 26.3673 24.3378C26.2854 24.2559 26.1526 24.2559 26.0707 24.3378L25.0471 25.3614L24.0416 24.356C23.9597 24.2741 23.8269 24.2741 23.745 24.356C23.6631 24.4379 23.6631 24.5707 23.745 24.6526L24.7505 25.658L23.7457 26.6628C23.6638 26.7447 23.6638 26.8775 23.7457 26.9594C23.8276 27.0413 23.9604 27.0413 24.0423 26.9594L25.0471 25.9546L26.07 26.9776C26.1519 27.0595 26.2847 27.0595 26.3666 26.9776C26.4485 26.8957 26.4485 26.7629 26.3666 26.681L25.3437 25.658L26.3673 24.6344Z" fill="white"/>
</g>
<circle cx="25" cy="25" r="25" fill="#6EA5F7"/>
<path fill-rule="evenodd" clip-rule="evenodd" d="M40 24.25C40 27.3984 38.4455 30.2577 35.9146 32.3672L31.2502 41.5001L28.3116 35.7465C27.3239 35.9126 26.2998 36 25.25 36C17.1038 36 10.5 30.7393 10.5 24.25C10.5 17.7607 17.1038 12.5 25.25 12.5C33.3962 12.5 40 17.7607 40 24.25ZM19.5 26C20.3284 26 21 25.3284 21 24.5C21 23.6716 20.3284 23 19.5 23C18.6716 23 18 23.6716 18 24.5C18 25.3284 18.6716 26 19.5 26ZM26.5 24.5C26.5 25.3284 25.8284 26 25 26C24.1716 26 23.5 25.3284 23.5 24.5C23.5 23.6716 24.1716 23 25 23C25.8284 23 26.5 23.6716 26.5 24.5ZM30.5 26C31.3284 26 32 25.3284 32 24.5C32 23.6716 31.3284 23 30.5 23C29.6716 23 29 23.6716 29 24.5C29 25.3284 29.6716 26 30.5 26Z" fill="white"/>
<defs>
<filter id="filter0_d_857_14950" x="19.6836" y="22.2764" width="10.7451" height="10.7627" filterUnits="userSpaceOnUse" color-interpolation-filters="sRGB">
<feFlood flood-opacity="0" result="BackgroundImageFix"/>
<feColorMatrix in="SourceAlpha" type="matrix" values="0 0 0 0 0 0 0 0 0 0 0 0 0 0 0 0 0 0 127 0" result="hardAlpha"/>
<feOffset dy="2"/>
<feGaussianBlur stdDeviation="2"/>
<feComposite in2="hardAlpha" operator="out"/>
<feColorMatrix type="matrix" values="0 0 0 0 0 0 0 0 0 0 0 0 0 0 0 0 0 0 0.45 0"/>
<feBlend mode="normal" in2="BackgroundImageFix" result="effect1_dropShadow_857_14950"/>
<feBlend mode="normal" in="SourceGraphic" in2="effect1_dropShadow_857_14950" result="shape"/>
</filter>
</defs>
</svg>
