<svg width="50" height="50" viewBox="0 0 50 50" fill="none" xmlns="http://www.w3.org/2000/svg">
<path fill-rule="evenodd" clip-rule="evenodd" d="M0 25C0 11.1929 11.1929 0 25 0C38.8072 0 50 11.1929 50 25C50 38.8072 38.8072 50 25 50C11.1929 50 0 38.8072 0 25ZM25 11.8056C23.6961 11.8056 22.6389 12.8627 22.6389 14.1667C22.6389 15.4707 23.6961 16.5278 25 16.5278C26.3039 16.5278 27.3611 15.4707 27.3611 14.1667C27.3611 12.8627 26.3039 11.8056 25 11.8056ZM30.8333 36.1111C30.8333 37.2617 29.9006 38.1944 28.75 38.1944H28.6111C25.4661 38.1944 22.9167 35.645 22.9167 32.5V22.0833C22.9167 20.9328 23.8494 20 25 20C26.1506 20 27.0833 20.9328 27.0833 22.0833V32.5C27.0833 33.3439 27.7672 34.0278 28.6111 34.0278H28.75C29.9006 34.0278 30.8333 34.9606 30.8333 36.1111Z" fill="#6EA5F7"/>
</svg>
