<svg width="50" height="50" viewBox="0 0 50 50" fill="none" xmlns="http://www.w3.org/2000/svg">
<g filter="url(#filter0_d_857_14994)">
<path fill-rule="evenodd" clip-rule="evenodd" d="M26.367 24.6344C26.4489 24.5525 26.4489 24.4197 26.367 24.3378C26.2851 24.2559 26.1523 24.2559 26.0704 24.3378L25.0468 25.3614L24.0416 24.3562C23.9597 24.2743 23.8269 24.2743 23.745 24.3562C23.6631 24.4381 23.6631 24.5709 23.745 24.6528L24.7502 25.658L23.7454 26.6628C23.6635 26.7447 23.6635 26.8775 23.7454 26.9594C23.8273 27.0413 23.9601 27.0413 24.042 26.9594L25.0468 25.9546L26.07 26.9778C26.1519 27.0597 26.2847 27.0597 26.3666 26.9778C26.4485 26.8959 26.4485 26.7631 26.3666 26.6812L25.3434 25.658L26.367 24.6344Z" fill="white"/>
</g>
<circle cx="25" cy="25" r="25" fill="#6EA5F7"/>
<path d="M23.7158 29.4296C23.7158 28.5141 23.8509 27.7277 24.1211 27.0704C24.3912 26.3897 24.7228 25.7676 25.1158 25.2042C25.5088 24.6408 25.9386 24.1244 26.4053 23.6549C26.8719 23.162 27.3018 22.669 27.6947 22.1761C28.0877 21.6596 28.4193 21.1197 28.6895 20.5563C28.9596 19.9695 29.0947 19.3005 29.0947 18.5493C29.0947 17.446 28.7263 16.5775 27.9895 15.9437C27.2772 15.3099 26.1719 14.993 24.6737 14.993C24.5509 14.993 24.293 15.0047 23.9 15.0282C23.5316 15.0282 23.0772 15.0751 22.5368 15.169C22.0211 15.2394 21.4561 15.3803 20.8421 15.5915C20.2281 15.7793 19.614 16.0493 19 16.4014V13.162C20.1298 12.6925 21.2105 12.3873 22.2421 12.2465C23.2982 12.0822 24.1825 12 24.8947 12C26.1965 12 27.3509 12.1643 28.3579 12.493C29.3649 12.7981 30.2123 13.2324 30.9 13.7958C31.5877 14.3592 32.1035 15.0282 32.4474 15.8028C32.8158 16.554 33 17.3756 33 18.2676C33 19.1127 32.8526 19.8873 32.5579 20.5915C32.2877 21.2723 31.9316 21.9061 31.4895 22.493C31.0474 23.0798 30.5807 23.6432 30.0895 24.1831C29.5982 24.6995 29.1316 25.2394 28.6895 25.8028C28.2474 26.3427 27.8789 26.9296 27.5842 27.5634C27.314 28.1737 27.1789 28.8545 27.1789 29.6056V30.1338H23.7158V29.4296ZM23.3842 33.0563H27.5105V37H23.3842V33.0563Z" fill="white"/>
<defs>
<filter id="filter0_d_857_14994" x="19.6836" y="22.2764" width="10.7451" height="10.7627" filterUnits="userSpaceOnUse" color-interpolation-filters="sRGB">
<feFlood flood-opacity="0" result="BackgroundImageFix"/>
<feColorMatrix in="SourceAlpha" type="matrix" values="0 0 0 0 0 0 0 0 0 0 0 0 0 0 0 0 0 0 127 0" result="hardAlpha"/>
<feOffset dy="2"/>
<feGaussianBlur stdDeviation="2"/>
<feComposite in2="hardAlpha" operator="out"/>
<feColorMatrix type="matrix" values="0 0 0 0 0 0 0 0 0 0 0 0 0 0 0 0 0 0 0.45 0"/>
<feBlend mode="normal" in2="BackgroundImageFix" result="effect1_dropShadow_857_14994"/>
<feBlend mode="normal" in="SourceGraphic" in2="effect1_dropShadow_857_14994" result="shape"/>
</filter>
</defs>
</svg>
