<svg width="24" height="24" viewBox="0 0 24 24" fill="none" xmlns="http://www.w3.org/2000/svg">
<path d="M10.0184 14.1185H8.53952V15.6147H10.0184V14.1185Z" fill="#0170F3"/>
<path fill-rule="evenodd" clip-rule="evenodd" d="M21.3134 6.79863C22.1989 6.79863 22.1989 8.188 21.3134 8.188H19.8451V15.0013H21.3134C21.6926 15.0013 22 15.3123 22 15.696C22 16.0796 21.6926 16.3907 21.3134 16.3907H19.8451V17.9938C19.8451 19.7572 18.4296 21.2 16.6761 21.2H7.16901C5.41549 21.2 4 19.7679 4 17.9938V5.20623C4 3.43212 5.41549 2 7.16901 2H16.6761C18.4296 2 19.8451 3.43212 19.8451 5.20623V6.79863H21.3134ZM11.2535 7.80525C11.501 7.51459 11.4688 7.07595 11.1815 6.82552C10.8942 6.57509 10.4607 6.60769 10.2132 6.89835L9.01623 8.30385L8.29188 7.62339C8.01398 7.36234 7.57954 7.37864 7.32152 7.6598C7.0635 7.94096 7.07961 8.3805 7.3575 8.64156L8.60407 9.81257C8.74076 9.94098 8.9232 10.0076 9.10943 9.9971C9.29567 9.98661 9.46967 9.89991 9.59142 9.75694L11.2535 7.80525ZM12.8929 8.32764C12.8929 8.7113 13.2003 9.02232 13.5795 9.02232L15.9894 9.02231C16.3686 9.02231 16.6761 8.71129 16.6761 8.32763C16.6761 7.94396 16.3686 7.63295 15.9894 7.63295L13.5795 7.63295C13.2003 7.63295 12.8929 7.94397 12.8929 8.32764ZM12.8929 14.8666C12.8929 15.2503 13.2003 15.5613 13.5795 15.5613L15.9894 15.5613C16.3686 15.5613 16.6761 15.2503 16.6761 14.8666C16.6761 14.4829 16.3686 14.1719 15.9894 14.1719L13.5795 14.1719C13.2003 14.1719 12.8929 14.483 12.8929 14.8666ZM8.53952 12.7291C7.7811 12.7291 7.16628 13.3512 7.16628 14.1185V15.6147C7.16628 16.382 7.7811 17.0041 8.53952 17.0041H10.0184C10.7768 17.0041 11.3916 16.382 11.3916 15.6147V14.1185C11.3916 13.3512 10.7768 12.7291 10.0184 12.7291H8.53952Z" fill="#0170F3"/>
</svg>
