<svg width="24" height="24" viewBox="0 0 24 24" fill="none" xmlns="http://www.w3.org/2000/svg">
<path fill-rule="evenodd" clip-rule="evenodd" d="M15.3003 6.30034C15.3003 8.12307 13.8227 9.60069 12 9.60069C10.1773 9.60069 8.69965 8.12307 8.69965 6.30034C8.69965 4.47761 10.1773 3 12 3C13.8227 3 15.3003 4.47761 15.3003 6.30034Z" fill="#0170F3"/>
<path fill-rule="evenodd" clip-rule="evenodd" d="M15.3021 17.698C15.3021 19.5217 13.8237 21.0001 12 21.0001C10.1763 21.0001 8.69794 19.5217 8.69794 17.698C8.69794 15.8743 10.1763 14.3959 12 14.3959C13.8237 14.3959 15.3021 15.8743 15.3021 17.698Z" fill="#0170F3"/>
<path fill-rule="evenodd" clip-rule="evenodd" d="M9.60024 12.0001C9.60024 10.1774 8.12273 8.69993 6.30012 8.69993C4.47751 8.69993 3 10.1774 3 12.0001C3 13.8227 4.47751 15.3002 6.30012 15.3002C8.12273 15.3002 9.60024 13.8227 9.60024 12.0001Z" fill="#0170F3"/>
<path fill-rule="evenodd" clip-rule="evenodd" d="M17.7009 8.70102C19.5229 8.70102 21 10.178 21 12C21 13.822 19.5229 15.2991 17.7009 15.2991C15.8789 15.2991 14.4019 13.822 14.4019 12C14.4019 10.178 15.8789 8.70102 17.7009 8.70102Z" fill="#0170F3"/>
</svg>
