<svg width="24" height="24" viewBox="0 0 24 24" fill="none" xmlns="http://www.w3.org/2000/svg">
<path fill-rule="evenodd" clip-rule="evenodd" d="M3.27814 7.01441C2.98701 6.79018 2.89824 6.3827 3.13851 6.10588C3.7265 5.42844 4.59983 5 5.57676 5H18.4126C19.3931 5 20.2744 5.43674 20.8643 6.12555C21.1037 6.40517 21.0104 6.81386 20.715 7.03532L13.4342 12.4948C12.526 13.1759 11.2672 13.1677 10.368 12.4752L3.27814 7.01441ZM3.00139 9.69079C3.00157 9.13739 3.67113 8.82821 4.12989 9.16858L8.49055 12.4039L5.87166 14.2781C5.58531 14.483 5.52783 14.87 5.74328 15.1423C5.95873 15.4147 6.36552 15.4694 6.65186 15.2645L9.54892 13.1911L9.55029 13.1902L9.66778 13.2773C10.9712 14.2444 12.7957 14.2556 14.1123 13.3048L14.2446 13.2091L17.1166 15.2645C17.4029 15.4694 17.8097 15.4147 18.0252 15.1423C18.2406 14.87 18.1831 14.483 17.8968 14.2781L15.3188 12.4332L19.883 9.13656C20.3361 8.80927 20.9862 9.10682 20.9928 9.64797C21.0086 10.9535 20.9964 12.2609 20.9842 13.5676C20.9761 14.4297 20.9681 15.2914 20.9681 16.1519C20.9681 17.7281 19.6304 19.0003 17.9734 19.0003H5.99468C4.33762 19.0003 3 17.7281 3 16.1519C3 14.3872 3.00085 11.4183 3.00139 9.69079Z" fill="#0D69F2"/>
</svg>
