<svg width="24" height="24" viewBox="0 0 24 24" fill="none" xmlns="http://www.w3.org/2000/svg">
<path fill-rule="evenodd" clip-rule="evenodd" d="M5 2C3.34315 2 2 3.34315 2 5V19C2 20.6569 3.34315 22 5 22H19C20.6569 22 22 20.6569 22 19V5C22 3.34315 20.6569 2 19 2H5ZM9.5 8.625H14.5C16.364 8.625 17.875 10.136 17.875 12C17.875 13.864 16.364 15.375 14.5 15.375H9.5C7.63604 15.375 6.125 13.864 6.125 12C6.125 10.136 7.63604 8.625 9.5 8.625ZM4.5 12C4.5 9.23858 6.73858 7 9.5 7H14.5C17.2614 7 19.5 9.23858 19.5 12C19.5 14.7614 17.2614 17 14.5 17H9.5C6.73858 17 4.5 14.7614 4.5 12Z" fill="#0170F3"/>
</svg>
