<svg width="24" height="24" viewBox="0 0 24 24" fill="none" xmlns="http://www.w3.org/2000/svg">
<path fill-rule="evenodd" clip-rule="evenodd" d="M21.3134 6.79863C22.1989 6.79863 22.1989 8.188 21.3134 8.188H19.8451V15.0013H21.3134C21.6926 15.0013 22 15.3123 22 15.696C22 16.0796 21.6926 16.3907 21.3134 16.3907H19.8451V17.9938C19.8451 19.7572 18.4296 21.2 16.6761 21.2H7.16901C5.41549 21.2 4 19.7679 4 17.9938V5.20623C4 3.43212 5.41549 2 7.16901 2H16.6761C18.4296 2 19.8451 3.43212 19.8451 5.20623V6.79863H21.3134ZM8.75352 8.61748C9.33692 8.61748 9.80986 8.13899 9.80986 7.54874C9.80986 6.95849 9.33692 6.47999 8.75352 6.47999C8.17012 6.47999 7.69718 6.95849 7.69718 7.54874C7.69718 8.13899 8.17012 8.61748 8.75352 8.61748ZM15.324 8.2435C15.7032 8.2435 16.0106 7.93248 16.0106 7.54882C16.0106 7.16516 15.7032 6.85414 15.324 6.85414H11.9225C11.5433 6.85414 11.2359 7.16516 11.2359 7.54882C11.2359 7.93248 11.5433 8.2435 11.9225 8.2435H15.324ZM16.022 11.5813C16.022 11.965 15.7146 12.276 15.3354 12.276H11.934C11.5548 12.276 11.2474 11.965 11.2474 11.5813C11.2474 11.1976 11.5548 10.8866 11.934 10.8866H15.3354C15.7146 10.8866 16.022 11.1976 16.022 11.5813ZM15.324 16.3686C15.7032 16.3686 16.0106 16.0576 16.0106 15.6739C16.0106 15.2903 15.7032 14.9793 15.324 14.9793L11.9225 14.9793C11.5433 14.9793 11.2359 15.2903 11.2359 15.6739C11.2359 16.0576 11.5433 16.3686 11.9225 16.3686H15.324ZM9.83717 11.5813C9.83717 12.1716 9.36423 12.6501 8.78083 12.6501C8.19743 12.6501 7.72449 12.1716 7.72449 11.5813C7.72449 10.9911 8.19743 10.5126 8.78083 10.5126C9.36423 10.5126 9.83717 10.9911 9.83717 11.5813ZM9.83717 15.6452C9.83717 16.2355 9.36423 16.714 8.78083 16.714C8.19743 16.714 7.72449 16.2355 7.72449 15.6452C7.72449 15.055 8.19743 14.5765 8.78083 14.5765C9.36423 14.5765 9.83717 15.055 9.83717 15.6452Z" fill="#0170F3"/>
</svg>
