<svg width="20" height="20" viewBox="0 0 20 20" fill="none" xmlns="http://www.w3.org/2000/svg">
<path fill-rule="evenodd" clip-rule="evenodd" d="M5.3922 5.96802C5.09129 3.32002 7.16261 1 9.82764 1C12.4927 1 14.564 3.32002 14.2631 5.96803L14.001 8.274C13.7598 10.3966 11.9639 12 9.82764 12C7.69141 12 5.89545 10.3966 5.65424 8.274L5.3922 5.96802Z" fill="#1971FF"/>
<path fill-rule="evenodd" clip-rule="evenodd" d="M2.11689 17.6984C2.72694 14.9532 5.16182 13 7.97403 13H11.6813C14.4934 13 16.9283 14.9532 17.5384 17.6984L17.6383 18.1481C17.7355 18.5853 17.4028 19 16.955 19H2.70028C2.25245 19 1.9198 18.5853 2.01695 18.1481L2.11689 17.6984Z" fill="#1971FF"/>
</svg>
